<svg width="33" height="33" viewBox="0 0 33 33" fill="none" xmlns="http://www.w3.org/2000/svg">
<path d="M9.25371 23.4221C9.25371 24.1272 9.82586 24.7027 10.5298 24.7027H11.9887V28.3307C11.9887 29.2497 12.7226 30 13.6242 30C14.5289 30 15.2598 29.2527 15.2598 28.3307V24.6997H17.8061V28.3276C17.8061 29.2467 18.54 29.997 19.4416 29.997C20.3463 29.997 21.0772 29.2497 21.0772 28.3276V24.6997H22.5361C23.24 24.6997 23.8122 24.1241 23.8122 23.419V11.5106H9.25371V23.4221V23.4221ZM19.9509 5.33949L21.2959 3.38087C21.3738 3.26637 21.3558 3.11269 21.251 3.03736C21.1461 2.96504 20.9963 3.0012 20.9185 3.11571L19.5225 5.15267C18.6029 4.78806 17.5784 4.58618 16.503 4.58618C15.4276 4.58618 14.4031 4.78806 13.4835 5.15267L12.0875 3.11872C12.0096 3.00421 11.8599 2.96504 11.755 3.04037C11.6502 3.11269 11.6322 3.26336 11.7101 3.38389L13.0551 5.3425C10.9163 6.34291 9.41847 8.23824 9.22675 10.453H23.7852C23.5875 8.23523 22.0867 6.33989 19.9509 5.33949V5.33949ZM13.4295 8.42808C13.2702 8.42808 13.1144 8.38054 12.9819 8.29148C12.8493 8.20241 12.7461 8.07582 12.6851 7.9277C12.6241 7.77959 12.6081 7.61661 12.6392 7.45938C12.6703 7.30215 12.747 7.15772 12.8597 7.04436C12.9724 6.931 13.116 6.8538 13.2723 6.82252C13.4286 6.79125 13.5907 6.8073 13.7379 6.86865C13.8851 6.93 14.011 7.03389 14.0995 7.16719C14.1881 7.30048 14.2353 7.4572 14.2353 7.61751C14.2348 7.83232 14.1497 8.03817 13.9987 8.19006C13.8477 8.34195 13.6431 8.42752 13.4295 8.42808V8.42808ZM19.6723 8.42808C19.5129 8.42808 19.3571 8.38054 19.2246 8.29148C19.0921 8.20241 18.9888 8.07582 18.9278 7.9277C18.8668 7.77959 18.8509 7.61661 18.882 7.45938C18.9131 7.30215 18.9898 7.15772 19.1025 7.04436C19.2152 6.931 19.3588 6.8538 19.5151 6.82252C19.6714 6.79125 19.8334 6.8073 19.9807 6.86865C20.1279 6.93 20.2538 7.03389 20.3423 7.16719C20.4309 7.30048 20.4781 7.4572 20.4781 7.61751C20.4776 7.83232 20.3925 8.03817 20.2415 8.19006C20.0905 8.34195 19.8858 8.42752 19.6723 8.42808ZM26.3644 11.4624C25.4597 11.4624 24.7288 12.2097 24.7288 13.1318V19.6525C24.7288 20.5715 25.4627 21.3218 26.3644 21.3218C27.2691 21.3218 28 20.5745 28 19.6525V13.1288C28.003 12.2067 27.2721 11.4624 26.3644 11.4624ZM6.63558 11.4624C5.73092 11.4624 5 12.2097 5 13.1318V19.6525C5 20.5715 5.73391 21.3218 6.63558 21.3218C7.54024 21.3218 8.27116 20.5745 8.27116 19.6525V13.1288C8.27116 12.2067 7.53725 11.4624 6.63558 11.4624Z" fill="#0F0F0F"/>
</svg>
