<svg width="33" height="33" viewBox="0 0 33 33" fill="none" xmlns="http://www.w3.org/2000/svg">
<path d="M21.4719 4.01251C21.4188 3.95314 19.5047 4.03595 17.8391 5.84376C16.1735 7.65002 16.4297 9.7219 16.4672 9.77502C16.5047 9.82815 18.8422 9.91096 20.3344 7.80939C21.8266 5.70783 21.525 4.07345 21.4719 4.01251V4.01251ZM26.65 22.3454C26.575 22.1954 23.0172 20.4172 23.3485 16.9985C23.6797 13.5782 25.9657 12.6407 26.0016 12.5391C26.0375 12.4375 25.0688 11.3047 24.0422 10.7313C23.2885 10.327 22.4543 10.0953 21.6 10.0531C21.4313 10.0485 20.8453 9.90471 19.6407 10.2344C18.8469 10.4516 17.0578 11.1547 16.5656 11.1828C16.0719 11.211 14.6031 10.3672 13.0235 10.1438C12.0125 9.94846 10.9406 10.3485 10.1734 10.6563C9.40782 10.9625 7.95157 11.8344 6.93282 14.1516C5.91407 16.4672 6.44688 20.136 6.82813 21.2766C7.20938 22.4157 7.8047 24.2829 8.8172 25.6454C9.7172 27.1829 10.911 28.2501 11.4094 28.6126C11.9078 28.9751 13.3141 29.2157 14.2891 28.7172C15.0735 28.236 16.4891 27.9594 17.0485 27.9797C17.6063 28.0001 18.7063 28.2204 19.8328 28.8219C20.725 29.1297 21.5688 29.0016 22.4141 28.6579C23.2594 28.3126 24.4828 27.0032 25.911 24.3485C26.4532 23.1141 26.7 22.4469 26.65 22.3454V22.3454Z" fill="#0F0F0F"/>
<path d="M21.4719 4.01251C21.4188 3.95314 19.5047 4.03595 17.8391 5.84376C16.1735 7.65002 16.4297 9.7219 16.4672 9.77502C16.5047 9.82815 18.8422 9.91096 20.3344 7.80939C21.8266 5.70783 21.525 4.07345 21.4719 4.01251V4.01251ZM26.65 22.3454C26.575 22.1954 23.0172 20.4172 23.3485 16.9985C23.6797 13.5782 25.9657 12.6407 26.0016 12.5391C26.0375 12.4375 25.0688 11.3047 24.0422 10.7313C23.2885 10.327 22.4543 10.0953 21.6 10.0531C21.4313 10.0485 20.8453 9.90471 19.6407 10.2344C18.8469 10.4516 17.0578 11.1547 16.5656 11.1828C16.0719 11.211 14.6031 10.3672 13.0235 10.1438C12.0125 9.94846 10.9406 10.3485 10.1734 10.6563C9.40782 10.9625 7.95157 11.8344 6.93282 14.1516C5.91407 16.4672 6.44688 20.136 6.82813 21.2766C7.20938 22.4157 7.8047 24.2829 8.8172 25.6454C9.7172 27.1829 10.911 28.2501 11.4094 28.6126C11.9078 28.9751 13.3141 29.2157 14.2891 28.7172C15.0735 28.236 16.4891 27.9594 17.0485 27.9797C17.6063 28.0001 18.7063 28.2204 19.8328 28.8219C20.725 29.1297 21.5688 29.0016 22.4141 28.6579C23.2594 28.3126 24.4828 27.0032 25.911 24.3485C26.4532 23.1141 26.7 22.4469 26.65 22.3454V22.3454Z" fill="#0F0F0F"/>
</svg>
