<svg width="216" height="55" viewBox="0 0 216 55" fill="none" xmlns="http://www.w3.org/2000/svg">
<path fill-rule="evenodd" clip-rule="evenodd" d="M4.47339 47.2356H46.0119V5.17676H4.47339V47.2356ZM29.8225 40.1175H20.6627V30.843H11.5029V21.5685H20.6627V12.2939H29.8225V21.5685H38.9822V30.843H29.8225V40.1175Z" fill="#6B82B0"/>
<path d="M205.257 9.78034L201.077 16.1333L197.078 9.78034H190.445L191.081 10.7011C190.081 10.3328 188.536 9.78034 187.446 9.78034H177.995V15.8571C177.632 14.476 176.905 13.2791 175.814 12.2663C174.088 10.7011 172.089 9.68827 168.454 9.68827H168.363C164.819 9.68827 162.911 10.7011 161.184 12.2663C160.184 13.187 159.458 14.3839 159.003 15.765C158.821 15.3046 158.549 14.476 158.458 14.1077C157.913 12.9108 157.004 11.898 155.914 11.1614C154.914 10.5169 153.914 10.1486 152.733 9.96448C152.733 9.96448 151.915 9.68827 150.189 9.68827C146.463 9.5962 144.736 10.609 143.101 12.1742C141.465 13.7394 140.647 16.0412 140.556 18.9875V19.2637C139.92 18.5271 139.193 17.8826 138.285 17.5144C136.467 16.7778 134.65 16.2254 132.741 15.9491C132.014 15.8571 131.378 15.6729 130.742 15.3046C130.47 15.1205 130.379 14.8443 130.379 14.5681C130.379 14.1998 130.56 13.8315 130.924 13.5553C131.378 13.2791 131.924 13.0949 132.469 13.187C133.196 13.187 133.832 13.3711 134.468 13.7394C135.013 14.1077 135.286 14.7522 135.377 15.3967H141.011C140.92 13.7394 140.011 12.1742 138.648 11.1614C136.921 10.1486 135.013 9.68827 133.105 9.68827C130.742 9.68827 129.924 10.0566 128.38 10.609C127.38 10.9773 126.471 11.6218 125.835 12.5425C125.29 13.2791 125.017 14.1998 125.017 15.1205C125.017 16.5016 125.653 17.7906 126.653 18.6192C128.289 19.7241 130.197 20.4606 132.196 20.7369C133.287 20.921 134.286 21.1972 135.195 21.8417C135.558 22.1179 135.831 22.5783 135.831 23.0386C135.831 23.5911 135.558 24.0514 135.104 24.3277C134.559 24.6959 133.832 24.9722 133.105 24.8801C132.105 24.9722 131.197 24.5118 130.47 23.7752C130.015 23.3149 129.834 22.6704 129.743 22.0259H124.381L119.383 9.78034H113.295L107.025 25.7087L101.3 16.8699L108.661 9.78034H100.936L94.4846 16.7778V9.78034H88.4871V21.9338C88.3963 22.4862 88.1236 22.9466 87.6693 23.3149C87.0332 23.8673 86.1245 24.1435 85.3066 24.1435C84.3979 24.2356 83.5801 23.8673 82.944 23.3149C82.3079 22.6704 82.0353 21.8417 82.1262 21.0131V9.78034H76.2195V14.1077C76.1287 13.4632 76.0378 12.8187 75.7652 12.2663C75.4017 10.8852 74.7656 9.68827 73.8569 8.67548C72.9482 7.66269 71.7668 6.83405 70.4946 6.28162C68.859 5.54504 67.0415 5.17676 65.2241 5.17676H54.3196V28.1947H64.3154C66.1328 28.0105 67.9503 27.8264 69.7677 27.2739C71.0399 26.9977 72.1303 26.3532 73.1299 25.5246C74.2204 24.6039 75.0382 23.499 75.5834 22.21C75.9469 21.3814 76.1287 20.4606 76.3104 19.5399V20.8289C76.3104 21.8417 76.4921 22.8545 76.8556 23.8673C77.1282 24.6039 77.5826 25.3404 78.1278 25.9849C78.673 26.6294 79.4 27.1819 80.127 27.5502C80.9448 27.9184 81.9444 28.1947 82.8531 28.2867C83.9436 28.3788 84.9432 28.4709 85.8519 28.4709C86.9423 28.4709 87.851 28.4709 88.9415 28.1947H94.3029V24.1435L97.4834 20.7369L101.482 28.1947H112.295L113.204 25.1563H119.929L120.837 28.1947H127.017L126.471 26.6294C127.743 27.8264 129.924 28.3788 133.196 28.3788C134.741 28.4709 136.376 28.1947 137.83 27.6422C139.011 27.1819 139.92 26.4453 140.647 25.4325C141.102 24.8801 141.374 24.1435 141.556 23.4069C141.738 23.7752 141.919 24.1435 142.192 24.5118C143.01 25.8008 144.191 26.9057 145.554 27.5502C147.19 28.1947 148.916 28.4709 150.643 28.3788C151.37 28.3788 152.097 28.2867 152.915 28.1947C153.642 28.1026 154.278 27.9184 154.914 27.6422C156.004 27.1819 156.913 26.4453 157.64 25.5246C158.185 24.8801 158.64 24.1435 158.912 23.3149C159.003 23.1307 159.094 22.6704 159.094 22.3021C159.276 22.9466 159.639 23.6832 160.003 24.2356C160.821 25.6167 162.002 26.6294 163.456 27.2739C165.092 27.9184 165.728 28.2867 167.727 28.2867H169.181C170.635 28.2867 172.452 27.9184 174.179 27.0898C176.087 26.077 177.541 24.3277 178.177 22.21V28.1947H184.084V21.2893H187.355C189.718 21.2893 191.535 20.8289 192.625 19.8161C193.807 18.7113 194.443 17.1461 194.352 15.5808C194.352 15.3967 194.352 15.1205 194.352 14.9363L198.35 20.5527V28.1026H204.257V20.5527L211.527 10.1486L210.345 9.78034H205.257ZM68.4046 20.6448C68.132 21.3814 67.5868 21.9338 66.8598 22.3941C66.3146 22.6704 65.7693 22.5783 65.2241 22.6704H64.3154H61.5893V10.7011H65.2241C66.1328 10.7011 68.9498 11.3456 68.9498 16.6857C69.0407 18.0668 68.859 19.3558 68.4046 20.6448ZM114.567 21.1972L116.566 15.0284L116.657 14.7522L118.747 21.1972H114.567ZM158.912 21.5655H153.733C153.642 22.21 153.278 22.8545 152.915 23.3149C152.188 23.9594 151.279 24.2356 150.37 24.2356C149.371 24.3277 148.371 23.8673 147.644 23.1307C147.008 22.3941 146.645 21.0131 146.645 19.0796C146.554 17.8826 146.826 16.5936 147.463 15.5808C148.189 14.5681 149.28 14.0156 150.552 14.0156C151.097 14.0156 151.643 14.1077 152.188 14.3839C152.46 14.476 152.733 14.6601 152.915 14.8443C153.278 15.1205 153.551 15.5808 153.733 16.0412H159.094C158.821 17.054 158.64 18.1589 158.64 19.1716C158.64 19.9082 158.731 20.7369 158.912 21.5655ZM171.543 23.0386C170.816 23.8673 169.726 24.2356 168.545 24.2356C167.454 24.3277 166.364 23.8673 165.637 23.0386C164.819 21.9338 164.455 20.5527 164.546 19.1716C164.455 17.7906 164.819 16.4095 165.637 15.2126C166.364 14.3839 167.454 13.9236 168.454 14.0156H168.545C169.635 14.0156 170.726 14.3839 171.453 15.2126C172.27 16.2254 172.634 17.6064 172.543 18.8954C172.543 20.8289 172.179 22.3021 171.543 23.0386ZM187.809 17.2381C187.082 17.6064 186.265 17.8826 185.447 17.7906H183.993V13.7394H185.719C186.537 13.6473 187.264 13.9236 187.991 14.2918C188.355 14.6601 188.627 15.2126 188.627 15.765C188.536 16.3174 188.264 16.8699 187.809 17.2381Z" fill="#6B82B0"/>
<path d="M54.8833 44.5484C55.2473 45.1813 55.7934 45.6334 56.5214 45.9046C57.3405 46.2662 58.1596 46.3566 59.0697 46.3566C59.7977 46.3566 60.5258 46.1758 61.2539 45.9046C61.8909 45.6334 62.346 45.1813 62.71 44.6389C63.074 44.1868 63.256 43.5539 63.256 43.1019C63.256 42.5594 63.074 42.0169 62.801 41.5649C62.437 41.0224 61.8909 40.6608 61.3449 40.3896C60.5258 40.1183 59.7067 39.8471 58.8876 39.6663C58.0686 39.5759 57.3405 39.3046 56.6124 38.8526C56.3394 38.5813 56.1574 38.2197 56.1574 37.8581C56.1574 37.406 56.4304 36.954 56.7944 36.6827C57.3405 36.3211 58.0686 36.1403 58.7966 36.1403C59.5247 36.0499 60.1618 36.3211 60.7078 36.6827C61.1628 37.0444 61.4359 37.6772 61.5269 38.2197L62.983 38.1293C62.983 37.4964 62.801 36.8635 62.437 36.5019C62.0729 35.9594 61.5269 35.5978 60.9808 35.3266C60.2528 35.0553 59.5247 34.8745 58.7966 34.9649C58.0686 34.9649 57.4315 35.0553 56.7034 35.3266C56.1574 35.5074 55.6113 35.9594 55.2473 36.4115C54.9743 36.8635 54.7923 37.406 54.7923 37.8581C54.7923 38.3101 54.8833 38.8526 55.1563 39.2142C55.4293 39.6663 55.8844 40.0279 56.3394 40.2991C57.0675 40.5704 57.7955 40.8416 58.5236 41.0224C59.1607 41.2033 59.8887 41.3841 60.5258 41.5649C60.8898 41.6553 61.2539 41.9265 61.5269 42.1978C61.7089 42.469 61.7999 42.7402 61.7999 43.1019C61.7999 43.4635 61.7089 43.8252 61.4359 44.0964C61.1628 44.458 60.8898 44.6388 60.4348 44.8197C59.9797 45.0005 59.4337 45.0909 58.9786 45.0909C58.4326 45.0909 57.7955 45.0005 57.2495 44.7293C56.7944 44.5484 56.4304 44.2772 56.1574 43.8252C55.8844 43.3731 55.7023 42.9211 55.7023 42.469H54.3372C54.2462 43.2827 54.5192 43.9156 54.8833 44.5484ZM68.1705 45.995L69.8086 39.9375L70.1727 41.2937L71.4468 45.9046H72.9029L75.4512 38.1293H74.086L72.7209 42.6498L72.2659 44.0964L71.9018 42.6498L70.5367 38.2197H69.0806L67.8065 42.7402C67.5334 43.7347 67.4424 44.2772 67.3514 44.2772L66.8964 42.7402L65.6223 38.2197H64.1661L66.6233 45.995H68.1705ZM78.0904 36.6827V35.1457H76.7253V36.6827H78.0904ZM78.0904 45.995V38.2197H76.7253V45.995H78.0904ZM80.8207 45.543C81.5487 45.995 82.3678 46.2662 83.2779 46.1758C83.8239 46.1758 84.461 46.0854 85.007 45.8142C85.4621 45.6334 85.9171 45.2717 86.1902 44.9101C86.4632 44.5484 86.5542 44.0964 86.5542 43.6443C86.5542 43.1923 86.4632 42.8306 86.1902 42.469C85.9171 42.1074 85.6441 41.9265 85.2801 41.7457C84.643 41.4745 83.9149 41.2937 83.2779 41.1128C82.6408 40.932 82.1858 40.8416 82.0948 40.7512C81.9128 40.6608 81.7307 40.5704 81.5487 40.3896C81.4577 40.2991 81.3667 40.1183 81.3667 39.9375C81.3667 39.6663 81.5487 39.395 81.7307 39.2142C82.0948 38.943 82.6408 38.8526 83.0959 38.943C83.5509 38.943 84.006 39.0334 84.37 39.3046C84.643 39.5759 84.825 39.9375 84.916 40.2991L86.2812 40.1183C86.1902 39.6663 86.0992 39.2142 85.8261 38.8526C85.5531 38.4909 85.1891 38.2197 84.734 38.1293C84.188 37.8581 83.5509 37.7676 83.0049 37.7676C82.6408 37.7676 82.1858 37.8581 81.8218 37.9485C81.5487 38.0389 81.1847 38.1293 80.9117 38.3101C80.6386 38.4909 80.3656 38.7622 80.1836 39.0334C80.0016 39.3046 79.9106 39.6663 79.9106 40.0279C79.9106 40.8416 80.3656 41.4745 81.0937 41.8361C81.7307 42.1074 82.4588 42.2882 83.1869 42.469C83.6419 42.5594 84.188 42.7402 84.643 42.9211C84.916 43.1019 85.007 43.3731 85.007 43.6443C85.007 44.006 84.825 44.3676 84.552 44.5484C84.188 44.8197 83.6419 45.0005 83.0959 44.9101C82.5498 44.9101 82.0948 44.8197 81.6397 44.458C81.2757 44.0964 81.0027 43.7347 81.0027 43.1923L79.6376 43.5539C79.9106 44.458 80.2746 45.0909 80.8207 45.543ZM88.8294 45.543C89.5575 45.995 90.3765 46.2662 91.2866 46.1758C91.8327 46.1758 92.4697 46.0854 93.0158 45.8142C93.4708 45.6334 93.9259 45.2717 94.1989 44.9101C94.4719 44.5484 94.5629 44.0964 94.5629 43.6443C94.5629 43.1923 94.4719 42.8306 94.1989 42.469C93.9259 42.1074 93.6528 41.9265 93.2888 41.7457C92.6518 41.4745 91.9237 41.2937 91.2866 41.1128C90.6496 40.932 90.1945 40.8416 90.1035 40.7512C89.9215 40.6608 89.7395 40.5704 89.5575 40.3896C89.4665 40.2087 89.3754 40.1183 89.3754 39.9375C89.3754 39.6663 89.5575 39.395 89.7395 39.2142C90.1035 38.943 90.6496 38.8526 91.1046 38.943C91.5597 38.943 92.0147 39.0334 92.3787 39.3046C92.6518 39.5759 92.8338 39.9375 92.9248 40.2991L94.2899 40.1183C94.1989 39.6663 94.1079 39.2142 93.8349 38.8526C93.5618 38.4909 93.1978 38.2197 92.7428 38.1293C92.1967 37.9485 91.6507 37.8581 91.0136 37.8581C90.6496 37.8581 90.1945 37.9485 89.8305 38.0389C89.5575 38.1293 89.1934 38.2197 88.9204 38.4005C88.6474 38.5813 88.3744 38.8526 88.1923 39.1238C88.0103 39.395 87.9193 39.7567 87.9193 40.1183C87.9193 40.932 88.3744 41.5649 89.1024 41.9265C89.7395 42.1978 90.4675 42.3786 91.1956 42.5594C91.6507 42.6498 92.1967 42.8306 92.6518 43.0115C92.9248 43.1923 93.1068 43.4635 93.0158 43.7347C93.0158 44.0964 92.8338 44.458 92.5607 44.6389C92.1967 44.9101 91.6507 45.0909 91.1046 45.0005C90.5586 45.0005 90.1035 44.9101 89.6485 44.5484C89.2844 44.1868 89.0114 43.8252 89.0114 43.2827L87.6463 43.4635C87.9193 44.458 88.2833 45.0909 88.8294 45.543ZM105.211 45.995C105.848 45.995 106.394 45.9046 107.031 45.8142C107.486 45.7238 107.85 45.543 108.305 45.2717C108.669 45.0005 108.942 44.6389 109.124 44.1868C109.306 43.7347 109.488 43.1923 109.488 42.8306C109.488 42.1978 109.306 41.6553 108.942 41.2032C108.578 40.7512 108.032 40.3896 107.395 40.2087C107.85 40.0279 108.305 39.6663 108.578 39.2142C108.851 38.8526 108.942 38.3101 108.942 37.8581C108.942 37.3156 108.76 36.8635 108.487 36.5019C108.214 36.0499 107.759 35.6882 107.304 35.417C106.667 35.1457 105.939 35.0553 105.211 35.0553H101.025V45.8142L105.211 45.995ZM102.481 36.5923H104.756C105.302 36.5923 105.939 36.5923 106.485 36.7731C106.758 36.8635 107.031 37.0444 107.213 37.3156C107.395 37.5868 107.486 37.9485 107.486 38.3101C107.486 38.6718 107.395 39.0334 107.213 39.3046C107.031 39.5759 106.667 39.7567 106.394 39.8471C105.939 39.9375 105.484 40.0279 104.938 39.9375H102.481C102.481 39.7567 102.481 36.5923 102.481 36.5923ZM102.481 41.0224H105.12C105.666 41.0224 106.212 41.0224 106.758 41.2032C107.122 41.2937 107.395 41.5649 107.668 41.8361C108.032 42.469 108.123 43.1923 107.759 43.7347C107.668 44.006 107.395 44.1868 107.213 44.3676C106.94 44.5484 106.667 44.6389 106.394 44.6389C106.03 44.6389 105.757 44.7293 105.393 44.7293H102.572V41.0224H102.481V41.0224ZM117.042 45.995H118.498C118.316 45.7238 118.225 45.3621 118.134 45.0005C118.043 44.1868 118.043 43.4635 118.043 42.6498V40.932C118.043 40.48 118.043 40.1183 117.952 39.6663C117.861 39.3046 117.77 39.0334 117.497 38.7622C117.224 38.4909 116.951 38.3101 116.496 38.1293C115.95 37.9485 115.404 37.8581 114.767 37.8581C114.13 37.8581 113.493 37.9485 112.947 38.1293C112.492 38.3101 112.037 38.5813 111.764 38.943C111.49 39.395 111.217 39.8471 111.126 40.2991L112.492 40.48C112.583 40.0279 112.856 39.5759 113.22 39.3046C113.675 39.0334 114.13 38.943 114.676 38.943C115.222 38.943 115.768 39.0334 116.223 39.395C116.496 39.7567 116.678 40.1183 116.587 40.5704C116.587 40.6608 116.587 40.7512 116.587 40.932C115.768 41.2032 114.949 41.2937 114.13 41.3841C113.675 41.3841 113.311 41.4745 112.856 41.5649C112.492 41.6553 112.128 41.8361 111.855 42.0169C111.582 42.1978 111.308 42.469 111.126 42.8306C110.944 43.1923 110.853 43.5539 110.853 43.9156C110.853 44.5484 111.126 45.1813 111.581 45.4525C112.128 45.9046 112.856 46.1758 113.675 46.0854C114.221 46.0854 114.676 45.995 115.222 45.8142C115.768 45.6334 116.223 45.2717 116.678 44.9101C116.769 45.3621 116.86 45.7238 117.042 45.995ZM116.678 42.5594C116.678 43.0115 116.587 43.4635 116.496 43.9156C116.314 44.2772 115.95 44.6388 115.586 44.8197C115.131 45.0909 114.676 45.1813 114.13 45.1813C113.675 45.1813 113.22 45.0909 112.947 44.8197C112.674 44.6388 112.492 44.2772 112.492 43.9156C112.492 43.6443 112.583 43.4635 112.674 43.2827C112.765 43.1019 113.038 42.9211 113.22 42.8306C113.584 42.6498 114.039 42.5594 114.403 42.5594C115.131 42.469 115.95 42.2882 116.678 42.0169V42.5594ZM121.774 45.995V41.7457C121.683 41.0224 121.956 40.2991 122.411 39.7567C122.867 39.395 123.413 39.2142 123.959 39.2142C124.323 39.2142 124.596 39.3046 124.96 39.4855C125.233 39.6663 125.415 39.8471 125.506 40.1183C125.597 40.5704 125.688 40.932 125.688 41.3841V46.0854H127.053V41.2937C127.053 40.8416 127.053 40.3896 126.962 39.9375C126.871 39.5759 126.78 39.2142 126.507 38.943C126.234 38.6718 125.961 38.4005 125.597 38.2197C125.142 38.0389 124.687 37.9485 124.232 37.9485C123.231 37.9485 122.229 38.4005 121.683 39.3046V38.1293H120.409V45.9046L121.774 45.995ZM130.602 45.995V42.9211L131.603 42.0169L134.243 46.0854H135.972L132.513 41.2032L135.608 38.3101H133.788L130.511 41.4745V35.3266H129.146V46.0854L130.602 45.995ZM138.611 36.6827V35.1457H137.246V36.6827H138.611ZM138.611 45.995V38.2197H137.246V45.995H138.611ZM142.251 45.995V41.7457C142.16 41.0224 142.433 40.2991 142.888 39.7567C143.343 39.395 143.889 39.2142 144.436 39.2142C144.8 39.2142 145.073 39.3046 145.437 39.4855C145.71 39.6663 145.892 39.8471 145.983 40.1183C146.074 40.48 146.165 40.932 146.165 41.3841V46.0854H147.53V41.2937C147.53 40.8416 147.53 40.3896 147.439 39.9375C147.348 39.5759 147.257 39.2142 146.984 38.943C146.711 38.6718 146.438 38.4005 146.074 38.2197C145.619 38.0389 145.164 37.9485 144.709 37.9485C143.707 37.9485 142.706 38.4005 142.069 39.3046V38.1293H140.795V45.9046L142.251 45.995ZM150.351 48.5265C151.079 48.9786 151.898 49.2498 152.717 49.1594C153.445 49.1594 154.173 49.069 154.81 48.7073C155.357 48.4361 155.812 47.984 156.085 47.4416C156.358 46.6279 156.54 45.7238 156.449 44.8197V38.1293H155.175V39.1238C154.628 38.4005 153.718 37.9485 152.808 37.9485C151.443 37.9485 150.169 38.7622 149.714 39.9375C149.441 40.5704 149.259 41.2937 149.259 42.0169C149.259 43.0115 149.532 44.006 150.169 44.8197C150.806 45.6334 151.716 46.0854 152.808 45.995C153.718 45.995 154.537 45.6334 155.084 44.9101C155.084 45.543 155.084 46.0854 154.993 46.5375C154.901 46.9895 154.628 47.3512 154.264 47.6224C153.809 47.8936 153.354 48.0744 152.808 47.984C152.353 47.984 151.807 47.8936 151.443 47.6224C151.17 47.4416 150.988 47.0799 150.988 46.7183L149.623 46.5375C149.441 47.3512 149.714 48.0745 150.351 48.5265ZM151.261 39.8471C151.625 39.395 152.262 39.1238 152.808 39.1238C153.445 39.1238 153.991 39.395 154.446 39.8471C154.901 40.48 155.175 41.2033 155.084 42.0169C155.175 42.8306 154.901 43.5539 154.446 44.1868C153.718 45.0909 152.353 45.1813 151.534 44.458C151.443 44.3676 151.352 44.2772 151.261 44.1868C150.806 43.5539 150.533 42.7402 150.624 41.9265C150.624 41.2033 150.806 40.48 151.261 39.8471ZM171.92 41.8361V43.8252C171.465 44.1868 171.01 44.458 170.555 44.6389C169.918 44.9101 169.281 45.0005 168.644 45.0005C167.916 45.0005 167.188 44.8197 166.551 44.5484C165.914 44.1868 165.367 43.7347 165.094 43.1019C164.73 42.2882 164.548 41.5649 164.548 40.6608C164.548 39.9375 164.73 39.2142 165.003 38.4909C165.185 38.1293 165.458 37.6772 165.732 37.406C166.096 37.0444 166.46 36.7731 166.915 36.5923C167.461 36.4115 168.098 36.2307 168.644 36.3211C169.19 36.3211 169.736 36.4115 170.191 36.5923C170.646 36.7731 171.01 37.0444 171.283 37.406C171.556 37.7677 171.829 38.2197 171.92 38.7622L173.285 38.4005C173.103 37.7677 172.83 37.1348 172.466 36.6827C172.102 36.2307 171.556 35.7786 170.919 35.5978C170.191 35.3266 169.463 35.1457 168.735 35.2362C167.734 35.2362 166.642 35.417 165.732 35.9594C164.821 36.4115 164.184 37.1348 163.729 37.9485C163.274 38.8526 163.001 39.8471 163.001 40.932C163.001 41.9265 163.183 42.9211 163.729 43.8252C164.184 44.7293 164.912 45.3621 165.732 45.8142C166.642 46.2662 167.734 46.5375 168.735 46.5375C169.554 46.5375 170.373 46.3567 171.101 46.0854C171.92 45.8142 172.648 45.3621 173.376 44.8197V40.8416H168.644V42.1074L171.92 41.8361ZM176.926 45.995V41.9265C176.926 41.3841 177.017 40.8416 177.199 40.3896C177.29 40.1183 177.472 39.8471 177.745 39.6663C178.018 39.4855 178.291 39.395 178.564 39.395C178.928 39.395 179.292 39.4855 179.565 39.6663L180.02 38.4005C179.565 38.1293 179.11 37.9485 178.564 37.9485C178.291 37.9485 177.927 38.0389 177.654 38.2197C177.29 38.4909 177.017 38.943 176.744 39.395V38.1293H175.469V45.9046L176.926 45.995ZM181.476 45.0909C182.204 45.8142 183.205 46.1758 184.206 46.1758C184.934 46.1758 185.571 45.995 186.208 45.7238C186.754 45.3621 187.3 44.9101 187.574 44.3676C187.938 43.6443 188.12 42.8306 188.029 42.0169C188.12 40.932 187.756 39.9375 186.936 39.1238C186.208 38.4005 185.207 37.9485 184.206 38.0389C183.296 38.0389 182.386 38.3101 181.658 38.943C180.748 39.8471 180.293 40.932 180.384 42.1978C180.293 43.1923 180.657 44.3676 181.476 45.0909ZM182.477 39.8471C183.296 38.943 184.752 38.8526 185.662 39.6663C185.753 39.7567 185.844 39.7567 185.844 39.8471C186.299 40.48 186.572 41.2033 186.572 42.0169C186.663 42.8306 186.39 43.6443 185.844 44.2772C185.389 44.8197 184.843 45.0909 184.115 45.0909C183.478 45.0909 182.841 44.8197 182.386 44.2772C181.567 43.0115 181.567 41.2937 182.477 39.8471ZM196.31 45.995V38.2197H194.945V42.3786C194.945 42.9211 194.854 43.4635 194.672 43.9156C194.49 44.2772 194.217 44.5484 193.853 44.7293C193.489 44.9101 193.125 45.0909 192.67 45.0005C192.306 45.0005 191.942 44.9101 191.669 44.7293C191.396 44.5484 191.214 44.1868 191.123 43.9156C191.032 43.4635 191.032 42.921 191.032 42.5594V38.2197H189.758V43.0115C189.758 43.4635 189.758 43.9156 189.849 44.2772C189.94 44.6389 190.031 45.0005 190.304 45.2717C190.577 45.543 190.85 45.8142 191.214 45.995C191.669 46.1758 192.124 46.2662 192.579 46.2662C193.58 46.2662 194.581 45.8142 195.127 44.9101V46.0854H196.31V45.995ZM200.042 49.069V45.2717C200.315 45.543 200.588 45.8142 200.952 45.995C201.316 46.1758 201.771 46.2662 202.226 46.2662C202.863 46.2662 203.5 46.0854 204.046 45.7238C204.592 45.3621 205.047 44.8197 205.32 44.2772C205.593 43.5539 205.775 42.921 205.775 42.1074C205.775 41.3841 205.684 40.7512 205.411 40.0279C205.138 39.395 204.774 38.8526 204.228 38.5813C203.682 38.3101 203.045 38.0389 202.408 38.0389C201.953 38.0389 201.498 38.1293 201.043 38.3101C200.679 38.5813 200.315 38.8526 200.042 39.2142V38.1293H198.768V48.9786H200.042V49.069ZM200.588 39.8471C200.952 39.3046 201.498 39.0334 202.135 39.0334C202.772 39.0334 203.318 39.3046 203.682 39.7567C204.137 40.3896 204.41 41.2033 204.319 42.0169C204.41 42.8306 204.137 43.6443 203.682 44.2772C203.318 44.7293 202.681 45.0909 202.135 45.0909C201.498 45.0909 200.952 44.8197 200.588 44.3676C200.133 43.7347 199.86 43.0115 199.951 42.1074C199.86 41.3841 200.133 40.48 200.588 39.8471Z" fill="#4F566F"/>
</svg>
