<svg width="117" height="55" viewBox="0 0 117 55" fill="none" xmlns="http://www.w3.org/2000/svg">
<path fill-rule="evenodd" clip-rule="evenodd" d="M48.1752 37.6239C44.0325 45.9991 34.2252 51.7249 23.488 49.4175C12.9198 47.1955 5.14167 37.5384 5.64894 26.0867C6.15621 15.1477 14.4416 6.1743 25.0098 4.72147C36.0007 3.18317 44.7934 9.76366 48.2598 17.0278C48.1752 17.1133 48.0907 17.1133 48.0061 17.1133C47.1607 17.1133 46.2307 17.1133 45.3852 17.1133C45.1316 17.1133 45.047 17.0278 44.8779 16.8569C44.0325 15.4895 43.1025 14.2931 42.0034 13.1821C39.0443 10.2764 35.578 8.39628 31.5198 7.79806C25.8553 6.85799 20.7825 8.1399 16.2171 11.6438C12.328 14.7204 9.79166 18.737 8.94621 23.6083C7.76257 30.0179 9.45348 35.7438 13.7653 40.7005C16.7244 43.948 20.3598 45.9991 24.6716 46.8537C25.8553 47.1101 27.0389 47.1955 28.2225 47.1955C31.1816 47.1955 34.0561 46.5118 36.7616 45.2299C38.6216 44.2898 40.3125 43.0934 41.8343 41.6406C42.9334 40.5296 43.9479 39.3331 44.7934 37.9657C44.8779 37.7948 44.9625 37.7094 45.1316 37.7094C46.1461 37.7094 47.0761 37.7094 48.0907 37.7094C48.0907 37.6239 48.0907 37.6239 48.1752 37.6239Z" fill="#6B82B0"/>
<path fill-rule="evenodd" clip-rule="evenodd" d="M47.2451 31.9837C48.2596 27.5397 47.9215 23.1812 46.0615 18.9936C46.146 18.9082 46.2306 18.9082 46.3151 18.9082C47.1606 18.9082 48.006 18.9082 48.8515 18.9082C49.0205 18.9082 49.1896 18.9936 49.1896 19.1646C49.7815 20.7883 50.2042 22.4121 50.3733 24.0358C50.5424 25.4887 50.6269 26.856 50.5424 28.3089C50.4578 30.7018 49.9506 33.0947 49.0206 35.3167C48.8515 35.6585 48.936 35.6585 48.5978 35.6585C47.7524 35.6585 46.9915 35.6585 46.146 35.6585C45.8924 35.6585 45.7233 35.5731 45.6387 35.4021C43.6097 32.411 41.496 29.5053 39.4669 26.5142C38.8751 25.5741 38.1988 24.7195 37.6069 23.7795C37.5224 23.694 37.5224 23.6085 37.3533 23.5231C37.3533 23.694 37.3533 23.7795 37.3533 23.8649C37.3533 27.6252 37.3533 31.3855 37.3533 35.2312V35.3167C37.3533 35.6585 37.3533 35.6585 37.0151 35.6585C36.2542 35.6585 35.4933 35.6585 34.7324 35.6585C34.4788 35.6585 34.4788 35.6585 34.4788 35.4021C34.4788 35.3167 34.4788 35.2312 34.4788 35.1457C34.4788 29.8472 34.4788 24.5486 34.4788 19.25C34.4788 18.7373 34.3942 18.8227 34.9015 18.8227C35.5779 18.8227 36.2542 18.8227 37.0151 18.8227C37.2688 18.8227 37.3533 18.9082 37.5224 19.0791C39.2133 21.3866 40.9888 23.694 42.7642 26.0869C44.2015 27.967 45.5542 29.8472 46.9915 31.7273C47.076 31.8128 47.076 31.9837 47.2451 31.9837ZM97.1268 27.2833C97.1268 24.6341 97.1268 21.9848 97.1268 19.25C97.1268 18.8227 97.0423 18.8227 97.5495 18.8227C98.2259 18.8227 98.9023 18.8227 99.5786 18.8227C100.001 18.8227 99.9168 18.8227 99.9168 19.1646C99.9168 21.3011 99.9168 23.4376 99.9168 25.5741C99.9168 26.0869 99.9168 26.0869 100.424 26.0869C102.876 26.0869 105.243 26.0869 107.695 26.0869C107.78 26.0869 107.78 26.0869 107.864 26.0869C108.118 26.0869 108.118 26.0869 108.118 25.8305C108.118 25.4887 108.118 25.1468 108.118 24.8904C108.118 23.0958 108.118 21.2156 108.118 19.421C108.118 19.3355 108.118 19.25 108.118 19.1646C108.118 18.9936 108.202 18.9082 108.371 18.9082C109.132 18.9082 109.893 18.9082 110.739 18.9082C110.908 18.9082 110.992 18.9936 110.992 19.1646C110.992 19.25 110.992 19.3355 110.992 19.3355C110.992 24.6341 110.992 29.8472 110.992 35.1457C110.992 35.2312 110.992 35.2312 110.992 35.3167C110.992 35.8294 110.992 35.744 110.57 35.744C109.893 35.744 109.217 35.744 108.54 35.744C108.118 35.744 108.202 35.8294 108.118 35.4021C108.118 34.3766 108.118 33.2656 108.118 32.2401C108.118 31.2145 108.118 30.189 108.118 29.2489C108.118 28.9071 108.118 28.9071 107.78 28.9071C105.243 28.9071 102.707 28.9071 100.17 28.9071C99.7477 28.9071 99.8323 28.9071 99.8323 29.2489C99.8323 31.3 99.8323 33.2656 99.8323 35.3167C99.8323 35.8294 99.9168 35.744 99.4095 35.744C98.7332 35.744 98.0568 35.744 97.2959 35.744C97.0423 35.744 97.0423 35.744 97.0423 35.4876C97.0423 33.8638 97.0423 32.2401 97.0423 30.6163C97.1268 29.5053 97.1268 28.3943 97.1268 27.2833ZM66.4369 27.1124C66.4369 24.5486 66.4369 22.0702 66.4369 19.5064C66.4369 19.421 66.4369 19.421 66.4369 19.3355C66.4369 18.9936 66.4369 18.9936 66.7751 18.9936C69.6496 18.9936 72.5241 18.9936 75.3987 18.9936C76.075 18.9936 76.8359 18.9936 77.5123 18.9936C77.7659 18.9936 77.7659 18.9936 77.7659 19.25C77.7659 19.9337 77.7659 20.6174 77.7659 21.3011C77.7659 21.472 77.6814 21.5575 77.5123 21.5575C77.2587 21.5575 77.005 21.5575 76.8359 21.5575C74.3841 21.5575 72.0169 21.5575 69.565 21.5575C69.4805 21.5575 69.4805 21.5575 69.396 21.5575C69.1423 21.5575 69.1423 21.5575 69.1423 21.8993C69.1423 23.0958 69.1423 24.2922 69.1423 25.5741C69.1423 25.916 69.1423 25.916 69.4805 25.916C71.8478 25.916 74.1305 25.916 76.4978 25.916C76.9205 25.916 76.9205 25.916 76.9205 26.3433C76.9205 26.9415 76.9205 27.5397 76.9205 28.138C76.9205 28.3943 76.9205 28.3943 76.6669 28.3943C75.0605 28.3943 73.4541 28.3943 71.8478 28.3943C71.0869 28.3943 70.326 28.3943 69.565 28.3943C69.2269 28.3943 69.2269 28.3943 69.2269 28.6507C69.2269 29.8472 69.2269 31.1291 69.2269 32.3255C69.2269 32.6674 69.2269 32.6674 69.565 32.6674C72.2705 32.6674 74.9759 32.6674 77.6814 32.6674C78.1887 32.6674 78.1041 32.5819 78.1041 33.0947C78.1041 33.6929 78.1041 34.3766 78.1041 34.9748C78.1041 35.1457 78.1041 35.2312 77.8505 35.2312C77.7659 35.2312 77.6814 35.2312 77.5968 35.2312C74.0459 35.2312 70.4105 35.2312 66.8596 35.2312H66.7751C66.4369 35.2312 66.4369 35.2312 66.4369 34.8894C66.4369 32.3255 66.4369 29.6763 66.4369 27.1124ZM95.1823 33.6929C94.4214 34.5475 93.5759 35.2312 92.6459 35.6585C91.2086 36.4277 89.6023 36.684 87.9114 36.5986C86.305 36.5131 84.6987 36.0858 83.3459 35.2312C81.1478 33.7784 79.795 31.7273 79.5414 29.078C79.3723 27.3688 79.4568 25.7451 80.2178 24.1213C81.4859 21.472 83.5996 19.8483 86.3896 19.25C88.165 18.8227 90.025 18.9082 91.8005 19.5064C93.1532 19.9337 94.2523 20.7883 95.2668 21.7284C95.3514 21.8139 95.4359 21.8993 95.2668 21.9848C94.675 22.583 94.1677 23.1812 93.5759 23.8649C93.4068 23.7795 93.3223 23.694 93.2377 23.6085C92.4768 22.9248 91.6314 22.3266 90.6168 22.0702C88.2496 21.472 86.0514 21.7284 84.1914 23.4376C83.2614 24.2922 82.6696 25.3178 82.5005 26.5997C82.3314 27.8816 82.4159 29.1635 82.9232 30.2745C83.6841 31.8982 85.6287 33.7784 88.5032 33.6929C90.025 33.6075 91.2932 33.0947 92.4768 32.1546C92.6459 31.9837 92.8995 31.8128 93.0686 31.6419C93.1532 31.5564 93.2377 31.5564 93.3223 31.6419C93.9986 32.4965 94.5905 33.0947 95.1823 33.6929ZM15.7943 27.1124C15.7943 24.5486 15.7943 21.9848 15.7943 19.421C15.7943 18.9936 15.7943 19.0791 16.217 19.0791C19.7679 19.0791 23.4033 19.0791 26.9542 19.0791H27.0388C27.377 19.0791 27.377 19.0791 27.377 19.421C27.377 20.0192 27.377 20.7029 27.377 21.3011C27.377 21.5575 27.4615 21.6429 27.0388 21.6429C24.587 21.6429 22.1352 21.6429 19.6833 21.6429C19.5143 21.6429 19.2606 21.6429 19.0915 21.6429C18.7533 21.6429 18.7533 21.6429 18.7533 21.9848C18.7533 22.8394 18.7533 23.694 18.7533 24.5486C18.7533 24.9759 18.7533 25.4032 18.7533 25.8305C18.7533 26.0869 18.7533 26.0869 19.007 26.0869C19.937 26.0869 20.867 26.0869 21.797 26.0869C23.2342 26.0869 24.6715 26.0869 26.1088 26.0869C26.447 26.0869 26.447 26.0869 26.447 26.4287C26.447 27.1124 26.447 27.7107 26.447 28.3943C26.447 28.6507 26.447 28.6507 26.1088 28.6507C23.8261 28.6507 21.5433 28.6507 19.1761 28.6507C18.5843 28.6507 18.6688 28.6507 18.6688 29.078C18.6688 30.9582 18.6688 32.9238 18.6688 34.8039C18.6688 34.8894 18.6688 34.9748 18.6688 34.9748C18.6688 35.2312 18.6688 35.2312 18.4152 35.2312C17.6543 35.2312 16.8088 35.2312 16.0479 35.2312C15.7943 35.2312 15.7097 35.2312 15.7097 34.9748C15.7097 34.0348 15.7097 33.0947 15.7097 32.1546C15.7943 30.4454 15.7943 28.8216 15.7943 27.1124ZM57.0524 28.3943C57.0524 26.2578 57.0524 24.1213 57.0524 21.9848C57.0524 21.5575 57.1369 21.5575 56.6296 21.5575C55.1924 21.5575 53.8396 21.5575 52.4024 21.5575C52.3178 21.5575 52.2333 21.5575 52.1487 21.5575C51.9796 21.5575 51.9796 21.472 51.9796 21.3865C51.9796 20.7029 51.9796 19.9337 51.9796 19.25C51.9796 19.0791 52.0642 19.0791 52.1487 19.0791C52.2333 19.0791 52.3178 19.0791 52.3178 19.0791C56.376 19.0791 60.4342 19.0791 64.5769 19.0791C64.6614 19.0791 64.746 19.0791 64.746 19.0791C64.9151 19.0791 64.9151 19.0791 64.9151 19.25C64.9151 19.9337 64.9151 20.7029 64.9151 21.3865C64.9151 21.5575 64.8305 21.5575 64.746 21.5575C64.5769 21.5575 64.4078 21.5575 64.1542 21.5575C62.8014 21.5575 61.5333 21.5575 60.1805 21.5575C60.096 21.5575 60.0114 21.5575 59.9269 21.5575C59.8423 21.5575 59.7578 21.5575 59.7578 21.7284C59.7578 21.8139 59.7578 21.8993 59.7578 22.0702C59.7578 26.3433 59.7578 30.6163 59.7578 34.8039C59.7578 35.3167 59.8423 35.2312 59.3351 35.2312C58.6587 35.2312 57.9823 35.2312 57.306 35.2312C56.8833 35.2312 56.9678 35.2312 56.9678 34.8894C57.0524 32.6674 57.0524 30.5309 57.0524 28.3943ZM28.8142 27.1124C28.8142 24.5486 28.8142 21.9848 28.8142 19.421C28.8142 18.9936 28.7297 19.0791 29.237 19.0791C29.9979 19.0791 30.7588 19.0791 31.5197 19.0791C31.7733 19.0791 31.7733 19.0791 31.7733 19.3355C31.7733 19.421 31.7733 19.421 31.7733 19.5064C31.7733 24.6341 31.7733 29.7617 31.7733 34.8039C31.7733 35.3167 31.7733 35.2312 31.3506 35.2312C30.6742 35.2312 29.9133 35.2312 29.237 35.2312C28.8988 35.2312 28.8988 35.2312 28.8988 34.8894C28.8142 32.3255 28.8142 29.6763 28.8142 27.1124ZM74.8914 42.0681C74.8914 42.4099 74.8914 42.8372 74.8914 43.1791C74.8914 43.35 74.9759 43.35 75.0605 43.35C75.5678 43.35 76.075 43.35 76.4978 43.35C76.6669 43.35 76.8359 43.35 77.0896 43.2645C77.6814 43.0936 77.935 42.8372 78.0196 42.239C78.1041 41.2989 77.7659 40.8716 76.9205 40.7862C76.3287 40.7007 75.7369 40.7862 75.145 40.7862C74.9759 40.7862 74.8914 40.8716 74.8914 41.0425C74.8914 41.3844 74.8914 41.7262 74.8914 42.0681ZM77.7659 44.2901C78.3578 45.1447 78.9496 45.9993 79.5414 46.8539C79.4568 46.9393 79.3723 46.9393 79.2878 46.9393C79.0341 46.9393 78.6959 46.9393 78.4423 46.9393C78.1887 46.9393 78.0196 46.8539 77.935 46.683C77.5123 45.9993 77.0896 45.4011 76.6669 44.7174C76.5823 44.5464 76.4132 44.461 76.2441 44.461C75.9059 44.461 75.6523 44.461 75.3141 44.461C75.0605 44.461 75.0605 44.461 74.9759 44.8028C74.9759 45.4011 74.9759 46.0847 74.9759 46.683C74.9759 46.9393 74.9759 46.9393 74.7223 46.9393C74.4687 46.9393 74.215 46.9393 73.9614 46.9393C73.7923 46.9393 73.7923 46.8539 73.7923 46.7684C73.7923 46.683 73.7923 46.683 73.7923 46.5975C73.7923 44.3755 73.7923 42.1535 73.7923 40.017C73.7923 39.5897 73.7923 39.6752 74.1305 39.6752C75.145 39.6752 76.075 39.6752 77.0896 39.7606C77.4278 39.7606 77.7659 39.8461 78.0196 39.9316C78.6959 40.1879 79.1187 40.6152 79.2032 41.3844C79.2878 41.8972 79.2878 42.3245 79.2032 42.8372C79.0341 43.5209 78.6959 43.9482 78.1041 44.2046C77.935 44.2046 77.8505 44.2901 77.7659 44.2901ZM105.581 43.2645C105.581 42.1535 105.581 41.128 105.581 40.017C105.581 39.9316 105.581 39.8461 105.581 39.7606C105.581 39.6752 105.666 39.5897 105.75 39.5897C105.835 39.5897 105.92 39.5897 106.004 39.5897C107.61 39.5897 109.301 39.5897 110.908 39.5897C110.992 39.5897 110.992 39.5897 111.077 39.5897C111.246 39.5897 111.246 39.6752 111.246 39.7606C111.246 40.017 111.246 40.2734 111.246 40.6152C111.246 40.7862 111.161 40.7862 110.992 40.7862C110.654 40.7862 110.316 40.7862 109.893 40.7862C108.963 40.7862 108.118 40.7862 107.188 40.7862C106.934 40.7862 106.85 40.7862 106.85 41.0425C106.85 41.4699 106.85 41.9826 106.85 42.4099C106.85 42.6663 106.85 42.6663 107.103 42.6663C108.118 42.6663 109.217 42.6663 110.231 42.6663C110.316 42.6663 110.4 42.6663 110.485 42.6663C110.57 42.6663 110.654 42.6663 110.654 42.8372C110.654 43.0936 110.654 43.4355 110.654 43.6918C110.654 43.7773 110.57 43.7773 110.485 43.7773C110.4 43.7773 110.316 43.7773 110.231 43.7773C109.217 43.7773 108.118 43.7773 107.103 43.7773C106.765 43.7773 106.765 43.7773 106.765 44.0337C106.765 44.461 106.765 44.9737 106.765 45.4011C106.765 45.6574 106.765 45.6574 107.103 45.6574C108.287 45.6574 109.555 45.6574 110.739 45.6574C110.823 45.6574 110.908 45.6574 110.992 45.6574C111.161 45.6574 111.161 45.7429 111.161 45.8284C111.161 46.0847 111.161 46.3411 111.161 46.683C111.161 46.8539 111.077 46.8539 110.992 46.8539C110.908 46.8539 110.739 46.8539 110.654 46.8539C109.048 46.8539 107.441 46.8539 105.835 46.8539C105.412 46.8539 105.412 46.8539 105.412 46.512C105.581 45.4865 105.581 44.3755 105.581 43.2645ZM90.1096 44.9737C90.3632 45.2301 90.6168 45.4011 90.7859 45.572C90.955 45.7429 90.955 45.7429 90.7859 45.9138C90.1941 46.4266 89.6023 46.7684 88.8414 46.9393C87.4041 47.1957 86.1359 46.9393 85.0368 46.0847C84.3605 45.572 83.9377 44.8028 83.8532 44.0337C83.6841 42.9227 83.9377 41.8972 84.6987 41.0425C85.4596 40.1879 86.3896 39.7606 87.5732 39.6752C88.7568 39.5897 89.8559 39.8461 90.7859 40.6152C90.8705 40.7007 90.8705 40.7007 90.955 40.7862C91.0395 40.8716 91.0395 40.9571 90.955 41.0425C90.7014 41.2135 90.5323 41.4699 90.3632 41.6408C90.2786 41.7262 90.1941 41.7262 90.1096 41.6408C89.9405 41.4699 89.7714 41.3844 89.6023 41.2989C88.6723 40.7007 86.7277 40.6152 85.7132 41.8972C85.0368 42.7518 85.0368 43.6918 85.5441 44.6319C86.0514 45.4865 86.9814 45.9138 88.0805 45.9138C88.6723 45.9138 89.1796 45.6574 89.6023 45.4011C89.8559 45.1447 89.9405 45.0592 90.1096 44.9737ZM61.1951 44.9737C61.4487 45.1447 61.7023 45.4011 61.8714 45.572C62.0405 45.6574 61.956 45.7429 61.8714 45.8284C61.026 46.683 59.9269 47.0248 58.6587 46.9393C57.2214 46.8539 56.0378 46.3411 55.3614 45.1447C53.9242 42.8372 55.3614 39.7606 58.6587 39.5897C59.7578 39.5043 60.6878 39.7606 61.6178 40.3589C62.2096 40.7862 62.2096 40.7862 61.7023 41.2989C61.5333 41.3844 61.4487 41.6408 61.2796 41.6408C61.1105 41.6408 61.026 41.4699 60.8569 41.3844C59.5042 40.4443 57.4751 40.7007 56.6296 42.0681C56.0378 42.9227 56.1224 43.8628 56.7142 44.7174C57.306 45.572 58.1514 45.9138 59.2505 45.8284C59.9269 45.8284 60.4342 45.572 60.9414 45.1447C61.026 45.0592 61.1105 44.9737 61.1951 44.9737ZM96.6195 42.7518C96.6195 43.6918 96.6195 44.6319 96.6195 45.4865C96.6195 45.8284 96.6195 45.8284 96.8732 45.8284C97.7186 45.8284 98.6486 45.8284 99.4941 45.8284C99.7477 45.8284 99.7477 45.8284 99.7477 46.0847C99.7477 46.3411 99.7477 46.512 99.7477 46.7684C99.7477 46.9393 99.7477 47.0248 99.5786 47.0248C99.4941 47.0248 99.4095 47.0248 99.325 47.0248C98.1414 47.0248 97.0423 47.0248 95.8586 47.0248C95.7741 47.0248 95.7741 47.0248 95.6895 47.0248C95.5204 47.0248 95.5204 46.9393 95.5204 46.8539C95.5204 46.7684 95.5204 46.7684 95.5204 46.683C95.5204 44.461 95.5204 42.239 95.5204 40.1025C95.5204 39.7606 95.5204 39.7606 95.8586 39.7606C96.0277 39.7606 96.1968 39.7606 96.4504 39.7606C96.7886 39.7606 96.7886 39.7606 96.7886 40.1025C96.7886 40.9571 96.7886 41.8117 96.7886 42.6663C96.6195 42.5808 96.6195 42.6663 96.6195 42.7518ZM66.4369 43.2645C66.4369 42.1535 66.4369 41.128 66.4369 40.017C66.4369 39.9316 66.4369 39.8461 66.4369 39.7606C66.4369 39.6752 66.5214 39.6752 66.606 39.6752C67.0287 39.6752 67.3669 39.6752 67.7896 39.6752C67.8741 39.6752 67.9587 39.7606 67.9587 39.7606C67.9587 39.8461 67.9587 39.9316 67.9587 40.017C67.9587 42.239 67.9587 44.461 67.9587 46.5975C67.9587 46.9393 68.0432 46.9393 67.536 46.9393C67.2823 46.9393 67.0287 46.9393 66.7751 46.9393C66.606 46.9393 66.5214 46.8539 66.5214 46.7684C66.5214 46.3411 66.5214 45.9138 66.5214 45.4865C66.4369 44.7174 66.4369 44.0337 66.4369 43.2645Z" fill="#6B82B0"/>
</svg>
