<svg width="202" height="55" viewBox="0 0 202 55" fill="none" xmlns="http://www.w3.org/2000/svg">
<path fill-rule="evenodd" clip-rule="evenodd" d="M8.62585 12.9182C8.37492 12.4065 7.74759 12.2786 7.24572 12.5344C6.86933 12.9182 6.6184 13.4298 6.86933 13.9414C7.12026 14.4531 7.74759 14.581 8.24945 14.3251C8.75132 14.0693 8.87678 13.4298 8.62585 12.9182ZM4.36001 41.6653C4.73641 42.1769 5.36374 42.4327 5.99107 42.049C6.49293 41.7932 6.74386 41.0257 6.49293 40.3862C6.11653 39.8746 5.4892 39.6187 4.86187 40.0025C4.23455 40.3542 3.98361 41.0257 4.36001 41.6653ZM22.0821 51.1623L20.0746 51.0344C20.0746 50.9065 20.0746 50.6507 19.8237 50.5228C19.4473 50.0112 18.8199 49.7554 18.1926 50.1391C17.6908 50.5228 17.4398 51.1623 17.8162 51.8019C18.1926 52.3135 18.8199 52.5693 19.4473 52.1856C19.8237 52.0577 19.9491 51.8019 20.0746 51.4182L22.0821 51.5461C22.0821 51.8019 22.2075 52.1856 22.333 52.4414C22.8349 53.4647 24.0895 53.7205 24.9678 53.2089C25.9715 52.6972 26.2224 51.4182 25.7206 50.5228C25.2187 49.4996 23.9641 49.2437 23.0858 49.7554C22.9603 49.7554 22.8349 49.8833 22.7094 50.0112L16.8125 44.735C17.0634 44.3513 17.0634 43.8397 16.8125 43.456C16.4361 42.9443 15.8088 42.6885 15.1814 43.0722C14.5541 43.456 14.3032 44.0955 14.6796 44.735L15.056 45.1187L13.9268 47.9327C13.4249 47.6769 12.9231 47.8048 12.4212 48.0606C11.4175 48.5722 11.1665 49.8513 11.6684 50.7467C12.1703 51.7699 13.4249 52.0257 14.3032 51.5141C15.3069 51.0025 15.5578 49.7234 15.056 48.8281C14.9305 48.4443 14.5541 48.1885 14.3032 48.0606L15.4324 45.2467C15.6833 45.3746 16.0597 45.2467 16.3106 45.1187L16.4361 44.9908L22.4585 50.267C22.2075 50.4908 22.0821 50.8746 22.0821 51.1623ZM19.3218 13.4298L21.3293 9.72049C21.5802 9.84839 21.9566 9.8484 22.0821 9.59258C22.7094 9.20886 22.9603 8.56933 22.5839 7.92979C22.2075 7.41816 21.5802 7.16235 20.9529 7.54607C20.451 7.92979 20.2001 8.56933 20.5765 9.20886C20.5765 9.33677 20.7019 9.46468 20.8274 9.59258L18.8199 13.3019C18.569 13.174 18.1926 13.0461 17.9417 13.174L15.6833 6.87456C16.4361 6.36293 16.687 5.46758 16.3106 4.70014C15.8088 4.0606 14.9305 3.80479 14.1777 4.18851C13.4249 4.70014 13.174 5.59549 13.5504 6.36293C13.9268 7.00246 14.6796 7.25828 15.3069 7.13037L17.5653 13.4298C16.8125 13.9414 16.5616 14.8368 16.938 15.6042C17.4398 16.2437 18.3181 16.4996 19.0709 16.1158C19.8237 15.6042 20.0746 14.7089 19.6982 13.9414C19.6982 13.7496 19.5414 13.6216 19.4159 13.5257C19.3845 13.4937 19.3532 13.4618 19.3218 13.4298ZM16.3106 39.4589H17.4398C16.8125 38.6914 16.3106 37.924 16.0597 37.1565C15.997 37.0286 15.9656 36.8687 15.9029 36.7408C15.5892 35.8775 15.2755 35.078 15.1814 34.2147C12.9231 35.7496 11.7939 37.2844 12.0448 38.1798C12.2644 38.9472 13.8954 39.331 16.3106 39.4589ZM27.3516 39.7147C25.3442 40.2263 23.4622 40.61 21.7057 40.8658C23.2113 41.7612 24.9678 42.4007 27.1007 42.5286C27.2262 42.017 27.6026 41.5054 28.1044 41.2496C29.2336 40.4821 30.8647 40.9937 31.492 42.1449C31.6175 42.1449 31.6175 42.2728 31.6175 42.2728C33.7504 42.017 35.6324 41.3775 37.2634 40.3542C36.887 39.4589 37.3889 38.3077 38.2672 37.7961C38.8945 37.4124 39.6473 37.4123 40.2746 37.6682C40.9019 36.7728 41.5293 35.7496 41.9057 34.5984C38.2672 36.2612 34.7541 37.5403 33.2485 38.0519C31.6488 38.5635 30.0491 38.9792 28.5436 39.3949C28.1358 39.5228 27.7594 39.6187 27.3516 39.7147ZM37.7967 19.6972C37.5457 19.1856 37.4203 18.5461 37.5457 18.0344C35.2873 17.1391 32.9035 16.7554 30.7706 16.6275C30.5824 16.6914 30.3628 16.7234 30.1432 16.7554C29.9237 16.7873 29.7041 16.8193 29.5159 16.8833C29.3904 17.6507 29.0141 18.4182 28.2613 18.8019C27.2575 19.3135 26.1283 19.1856 25.3755 18.5461C24.2463 19.1856 23.1172 20.081 22.1134 20.9763C21.1097 21.8717 20.3569 22.767 19.6041 23.7903C19.6041 23.8542 19.6355 23.8862 19.6668 23.9182C19.6982 23.9501 19.7296 23.9821 19.7296 24.0461C20.3569 25.1972 19.9805 26.7321 18.8513 27.3717C18.4749 27.7554 17.9731 27.7554 17.4712 27.7554C17.2203 28.5228 16.9693 29.2903 16.8439 29.9298C16.7184 30.1856 16.7184 30.3135 16.7184 30.5693C21.737 27.3717 27.2889 25.0373 33.0603 23.5025C33.0603 22.9908 33.4367 22.4792 33.9386 22.0955C34.8168 21.456 36.0715 21.7118 36.6988 22.6071C37.0752 23.1187 37.2007 23.6304 37.0752 24.2699C36.9498 24.7815 36.8243 25.1653 36.197 25.549C35.5696 25.9327 34.1895 25.9327 33.5622 25.1653C27.5398 26.8281 21.737 29.2583 16.5929 32.7437C16.7184 33.8949 16.9693 35.0461 17.4712 36.0693C17.9731 37.2205 18.7259 38.2437 19.6041 39.1391C21.737 38.8833 24.2463 38.4996 26.8811 37.86C28.6377 37.4763 30.6451 36.8368 32.6526 36.1972C33.9072 35.8135 38.424 34.0228 42.5957 31.9763C42.7212 31.8484 42.7212 31.5926 42.7212 31.4647C42.7212 30.6972 42.7212 30.1856 42.4703 29.8019C41.4665 30.4414 40.0864 30.0577 39.4591 29.0344C39.4591 29.0344 39.3336 28.9065 39.3336 28.7786C38.4554 28.7786 37.4516 29.0344 36.4479 29.2903C33.3113 30.0577 29.7982 31.7205 27.5085 32.8716C27.5085 33.767 27.1321 34.5344 26.3793 35.0461C25.3755 35.6856 23.9954 35.3019 23.3681 34.2786C22.7408 33.2554 23.1172 31.8484 24.1209 31.2089C24.9991 30.6972 26.0029 30.8251 26.7557 31.4647C29.1395 30.3135 32.778 28.6507 36.0715 27.7554C36.3224 27.6914 36.5734 27.6594 36.8243 27.5955C37.7967 27.4036 38.6749 27.2118 39.4591 27.1158C39.5845 26.7321 39.9609 26.3484 40.3373 26.0926C41.3411 25.453 42.7212 25.8368 43.3485 26.86C43.5995 27.2437 43.5995 27.7554 43.5995 28.1391C44.1013 28.7786 44.3522 29.8019 44.3522 31.081C47.9908 29.0344 50.8765 26.86 50.3746 24.9094C50.1237 24.3978 49.2454 24.0141 47.8653 23.7583C47.8339 23.8542 47.8339 23.9182 47.8026 23.9821C47.7398 24.206 47.7398 24.3339 47.238 24.5257C44.2268 25.8048 42.9721 22.2234 44.9796 20.9443C45.6069 20.5606 47.238 20.5606 47.8653 21.2001C47.9908 21.328 48.1162 21.456 48.1162 21.5839C50.2491 21.9676 51.6293 22.735 52.1311 24.0141V24.2699C52.8839 27.5955 48.7436 30.8251 43.9759 33.2554C43.474 35.3019 42.5957 36.9647 41.4665 38.5315C41.4665 38.5955 41.4979 38.6275 41.4979 38.6914C41.6234 39.1391 41.6861 39.4908 41.592 39.9385L46.2342 41.3455C46.3597 40.9618 46.6106 40.706 46.8616 40.578C47.1125 40.4501 47.4889 40.4501 47.8653 40.4501L49.12 35.8455C48.869 35.7176 48.6181 35.5897 48.4926 35.3339C48.1162 34.6943 48.3672 33.9269 48.9945 33.5432C49.6218 33.2873 50.3746 33.4153 50.751 34.0548C50.8765 34.3106 50.8765 34.5664 50.8765 34.8222L53.8877 35.4618C54.0131 35.078 54.3895 34.6943 54.7659 34.4385C55.6442 33.9269 56.7734 34.1827 57.2752 35.0781C57.7771 35.9734 57.5262 37.1246 56.6479 37.6362C55.7696 38.1478 54.6405 37.892 54.1386 36.9967C53.8877 36.6129 53.8877 36.2292 53.8877 35.8455L50.8765 35.206C50.8765 35.4618 50.6255 35.7176 50.3746 35.8455C50.1237 35.9734 49.8727 35.9734 49.6218 35.9734L48.3672 40.578C48.7436 40.706 48.9945 40.9618 49.12 41.2176C49.4964 41.8571 49.3709 42.6246 48.869 43.1362L51.5038 46.5897C52.0057 46.3339 52.633 46.4618 52.8839 46.9734C53.1349 47.485 53.0094 48.1246 52.5075 48.3804C52.0057 48.6362 51.3783 48.5083 51.1274 47.9967C51.0019 47.8687 51.0019 47.7408 51.0019 47.6129L42.9721 46.5897C42.8467 46.9734 42.5957 47.3571 42.2193 47.6129C41.7175 47.8687 41.2156 47.8687 40.8392 47.7408L38.8318 51.4501C38.8945 51.5141 38.9259 51.578 38.9572 51.642C38.9886 51.706 39.02 51.7699 39.0827 51.8339C39.3336 52.4734 39.2081 53.1129 38.5808 53.4966C37.9535 53.8804 37.3262 53.7525 36.9498 53.1129C36.6988 52.4734 36.8243 51.8339 37.4516 51.4501C37.828 51.1943 38.079 51.1943 38.4554 51.3222L40.0864 47.3571L39.71 46.9734L32.5585 51.1943C32.8094 51.8339 32.5585 52.4734 32.0566 52.7292C31.4293 53.1129 30.8019 52.985 30.4255 52.3455C30.1746 51.706 30.3001 51.0664 30.9274 50.6827C31.4293 50.299 32.0566 50.4269 32.433 50.9385L39.5845 46.7176C39.2081 46.078 39.5845 45.1827 40.2119 44.799C40.9647 44.2874 41.9684 44.5432 42.3448 45.3106C42.4703 45.5664 42.5957 45.8222 42.5957 46.078L50.6255 47.1013C50.6883 47.0373 50.7196 46.9734 50.751 46.9094C50.7824 46.8455 50.8137 46.7815 50.8765 46.7176L48.2417 43.2641C47.4889 43.7757 46.4852 43.5199 46.1088 42.7525C45.9833 42.4967 45.9833 42.1129 45.9833 41.7292L41.3411 40.3222C41.0901 40.8339 40.8392 41.2176 40.3373 41.4734C39.5845 41.8571 38.7063 41.8571 38.079 41.4734C36.197 42.6246 34.0641 43.392 31.5547 43.7757C31.4293 44.5432 31.0529 45.0548 30.4255 45.4385C29.2963 46.206 27.6653 45.6943 27.038 44.5432C26.9125 44.4153 26.787 44.1594 26.787 44.0315C24.4032 43.9036 22.2703 43.1362 20.5137 42.1129C20.0119 41.8571 19.51 41.4734 19.0082 41.0897C18.0044 41.2176 17.0007 41.2176 16.1224 41.2176C12.8603 41.2176 10.7274 40.3222 10.1001 38.6594V38.4036C9.59821 36.485 11.3547 34.0548 14.7423 31.7205C14.7423 31.1769 14.8364 30.6333 14.9305 29.9937C14.9619 29.8978 14.9619 29.7699 14.9932 29.674C15.1187 29.2263 15.2442 28.8106 15.3696 28.3949C15.4951 27.9792 15.6206 27.5635 15.746 27.1158C15.6833 27.0519 15.6206 26.956 15.5578 26.86C15.4951 26.7641 15.4324 26.6682 15.3696 26.6042C15.2442 26.4763 15.1187 26.2205 15.1187 26.0926L11.7311 27.1158C11.8566 27.6275 11.6057 28.1391 11.1038 28.3949C10.4765 28.6507 9.72368 28.5228 9.34728 27.8833C9.22181 27.6275 9.22181 27.2437 9.22181 26.9879L5.45784 25.581C5.33237 25.8368 5.08144 26.0926 4.70504 26.3484C3.82678 26.86 2.69759 26.6042 2.19573 25.7089C1.69386 24.8135 1.94479 23.6623 2.82305 23.1507C3.70132 22.6391 4.83051 22.8949 5.33237 23.7903C5.5833 24.3019 5.70877 24.6856 5.5833 25.1972L9.34728 26.6042C9.47274 26.3484 9.59821 26.2205 9.84914 26.0926C9.97461 25.9647 10.2255 25.9647 10.4765 25.9647L11.4802 20.3048C11.1038 20.1769 10.8529 19.9211 10.6019 19.5374C10.2255 18.7699 10.4765 17.7466 11.2293 17.3629C11.9821 16.8513 12.9858 17.1071 13.3622 17.8746C13.7386 18.642 13.4877 19.6653 12.7349 20.049C12.4839 20.3048 12.1075 20.3048 11.8566 20.3048L10.8529 25.9647C11.2293 26.0926 11.4802 26.3484 11.6057 26.6042V26.7321L15.1187 25.7089C14.9932 24.6856 15.3696 23.7903 16.2479 23.2786C16.8752 23.0228 17.3771 22.8949 18.0044 23.0228C18.8827 21.8717 19.7609 20.8484 20.8901 19.8251C22.0193 18.8019 23.1485 17.9065 24.4032 17.267C24.2777 16.2437 24.6541 15.0926 25.6578 14.581C26.787 13.9414 28.2926 14.3251 29.0454 15.4763C29.5473 15.3484 30.0491 15.2205 30.551 15.2205C33.1858 14.9647 35.8206 15.3484 38.3299 16.4996C38.4554 16.4996 38.5808 16.3716 38.7063 16.2437C39.8355 15.4763 41.4665 15.9879 42.0939 17.1391C42.8467 18.4182 42.4703 19.953 41.2156 20.5926C40.055 21.392 38.424 20.8804 37.7967 19.6972ZM43.6936 10.7437L45.1991 14.7089C44.4464 15.2205 44.1954 16.1158 44.6973 16.7554C45.0737 17.5228 45.9519 17.7786 47.0811 17.267C47.583 16.8833 47.9594 16.3717 47.8339 15.7321L55.7383 13.6856V13.8135C55.9892 14.1972 56.3656 14.4531 56.742 14.4531L57.8712 23.1827C57.7457 23.1827 57.6203 23.1827 57.4948 23.3106L53.6367 18.2903C54.1386 17.7786 54.2641 17.0112 53.8877 16.3717C53.3858 15.7321 52.5075 15.4763 51.7547 15.86C51.0019 16.3717 50.751 17.267 51.1274 18.0344C51.6293 18.674 52.5075 18.9298 53.2603 18.5461L57.1498 23.5344C56.6479 24.0461 56.5224 24.8135 56.8988 25.453C57.4007 26.0926 58.279 26.3484 59.0318 25.9647C59.7846 25.4531 60.0355 24.5577 59.6591 23.7903C59.4082 23.2786 58.7808 23.0228 58.279 23.0228L57.1498 14.2932C57.2125 14.2932 57.2439 14.2612 57.2752 14.2292C57.3066 14.1972 57.338 14.1653 57.4007 14.1653C58.028 13.7815 58.279 13.142 57.9026 12.5025C57.5262 11.9908 56.8988 11.735 56.2715 12.1187C55.7696 12.3746 55.6442 12.7583 55.6442 13.2699L47.7398 15.3164L47.6144 15.1885C47.4889 14.9327 47.3634 14.8048 47.1125 14.6769L49.2454 10.2001C49.4964 10.328 49.8727 10.2001 50.1237 10.0722C50.6255 9.68851 50.8765 9.04898 50.5001 8.40944C50.1237 7.89782 49.4964 7.642 48.869 8.02572C48.2417 8.40944 47.9908 9.04898 48.3672 9.68851L48.7436 10.0722L46.6106 14.549C46.4852 14.549 46.3597 14.517 46.2342 14.517C46.046 14.485 45.8892 14.453 45.7324 14.549L44.1013 10.5839C44.6032 10.2001 44.8541 9.4327 44.4777 8.92107C44.1013 8.40944 43.474 8.15363 42.8467 8.53735C42.4703 8.79316 42.2193 9.04898 42.2193 9.4327L37.7026 9.5606C37.7026 9.30479 37.5771 9.04898 37.4516 8.79316C37.3262 8.53735 37.2007 8.40944 37.0752 8.28153L40.0864 4.31642C40.4628 4.57223 40.8392 4.57223 41.2156 4.31642C41.8429 3.9327 42.0939 3.29316 41.7175 2.65363C41.3411 2.142 40.7137 1.88619 40.0864 2.26991C39.4591 2.65363 39.2081 3.29316 39.5845 3.9327C39.5845 3.99665 39.6159 4.02863 39.6473 4.0606C39.6786 4.09258 39.71 4.12456 39.71 4.18851L36.8243 8.15363C36.197 7.76991 35.4442 7.76991 34.8168 8.15363C34.1895 8.53735 33.9386 9.04898 33.8131 9.5606L29.1709 9.17688C29.1709 9.04898 29.1709 8.79317 29.0454 8.66526L28.669 8.28153L30.4255 4.44432C30.8019 4.57223 31.3038 4.57223 31.6802 4.31642C32.433 3.80479 32.6839 2.90944 32.3075 2.142C31.8057 1.37456 30.9274 1.11874 30.1746 1.50247C29.4218 2.01409 29.1709 2.90944 29.5473 3.67688C29.6727 3.9327 29.9237 4.18851 30.1746 4.0606L28.4181 7.89781C28.1672 7.76991 27.7908 7.89782 27.5398 8.02572C26.9125 8.40944 26.6616 9.04898 27.038 9.68851C27.4144 10.2001 28.0417 10.456 28.669 10.0722C28.9827 9.9763 29.1395 9.65653 29.2336 9.40072C29.265 9.36874 29.265 9.33677 29.2963 9.27282L33.9386 9.65654C33.9386 9.91235 34.064 10.2961 34.1895 10.5519C34.6914 11.5751 35.946 11.831 36.8243 11.3193C37.4516 11.0635 37.828 10.424 37.828 9.78444L42.3448 9.65654C42.3448 9.78444 42.3448 9.91235 42.4703 10.0403C42.6898 10.5839 43.1917 10.8717 43.6936 10.7437ZM200.432 10.5839L192.778 22.3833V30.2176H189.391V22.5112L181.737 10.7118H185.752L191.147 19.3135L196.542 10.5839H200.432V10.5839ZM172.014 20.2089L178.914 30.2176H174.774L169.755 22.767L164.737 30.2176H160.847L167.873 20.3368L161.224 10.7437H165.239L170.006 17.8106L174.774 10.7437H178.663L172.014 20.2089ZM144.756 22.4153H151.406L148.018 14.581L144.756 22.4153ZM146.638 10.5839H149.775L158.056 30.2176H154.543L152.661 25.485H143.627L141.62 30.2176H138.232L146.638 10.5839ZM134.939 30.2176H121.482V10.7118H124.87V27.1478H134.939V30.2176V30.2176ZM103.541 22.4153H110.19L106.803 14.581L103.541 22.4153ZM105.297 10.5839H108.434L116.715 30.2176H113.202L111.32 25.485H102.255L100.247 30.2176H96.8597L105.297 10.5839ZM199.428 47.1653H193.531V38.5635H195.037V45.7583H199.428V47.1653ZM173.927 43.8397H176.813L175.307 40.3862L173.927 43.8397ZM174.68 38.5635H176.06L179.699 47.1653H178.193L177.315 45.1187H173.3L172.422 47.1653H170.916L174.68 38.5635ZM158.84 39.9705H156.205V47.1653H154.699V39.9705H152.065V38.5635H158.84V39.9705V39.9705ZM138.075 47.1653H136.57V38.5635H138.075V47.1653ZM122.267 42.4327V46.0141C122.141 46.142 121.89 46.3978 121.514 46.5257C121.388 46.5897 121.231 46.6536 121.075 46.7176C120.918 46.7815 120.761 46.8455 120.635 46.9094C120.447 46.9734 120.29 47.0054 120.134 47.0374C119.977 47.0693 119.82 47.1013 119.632 47.1653C119.381 47.2932 119.004 47.2932 118.628 47.2932C118.001 47.2932 117.373 47.1653 116.872 46.9094C116.37 46.7815 115.868 46.3978 115.491 46.0141C115.115 45.6304 114.864 45.1187 114.613 44.6071C114.582 44.5112 114.582 44.4153 114.55 44.3193C114.456 43.8077 114.362 43.36 114.362 42.7844C114.362 42.2728 114.488 41.6333 114.739 41.1217C114.99 40.61 115.24 40.0984 115.617 39.7147C115.993 39.331 116.495 39.0751 116.997 38.8193C117.499 38.5635 118.126 38.4356 118.753 38.4356C118.973 38.4356 119.161 38.4676 119.349 38.4996C119.506 38.5315 119.632 38.5635 119.757 38.5635C119.883 38.5635 120.008 38.5955 120.134 38.5955C120.322 38.6275 120.479 38.6594 120.635 38.5635L121.388 38.9472C121.514 39.0751 121.765 39.331 122.016 39.4589L121.137 40.61C121.075 40.5461 120.981 40.4821 120.886 40.4182C120.792 40.3542 120.698 40.2903 120.635 40.2263C120.573 40.1623 120.479 40.1304 120.385 40.0984C120.29 40.0664 120.196 40.0344 120.134 39.9705C120.008 39.9705 119.914 39.9385 119.82 39.9065C119.726 39.8746 119.632 39.8426 119.506 39.8426C119.255 39.7147 119.004 39.7147 118.753 39.7147C118.377 39.7147 118.001 39.8426 117.624 39.9705C117.248 40.0984 116.997 40.3542 116.746 40.61C116.683 40.7379 116.589 40.8339 116.526 40.9298C116.37 41.1536 116.213 41.3775 116.119 41.6333C115.993 42.017 115.868 42.4007 115.868 42.7844C115.868 43.2961 115.993 43.6798 116.119 44.0635C116.244 44.4472 116.495 44.831 116.746 45.0868C116.997 45.3426 117.248 45.5984 117.624 45.7263C117.875 45.8542 118.377 45.9821 118.753 45.9821C119.13 45.9821 119.506 45.9821 119.883 45.8542C120.259 45.7263 120.51 45.5984 120.761 45.3426V43.6798H118.628V42.4007H122.267V42.4327ZM100.247 47.1653H98.7417V38.5635H100.247V47.1653ZM82.7762 44.0955C82.9016 43.7118 83.0271 43.328 83.0271 42.9443C83.0271 42.4327 82.9016 42.049 82.7762 41.7932C82.6507 41.4094 82.3998 41.1536 82.1488 40.8978C81.8979 40.642 81.647 40.3862 81.2706 40.2583C80.8942 40.1304 80.5178 40.0025 80.0159 40.0025H78.3849V45.9182H80.0159C80.5178 45.9182 80.8942 45.7903 81.2706 45.6623C81.647 45.5344 81.8979 45.2786 82.1488 45.0228C82.3998 44.735 82.6507 44.4792 82.7762 44.0955ZM84.1563 41.2815C84.4072 41.7932 84.5327 42.3048 84.5327 42.9443C84.5327 43.456 84.4072 44.0955 84.1563 44.4792C84.0308 44.9908 83.6544 45.5025 83.278 45.8862C82.9016 46.2699 82.3998 46.6536 81.7724 46.7815C81.2706 47.0373 80.6432 47.1653 80.0159 47.1653H76.8793V38.5635H80.0159C80.6432 38.5635 81.2706 38.6914 81.8979 38.9472C82.3998 39.203 82.9016 39.4589 83.278 39.8426C83.6544 40.2263 84.0308 40.61 84.1563 41.2815ZM92.8448 19.3135V27.5315C92.3429 27.9153 91.8411 28.299 91.2137 28.6827C90.5864 29.0664 89.9591 29.4501 89.3317 29.706C88.7044 29.9618 87.9516 30.2176 87.1988 30.3455C86.446 30.4734 85.6932 30.6013 84.815 30.6013C83.4349 30.6013 82.0547 30.3455 80.8001 29.8339C79.5454 29.3222 78.5417 28.5548 77.6634 27.6594C76.7852 26.7641 76.1578 25.7408 75.656 24.4618C75.1541 23.3106 74.9032 21.9036 74.9032 20.4967C74.9032 19.2176 75.1541 17.9385 75.656 16.6594C76.1578 15.3804 76.7852 14.2292 77.6634 13.3339C78.5417 12.4385 79.5454 11.6711 80.8001 11.1594C82.0547 10.6478 83.3094 10.392 84.815 10.392C85.5678 10.392 86.446 10.392 87.3243 10.6478C87.9516 10.7757 88.579 10.9036 89.2063 11.1594C89.7081 11.2873 90.3355 11.5432 90.8373 11.9269L92.3429 13.078L90.21 15.6362C89.8336 15.2525 89.4572 14.9967 89.0808 14.7408C88.7044 14.485 88.2026 14.2292 87.8262 14.1013C87.4498 13.9734 86.9479 13.8455 86.446 13.7176C85.9442 13.5897 85.4423 13.5897 84.815 13.5897C83.9367 13.5897 83.0585 13.7176 82.3057 14.1013C81.5529 14.485 80.8001 14.9967 80.2982 15.6362C79.7964 16.2757 79.42 16.9153 79.0436 17.8106C78.6672 18.706 78.5417 19.6013 78.5417 20.4967C78.5417 21.5199 78.7926 22.4153 79.0436 23.3106C79.42 24.078 79.7964 24.8455 80.4237 25.485C80.9255 25.9967 81.6783 26.5083 82.4311 26.892C83.1839 27.2757 84.0622 27.4036 85.0659 27.4036C85.9442 27.4036 86.8224 27.2757 87.5752 27.0199C88.328 26.7641 88.9554 26.3804 89.5827 25.9966V22.2874H84.6895V19.3455H92.8448V19.3135Z" fill="#6B82B0"/>
</svg>
