<svg width="166" height="55" viewBox="0 0 166 55" fill="none" xmlns="http://www.w3.org/2000/svg">
<path d="M88.7461 27.5248L67.6769 6.4707V48.5295L88.7461 27.5248Z" fill="#6B82B0"/>
<path d="M46.9269 27.8236L67.6769 6.4707H26.1769L46.9269 27.8236Z" fill="#6B82B0"/>
<path d="M5.10767 27.5248L26.1769 48.5295V6.4707L5.10767 27.5248Z" fill="#6B82B0"/>
<path d="M46.9269 27.8232L26.1769 48.5291H67.6769L46.9269 27.8232Z" fill="#6B82B0"/>
<path d="M107.262 28.7759H99.6001V36.2352H95.7693V18.7646H99.6001V25.9296H107.262V18.7646H111.092V36.2352H107.262V28.7759Z" fill="#6B82B0"/>
<path d="M120.475 36.8819C116.746 36.8819 113.695 35.3055 113.646 30.983H117.376C117.424 32.9154 118.49 34.085 120.524 34.085C122.025 34.085 123.769 33.2713 123.769 31.4915C123.769 30.0676 122.607 29.6608 120.669 29.0506L119.41 28.6946C116.698 27.8809 113.985 26.7622 113.985 23.5076C113.985 19.4902 117.569 18.1172 120.814 18.1172C124.157 18.1172 127.063 19.3377 127.111 23.355H123.382C123.236 21.7277 122.316 20.7615 120.572 20.7615C119.168 20.7615 117.812 21.5243 117.812 23.1516C117.812 24.4738 118.974 24.8806 121.396 25.6943L122.849 26.1519C125.803 27.1181 127.692 28.1861 127.692 31.2372C127.644 35.3055 123.866 36.8819 120.475 36.8819Z" fill="#6B82B0"/>
<path d="M129.608 18.7824H135.762C136.904 18.7332 138.095 18.7824 139.236 18.979C141.371 19.4707 143.009 20.8472 143.009 23.207C143.009 25.4685 141.569 26.5993 139.485 27.1401C141.867 27.5826 143.654 28.7625 143.654 31.3681C143.654 35.3503 139.683 36.2352 136.606 36.2352H129.657L129.608 18.7824ZM135.762 26.0585C137.45 26.0585 139.187 25.7144 139.187 23.6987C139.187 21.8796 137.599 21.388 136.01 21.388H133.33V26.0585H135.762V26.0585ZM136.11 33.6296C137.896 33.6296 139.634 33.2363 139.634 31.0731C139.634 28.91 138.145 28.5166 136.308 28.5166H133.281V33.6296H136.11Z" fill="#6B82B0"/>
<path d="M153.696 36.8819C148.066 36.8819 145.569 33.1797 145.569 27.6517C145.569 22.1237 148.36 18.1172 153.892 18.1172C157.367 18.1172 160.745 19.7401 160.843 23.7973H156.927C156.731 21.9716 155.556 21.0587 153.892 21.0587C150.465 21.0587 149.437 24.8623 149.437 27.7531C149.437 30.6439 150.465 33.9911 153.745 33.9911C155.458 33.9911 156.731 33.0275 156.976 31.2018H160.892C160.501 35.3604 157.319 36.8819 153.696 36.8819Z" fill="#6B82B0"/>
</svg>
