<svg width="181" height="55" viewBox="0 0 181 55" fill="none" xmlns="http://www.w3.org/2000/svg">
<path d="M107.466 13.3989L107.412 12.823C107.301 9.93145 106.072 9.30002 100.764 9.30002C93.8407 9.30002 92.3342 9.92738 92.3342 12.9002C92.3342 15.3392 93.176 16.2552 95.747 16.5005C96.3553 16.5411 97.0324 16.6224 97.807 16.6224C98.539 16.6644 99.8794 16.7457 101.883 16.827C109.25 17.1143 111.433 17.5371 113.175 19.0235C114.572 20.2227 115.124 21.6278 115.124 24.2727C115.124 28.0369 114.502 29.8093 112.83 30.9678C110.48 32.5775 107.8 33.0003 100.378 33.0003C93.0524 33.0003 90.6477 32.755 88.4778 31.6778C86.2392 30.5586 85.0636 28.5003 85.0636 25.4326C85.0636 25.186 85.1185 24.7226 85.1185 24.1088H91.9331V24.7226C91.9331 27.6955 93.0524 28.7321 96.4529 28.7727H99.7489L100.757 28.8133C107.018 28.8133 108.082 28.186 108.082 24.7226C108.082 21.9964 107.184 21.369 102.831 21.1996L98.9194 20.995C91.3179 20.6671 89.9225 20.4625 88.0287 19.2633C86.0661 18.0628 85.2366 16.2498 85.2366 13.3176C85.2366 9.88131 86.1348 7.86372 88.1385 6.82714C90.6545 5.54532 93.2804 5.17676 100.205 5.17676C106.41 5.17676 109.036 5.50467 111.041 6.54124C113.211 7.65912 114.219 9.51275 114.219 12.4043V13.4002H107.466V13.3989Z" fill="#6B82B0"/>
<path d="M132.392 5.17676H125.357V33.0003H132.392V5.17676Z" fill="#6B82B0"/>
<path d="M175.136 18.5224L175.19 19.3292L175.244 23.7496V24.1254C175.244 28.8097 174.416 30.658 171.73 32.0905C169.423 33.3559 166.846 33.6473 159.506 33.6473C152.043 33.6473 149.519 33.2716 147.05 31.6733C144.255 29.825 143.265 27.5029 143.265 22.4428V21.8585C143.319 20.4274 143.319 19.372 143.319 18.7863C143.373 13.7677 143.482 12.9347 144.079 11.1126C144.691 9.39289 145.872 7.94714 147.416 7.02645C150.157 5.46823 152.193 5.17676 159.437 5.17676C167.714 5.17676 169.316 5.3439 171.663 6.525C173.087 7.24885 174.132 8.42995 174.566 9.76438C175 11.0712 175.055 11.4055 175.105 13.8519H168.144L168.09 13.2994C167.82 10.1028 166.828 9.67182 159.366 9.67182C155.363 9.67182 153.433 9.92185 152.337 10.6388C150.914 11.5699 150.479 12.7938 150.479 16.2417L150.424 19.0639L150.479 22.6915C150.533 26.0137 150.858 27.1962 152.176 28.0444C153.382 28.8359 155.349 29.0998 159.746 29.0998C167.161 29.0998 168.253 28.4188 168.253 23.4982V22.5312H158.985V18.5224H175.136Z" fill="#6B82B0"/>
<path fill-rule="evenodd" clip-rule="evenodd" d="M5.11658 22.6475C7.37593 23.9673 8.57885 25.7598 13.2992 25.7598C18.0195 25.7598 20.9817 22.6475 26.5824 22.6475C32.2355 22.6475 35.3335 25.7598 41 25.7598C46.6007 25.7598 48.8049 22.6475 54.2147 22.6475C59.6931 22.6475 62.6419 25.7598 67.498 25.7598C72.354 25.7598 73.9763 23.8067 76.7491 22.6475V29.9497C73.9763 31.1263 72.3406 33.0004 67.498 33.0004C62.6554 33.0004 59.6931 29.868 54.2147 29.868C48.8049 29.868 46.6007 33.0004 41.0027 33.0004C35.3362 33.0004 32.2516 29.8747 26.5851 29.8747C20.9764 29.868 18.0195 33.0004 13.2992 33.0004C8.57885 33.0004 7.38533 31.2763 5.11658 29.9564V22.6475Z" fill="#6B82B0"/>
<path fill-rule="evenodd" clip-rule="evenodd" d="M5.11658 16.8232V20.8887C7.37593 22.2298 8.57885 23.9409 13.2992 23.9409C18.0195 23.9409 20.9817 20.8058 26.5824 20.8058C32.2355 20.8058 35.3335 23.9409 41 23.9409C46.6007 23.9409 48.8049 20.8058 54.2147 20.8058C59.6931 20.8058 62.6419 23.9409 67.498 23.9409C72.354 23.9409 73.9763 22.0788 76.7491 20.8887V16.8232C73.9763 18.0134 72.3406 19.9516 67.498 19.9516C62.6554 19.9516 59.6931 16.8232 54.2147 16.8232C48.8049 16.8232 46.6007 19.9516 41 19.9516C35.3335 19.9516 32.2489 16.8232 26.5824 16.8232C20.9817 16.8232 18.0208 19.9516 13.2992 19.9516C8.57751 19.9516 7.38533 18.1589 5.11658 16.8232Z" fill="#6B82B0"/>
<path fill-rule="evenodd" clip-rule="evenodd" d="M5.11658 12.2939V14.8464C7.37593 16.24 8.57885 18.1175 13.2992 18.1175C18.0195 18.1175 20.9817 14.7575 26.5824 14.7575C32.2355 14.7575 35.3335 18.1175 41 18.1175C46.6007 18.1175 48.8049 14.7575 54.2147 14.7575C59.6931 14.7575 62.6419 18.1175 67.498 18.1175C72.354 18.1175 73.9763 16.1219 76.7491 14.8464V12.2939C73.9763 13.5694 72.3406 15.6467 67.498 15.6467C62.6554 15.6467 59.6931 12.2939 54.2147 12.2939C48.8049 12.2939 46.6007 15.6467 41 15.6467C35.3335 15.6467 32.2489 12.2939 26.5824 12.2939C20.9817 12.2939 18.0208 15.6467 13.2992 15.6467C8.57751 15.6467 7.38533 13.7254 5.11658 12.2939" fill="#6B82B0"/>
<path d="M78.3636 30.7883C78.611 30.7823 78.8571 30.8301 79.0869 30.9288C79.3168 31.0275 79.5258 31.175 79.7014 31.3626C79.871 31.533 80.006 31.7393 80.0979 31.9685C80.1898 32.1977 80.2367 32.4448 80.2355 32.6944C80.2343 32.944 80.1851 33.1906 80.091 33.4188C79.9969 33.647 79.8599 33.8517 79.6887 34.0203C79.3258 34.3754 78.8543 34.5749 78.3636 34.5809C77.8693 34.5816 77.3942 34.3757 77.0385 34.0066C76.8677 33.8377 76.7319 33.632 76.6399 33.403C76.5479 33.1739 76.5017 32.9266 76.5044 32.6771C76.5065 32.42 76.5585 32.1662 76.657 31.9319C76.7555 31.6976 76.8984 31.4879 77.0765 31.3163C77.2469 31.1394 77.4487 31.001 77.6698 30.9094C77.8908 30.8178 78.1268 30.7748 78.3636 30.7829M78.3509 30.4128C77.9721 30.4059 77.5978 30.5028 77.2635 30.6945C76.9291 30.8861 76.6457 31.1662 76.4399 31.5082C76.2292 31.86 76.1147 32.2683 76.1095 32.6867C76.1083 32.9818 76.1638 33.2741 76.2727 33.5451C76.3816 33.816 76.5415 34.0598 76.7423 34.2611C77.1723 34.699 77.7423 34.9426 78.3345 34.9415C78.9222 34.9399 79.4889 34.706 79.9266 34.2842C80.1324 34.0823 80.2972 33.8369 80.4107 33.5634C80.5243 33.2899 80.5841 32.9942 80.5865 32.6946C80.5888 32.3951 80.5337 32.0983 80.4245 31.8228C80.3154 31.5472 80.1545 31.2988 79.952 31.0932C79.7402 30.8704 79.4891 30.6954 79.2135 30.5785C78.9379 30.4617 78.6433 30.4053 78.3471 30.4128M77.4296 31.3653V33.8855H78.0282V32.8581H78.3218L78.8053 33.8855H79.4799L78.9293 32.7738C79.0803 32.7515 79.2188 32.6713 79.3192 32.5481C79.4197 32.4248 79.4754 32.2668 79.4761 32.1029C79.4761 31.6239 79.1204 31.3762 78.4066 31.3762L77.4296 31.3653ZM78.0282 31.7627H78.2965C78.6648 31.7627 78.8433 31.8729 78.8433 32.1328C78.8433 32.3927 78.6775 32.4894 78.337 32.4894H78.0434V31.7627H78.0282Z" fill="#6B82B0"/>
<path d="M5.7588 46.047H6.93585C6.96155 46.7217 7.16843 47.2274 7.57835 47.5514C7.98826 47.8755 8.59991 48.0431 9.4146 48.0431C10.1136 48.0431 10.6568 47.9165 11.044 47.6632C11.2218 47.5577 11.3691 47.4007 11.4697 47.2095C11.5702 47.0184 11.6199 46.8006 11.6132 46.5806C11.6211 46.4324 11.5972 46.2842 11.5435 46.1478C11.4897 46.0113 11.4076 45.8903 11.3035 45.7941C11.0967 45.6111 10.7471 45.4561 10.2563 45.3751L8.29023 44.9951C7.50125 44.8401 6.91915 44.5872 6.55678 44.2212C6.19441 43.8553 6.01451 43.351 6.01451 42.7182C6.01451 41.8884 6.29849 41.2417 6.88059 40.7919C7.4627 40.3421 8.27738 40.1172 9.35035 40.1172C10.3591 40.1172 11.1352 40.3561 11.6788 40.8156C12.2223 41.2752 12.4934 41.9541 12.5063 42.8397H11.3845C11.3459 42.2921 11.1519 41.8843 10.8152 41.6314C10.4786 41.3786 9.94916 41.2375 9.26426 41.2375C8.57936 41.2375 8.07435 41.3506 7.72227 41.5895C7.55817 41.6904 7.42222 41.8377 7.3288 42.0157C7.23538 42.1938 7.18796 42.3959 7.19156 42.6009C7.18459 42.7418 7.20789 42.8826 7.25964 43.0121C7.31138 43.1415 7.39014 43.2561 7.48968 43.3468C7.69657 43.5144 8.05893 43.6695 8.58835 43.7826L10.3347 44.1612C11.2521 44.3581 11.8869 44.625 12.248 44.977C12.6091 45.329 12.7916 45.8347 12.7916 46.4954C12.7916 47.3531 12.4943 48.0138 11.8998 48.4776C11.3048 48.9553 10.4644 49.176 9.36449 49.176C8.18743 49.176 7.29565 48.9092 6.68785 48.3882C6.08004 47.8671 5.77036 47.0807 5.75623 46.0414" fill="#6B82B0"/>
<path d="M28.7758 40.7646V45.9075C28.7758 46.9803 28.4773 47.7829 27.8791 48.3459C27.2808 48.9089 26.41 49.1764 25.2523 49.1764C24.0946 49.1764 23.2237 48.8956 22.6384 48.3459C22.0531 47.7962 21.7456 46.9803 21.7456 45.9075V40.7646H22.8632V45.4124C22.8632 46.3095 23.0584 46.9803 23.4486 47.4089C23.8388 47.8375 24.437 48.0517 25.2575 48.0517C26.0779 48.0517 26.6878 47.8375 27.078 47.4089C27.4682 46.9803 27.6633 46.3095 27.6633 45.4124V40.7646H28.7809" fill="#6B82B0"/>
<path d="M37.1011 46.0461H38.3816C38.411 46.7207 38.6363 47.2263 39.0814 47.5503C39.5264 47.8743 40.194 48.0419 41.0813 48.0419C41.8417 48.0419 42.4332 47.9153 42.8558 47.662C43.0493 47.5565 43.2096 47.3994 43.3189 47.2083C43.4281 47.0172 43.482 46.7995 43.4744 46.5796C43.483 46.4314 43.457 46.2833 43.3984 46.1469C43.3399 46.0104 43.2505 45.8894 43.1371 45.7933C42.9118 45.6103 42.5312 45.4553 41.9965 45.3743L39.8693 44.9944C39.01 44.8393 38.376 44.5865 37.9827 44.2206C37.5895 43.8547 37.3908 43.3505 37.3908 42.7178C37.3908 41.8882 37.7 41.2415 38.334 40.7918C38.968 40.3421 39.8553 40.1172 41.0239 40.1172C42.1225 40.1172 42.9678 40.356 43.5598 40.8155C44.1518 41.275 44.4471 41.9538 44.4611 42.8393H43.2491C43.2071 42.2918 42.9958 41.884 42.6305 41.6312C42.2652 41.3784 41.6859 41.2373 40.9399 41.2373C40.194 41.2373 39.644 41.3505 39.2605 41.5893C39.0806 41.6887 38.9316 41.8357 38.8299 42.0141C38.7282 42.1925 38.6777 42.3953 38.6839 42.6005C38.6777 42.7413 38.7044 42.8816 38.762 43.0104C38.8196 43.1391 38.9064 43.2527 39.0156 43.3421C39.2409 43.5097 39.6356 43.6647 40.2136 43.7779L42.0945 44.162C43.0952 44.3589 43.7851 44.6257 44.1798 44.9776C44.5744 45.3296 44.7704 45.8352 44.7704 46.4958C44.7704 47.3534 44.4466 48.014 43.7991 48.4777C43.1511 48.9553 42.2219 49.176 41.0379 49.176C39.7573 49.176 38.7847 48.9092 38.1227 48.3883C37.4607 47.8673 37.1095 47.081 37.0955 46.0419" fill="#6B82B0"/>
<path d="M59.8033 48.6598C59.5027 48.8344 59.1771 48.957 58.8391 49.0229C58.4153 49.1031 57.9851 49.1409 57.5545 49.1357C56.1768 49.1357 55.0929 48.7293 54.2897 47.9167C53.4865 47.104 53.0848 46.0131 53.0848 44.6257C53.0848 43.2384 53.4838 42.1474 54.2897 41.3348C55.0956 40.5221 56.1901 40.1172 57.5678 40.1172C58.9455 40.1172 60.0307 40.5235 60.8339 41.3348C61.6371 42.146 62.0388 43.2537 62.0388 44.6257C62.0436 45.2925 61.9253 45.954 61.6903 46.5739C61.4791 47.1407 61.1336 47.6421 60.6863 48.0308L61.7967 48.9548L61.1411 49.8231L59.8033 48.6598ZM58.8391 47.8248L57.9827 47.0901L58.6117 46.2552L59.8166 47.2766C60.1573 46.9879 60.4203 46.6115 60.5799 46.1842C60.7617 45.6932 60.8519 45.1703 60.8459 44.6438C60.8459 43.5807 60.552 42.7541 59.9761 42.1655C59.4003 41.5769 58.5971 41.2694 57.5665 41.2694C56.5358 41.2694 55.7339 41.563 55.1581 42.1655C54.5823 42.768 54.2884 43.5946 54.2884 44.6438C54.2884 45.693 54.5823 46.5488 55.1581 47.1374C55.7339 47.726 56.5637 48.0197 57.6343 48.0197C57.8623 48.0213 58.0902 48.0073 58.3165 47.9779C58.4943 47.9426 58.6687 47.8909 58.8378 47.8235" fill="#6B82B0"/>
<path d="M78.0283 40.7646V45.9075C78.0283 46.9803 77.7019 47.7829 77.0434 48.3459C76.385 48.9089 75.4437 49.1764 74.1831 49.1764C72.9225 49.1764 71.9756 48.8956 71.3383 48.3459C70.7009 47.7962 70.3534 46.9803 70.3534 45.9075V40.7646H71.5718V45.4124C71.5718 46.3095 71.7843 46.9803 72.2092 47.4089C72.6341 47.8375 73.2855 48.0517 74.1789 48.0517C75.0723 48.0517 75.7364 47.8375 76.1613 47.4089C76.5862 46.9803 76.7986 46.3228 76.7986 45.4257V40.778H78.0283V40.7646Z" fill="#6B82B0"/>
<path d="M86.9823 48.5294V40.7646H93.3006V41.7685H88.0997V44.0554H92.975V45.0719H88.0997V47.4863H93.3781V48.5294H86.9823Z" fill="#6B82B0"/>
<path d="M101.693 48.5294V40.7646H102.903V43.9039H108.156V40.7646H109.368V48.5294H108.156V44.9204H102.903V48.5294H101.693Z" fill="#6B82B0"/>
<path d="M117.042 48.5294L121.019 40.7646H122.267L125.996 48.5294H124.763L123.694 46.3183H119.415L118.291 48.5294H117.042ZM119.904 45.3017H123.195L121.591 41.9845L119.904 45.3017Z" fill="#6B82B0"/>
<path d="M134.311 48.5294V40.7646H135.843L140.886 47.3979V40.7646H141.986V48.5294H140.454L135.411 41.8961V48.5294H134.311Z" fill="#6B82B0"/>
<path d="M150.94 48.5294V40.7646H152.601L158.063 47.3979V40.7646H159.254V48.5294H157.595L152.131 41.8961V48.5294H150.94Z" fill="#6B82B0"/>
<path d="M166.929 48.5294L170.906 40.7646H172.154L175.883 48.5294H174.649L173.579 46.3183H169.302L168.19 48.5294H166.929ZM169.791 45.3017H173.082L171.492 41.9845L169.791 45.3017Z" fill="#6B82B0"/>
</svg>
