<svg width="198" height="55" viewBox="0 0 198 55" fill="none" xmlns="http://www.w3.org/2000/svg">
<path d="M13.4563 40.9502C14.0614 40.9098 14.6665 40.8438 15.2716 40.8374C17.4694 40.8204 18.4872 40.1349 19.1615 38.0574C20.3954 34.2641 21.5927 30.4559 22.8028 26.6541C24.1838 22.3116 25.5344 17.9606 26.9456 13.6287C28.8646 7.72382 34.4639 4.35841 40.9794 5.34824V14.1417L41.0097 14.1141C40.3981 14.1141 39.7887 14.1311 39.1771 14.1332C36.934 14.1332 35.9161 14.8357 35.2246 16.9686C33.8761 21.1366 32.56 25.313 31.2309 29.4873C30.0013 33.3594 28.7803 37.2336 27.542 41.1014C25.6619 46.9722 20.51 50.3057 14.2386 49.7672C13.5298 49.7055 13.5471 49.3308 13.5471 48.8497C13.5471 46.4869 13.5471 44.1226 13.5471 41.757C13.5471 41.4781 13.506 41.1971 13.4844 40.9055L13.4563 40.9502Z" fill="#6B82B0"/>
<path d="M14.0322 41.3902C11.555 41.3628 9.07772 41.3347 6.60046 41.3059C6.13786 41.3059 5.67528 41.3059 5.12622 41.3059V14.2354H14.0041C14.0504 14.511 14.0814 14.7889 14.0971 15.0679C14.0971 23.5667 14.0971 32.0639 14.0971 40.5597C14.0813 40.8453 14.0495 41.1298 14.002 41.4118C14.002 41.4118 14.0322 41.3902 14.0322 41.3902Z" fill="#6B82B0"/>
<path d="M41.1098 14.2544C43.7385 14.2544 46.3665 14.2544 48.9938 14.2544C49.1117 14.2724 49.2277 14.3029 49.3399 14.3455V40.7648H41.0678C41.0458 40.3771 41.0098 40.036 41.0098 39.7055C41.0098 31.5586 41.0098 23.4118 41.0098 15.265C41.0294 14.9192 41.0708 14.5753 41.1338 14.2354C41.1261 14.2421 41.1181 14.2484 41.1098 14.2544V14.2544Z" fill="#6B82B0"/>
<path d="M148.287 23.7597C148.338 23.4386 148.409 22.9864 148.489 22.4709H151.116C151.163 22.5605 151.225 22.6216 151.223 22.6894C151.202 27.7134 151.236 32.7593 151.124 37.7898C151.069 40.3193 150.328 42.6762 147.797 43.7793C145.005 45.0004 142.148 45.0069 139.482 43.3228C138.275 42.5583 137.691 41.3263 137.498 39.7251C138.458 39.7251 139.306 39.6902 140.148 39.7492C140.348 39.7645 140.578 40.0637 140.702 40.2843C141.602 41.8527 142.968 42.4687 144.998 42.1563C146.672 41.9073 147.743 40.9069 148.059 39.131C148.25 38.0716 148.274 36.9816 148.388 35.8327C148.173 35.8785 148.038 35.8654 147.991 35.9222C147.387 36.6378 146.629 37.2007 145.775 37.5662C144.92 37.9317 143.994 38.0898 143.069 38.0279C142.145 37.966 141.247 37.6858 140.447 37.2096C139.647 36.7334 138.968 36.0742 138.462 35.2844C136.582 32.4163 136.703 27.4491 138.72 24.6706C139.509 23.5547 140.629 22.7259 141.916 22.3063C143.203 21.8867 144.588 21.8985 145.868 22.3399C146.736 22.6413 147.49 23.2792 148.287 23.7597ZM148.45 29.9939C148.354 29.1835 148.315 28.3469 148.145 27.5387C147.776 25.7672 146.813 24.8169 145.28 24.6029C143.286 24.3233 141.826 24.9414 141.02 26.5688C140.492 27.582 140.203 28.7062 140.176 29.8525C140.148 30.9988 140.383 32.136 140.861 33.1743C141.607 34.8649 143.067 35.6404 144.861 35.4416C146.654 35.2429 147.716 34.2905 148.13 32.3835C148.298 31.6081 148.345 30.8086 148.45 29.9939Z" fill="#6B82B0"/>
<path d="M80.8317 22.5026C79.9043 22.5026 79.0219 22.5407 78.146 22.4751C77.9313 22.4603 77.6372 22.1559 77.532 21.9191C76.4178 19.4329 73.0472 18.4139 70.662 19.8641C68.9703 20.8916 68.9166 23.4962 70.662 24.4201C71.7354 24.9909 72.9999 25.2404 74.17 25.6611C75.6384 26.1876 77.1541 26.6315 78.5517 27.3059C82.4376 29.1811 82.1134 34.8111 78.8244 36.8534C75.9712 38.6229 70.881 38.6461 68.1072 36.7476C66.4949 35.6441 65.6298 34.1113 65.3593 32.05C66.3168 32.05 67.1648 32.0035 67.9999 32.0796C68.2468 32.1029 68.5624 32.4306 68.6762 32.6928C69.9342 35.5489 74.0777 36.7561 76.757 35.0183C78.5603 33.8492 78.6183 30.9781 76.7269 29.8429C75.5934 29.1642 74.2365 28.8429 72.972 28.3862C71.6023 27.8915 70.1618 27.5406 68.8565 26.9233C64.9685 25.0734 65.6555 20.0459 68.2403 18.213C70.8939 16.3314 76.0056 16.3462 78.5603 18.3441C79.2177 18.8381 79.7603 19.4647 80.152 20.1818C80.5437 20.899 80.7755 21.6902 80.8317 22.5026V22.5026Z" fill="#6B82B0"/>
<path d="M163.544 28.6541C163.899 25.5157 162.373 24.1105 159.433 24.8287C158.71 25.0445 158.099 25.5194 157.723 26.1571C157.366 26.8358 157.026 27.0745 156.298 27.0123C155.742 26.9645 155.178 27.0123 154.616 27.0123C154.701 24.9781 155.842 23.3383 157.862 22.9377C159.521 22.6089 161.225 22.559 162.901 22.7904C165.337 23.1495 166.534 24.7643 166.577 27.2759C166.624 29.476 166.59 31.6783 166.592 33.8805V37.7869C165.921 37.7869 165.128 37.9488 164.47 37.7308C164.042 37.5897 163.816 36.9006 163.467 36.4025C161.92 38.1813 159.728 38.4511 157.364 37.9592C156.432 37.7826 155.584 37.3177 154.947 36.6341C154.31 35.9506 153.918 35.085 153.829 34.167C153.579 32.0478 154.419 30.2772 156.409 29.5487C157.836 29.0256 159.428 28.8907 160.963 28.681C161.777 28.5565 162.632 28.6541 163.544 28.6541ZM163.679 30.4391C161.769 30.6633 160.046 30.7463 158.373 31.1054C157.246 31.3483 156.757 32.3736 156.823 33.5298C156.831 34.0514 157.015 34.5561 157.348 34.9658C157.681 35.3755 158.143 35.6673 158.663 35.7963C161.085 36.4751 163.151 35.2422 163.542 32.8552C163.649 32.1827 163.624 31.4936 163.679 30.435V30.4391Z" fill="#6B82B0"/>
<path d="M125.592 30.9813H114.696C114.432 34.4116 116.608 36.6482 119.621 36.0436C120.336 35.9019 121.221 35.4391 121.57 34.8456C122.128 33.8756 122.828 33.8136 123.713 33.8668C124.165 33.8934 124.622 33.8668 125.194 33.8668C124.698 35.5321 123.856 36.759 122.544 37.6315C118.615 40.2491 113.384 38.3689 112.007 33.8159C111.248 31.3777 111.335 28.7462 112.254 26.3661C113.382 23.3832 116.012 21.7843 119.286 22.0235C122.412 22.2449 124.549 24.1029 125.231 27.3051C125.458 28.4389 125.462 29.6215 125.592 30.9813ZM122.392 28.791C122.358 25.9432 120.877 24.3155 118.465 24.3908C116.222 24.4594 114.705 26.2576 114.798 28.791H122.392Z" fill="#6B82B0"/>
<path d="M181.962 30.9744C181.904 34.573 183.936 36.6369 186.927 36.0479C187.731 35.882 188.452 35.4326 188.962 34.7789C189.482 34.0149 189.996 33.7846 190.821 33.8644C191.352 33.9175 191.891 33.8644 192.538 33.8644C192.055 35.605 191.134 36.8673 189.708 37.7376C185.641 40.24 180.53 38.2336 179.233 33.6052C178.5 31.1144 178.654 28.4402 179.668 26.0537C180.835 23.27 183.449 21.7841 186.633 22.0254C189.654 22.2469 191.685 23.9122 192.468 26.9107C192.714 27.8585 192.734 28.8661 192.853 29.8472C192.956 30.671 192.684 31.0054 191.78 30.9855C188.921 30.9234 186.058 30.9633 183.196 30.9633L181.962 30.9744ZM182.052 28.7709H189.758C189.661 26.0249 188.32 24.4437 186.106 24.3928C183.706 24.3374 182.232 25.8964 182.052 28.7709V28.7709Z" fill="#6B82B0"/>
<path d="M110.854 22.6914C109.894 25.3687 108.996 27.8781 108.087 30.3854C107.264 32.6646 106.397 34.9287 105.62 37.2229C105.369 37.9676 104.995 38.1893 104.239 38.1763C102.025 38.1419 102.023 38.1763 101.287 36.0242C99.8976 31.978 98.5091 27.9326 97.1213 23.8879C96.9978 23.5264 96.8935 23.1584 96.7573 22.7258H99.9245C101.178 26.7913 102.432 30.8632 103.756 35.1568C104.26 33.5384 104.68 32.1287 105.142 30.7341C105.927 28.3667 106.77 26.0165 107.525 23.6318C107.757 22.8979 108.081 22.5687 108.864 22.6634C109.527 22.7092 110.191 22.7186 110.854 22.6914V22.6914Z" fill="#6B82B0"/>
<path d="M170.964 24.9706H168.524V22.6145H170.924V18.1172H173.792V22.5646H176.952V24.9229H173.819C173.819 25.7517 173.819 26.4567 173.819 27.1596C173.819 29.4962 173.838 31.8327 173.798 34.1693C173.781 35.1694 174.122 35.6445 175.133 35.5751C175.889 35.523 176.651 35.5751 177.495 35.5751V38.1394C176.033 38.1394 174.615 38.237 173.213 38.1134C171.858 37.9919 170.978 36.7705 170.966 35.1932C170.941 32.2449 170.966 29.2987 170.966 26.3504L170.964 24.9706Z" fill="#6B82B0"/>
<path d="M94.1942 38.1762H91.6311V16.8232H94.1942V38.1762Z" fill="#6B82B0"/>
<path d="M128.155 23.0188H130.765V25.485C131.621 24.7102 132.306 23.7915 133.223 23.3386C134.139 22.8857 135.312 22.8728 136.485 22.6475V25.5945C136.13 25.5945 135.757 25.5945 135.385 25.5945C132.681 25.6374 131.054 27.1872 130.988 29.9024C130.928 32.3922 130.971 34.8842 130.964 37.3762C130.964 37.6188 130.926 37.8613 130.898 38.1769H128.155V23.0188Z" fill="#6B82B0"/>
<path d="M84.5825 22.6475H87.7864V38.1769H84.5825V22.6475Z" fill="#6B82B0"/>
<path d="M84.5825 20.0585V16.8232H87.7864V20.0585H84.5825Z" fill="#6B82B0"/>
</svg>
