<svg width="28" height="28" viewBox="0 0 28 28" fill="none" xmlns="http://www.w3.org/2000/svg">
<g clip-path="url(#clip0_907_4802)">
<path d="M8.593 7.27854L8.23829 6.92237C7.88358 6.56621 7.3106 6.57534 6.96498 6.92237L6.95589 6.93151C6.60118 7.28767 6.60118 7.86301 6.95589 8.21004L7.3106 8.56621C7.6653 8.92237 8.2292 8.92237 8.5839 8.56621L8.593 8.55708C8.9477 8.21005 8.9477 7.62557 8.593 7.27854V7.27854ZM5.8281 13.0868H4.90041C4.40018 13.0868 4 13.4886 4 13.9909V14C4 14.5023 4.40018 14.9041 4.90041 14.9041H5.81901C6.32833 14.9132 6.72851 14.5114 6.72851 14.0091V14C6.72851 13.4886 6.32833 13.0868 5.8281 13.0868ZM14.0136 4H14.0045C13.4952 4 13.095 4.40183 13.095 4.90411V5.78082C13.095 6.2831 13.4952 6.68493 13.9955 6.68493H14.0045C14.5139 6.69406 14.9141 6.29224 14.9141 5.78995V4.90411C14.9141 4.40183 14.5139 4 14.0136 4V4ZM21.0532 6.93151C20.6985 6.57534 20.1255 6.57534 19.7708 6.92237L19.4161 7.27854C19.0614 7.6347 19.0614 8.21005 19.4161 8.55708L19.4252 8.56621C19.7799 8.92237 20.3529 8.92237 20.6985 8.56621L21.0532 8.21004C21.4079 7.85388 21.4079 7.28767 21.0532 6.93151V6.93151ZM19.407 20.7215L19.7617 21.0776C20.1164 21.4338 20.6894 21.4338 21.0441 21.0776C21.3988 20.7215 21.3988 20.1461 21.0441 19.79L20.6894 19.4338C20.3347 19.0776 19.7617 19.0868 19.4161 19.4338C19.0523 19.7991 19.0523 20.3653 19.407 20.7215ZM21.2806 13.9909V14C21.2806 14.5023 21.6808 14.9041 22.181 14.9041H23.0996C23.5998 14.9041 24 14.5023 24 14V13.9909C24 13.4886 23.5998 13.0868 23.0996 13.0868H22.181C21.6808 13.0868 21.2806 13.4886 21.2806 13.9909ZM14.0045 8.52055C10.9941 8.52055 8.54752 10.9772 8.54752 14C8.54752 17.0228 10.9941 19.4795 14.0045 19.4795C17.015 19.4795 19.4616 17.0228 19.4616 14C19.4616 10.9772 17.015 8.52055 14.0045 8.52055ZM13.9955 24H14.0045C14.5048 24 14.905 23.5982 14.905 23.0959V22.2192C14.905 21.7169 14.5048 21.3151 14.0045 21.3151H13.9955C13.4952 21.3151 13.095 21.7169 13.095 22.2192V23.0959C13.095 23.5982 13.4952 24 13.9955 24ZM6.95589 21.0685C7.3106 21.4247 7.88358 21.4247 8.23829 21.0685L8.593 20.7123C8.9477 20.3562 8.93861 19.7808 8.593 19.4338L8.5839 19.4247C8.2292 19.0685 7.65621 19.0685 7.3015 19.4247L6.94679 19.7808C6.60118 20.1461 6.60118 20.7123 6.95589 21.0685Z" fill="#1F1F21"/>
</g>
<defs>
<clipPath id="clip0_907_4802">
<rect width="24" height="24" fill="white" transform="translate(2 2)"/>
</clipPath>
</defs>
</svg>
