<svg width="1452" height="1452" viewBox="0 0 1452 1452" fill="none" xmlns="http://www.w3.org/2000/svg">
<g clip-path="url(#clip0_636_3230)">
<path d="M921.093 554.087L921.092 554.085C918.05 551.062 916.24 547.023 916.01 542.747C915.782 538.505 917.125 534.327 919.784 531.009C920.257 530.617 920.716 530.214 921.179 529.753L920.473 529.045L921.179 529.753L1079.24 372.109L1078.54 371.401L1079.24 372.109C1080.86 370.497 1082.78 369.219 1084.89 368.347C1087 367.475 1089.26 367.026 1091.54 367.026C1093.83 367.026 1096.09 367.475 1098.2 368.347C1100.31 369.219 1102.23 370.497 1103.85 372.109L1104.55 371.401L1103.85 372.109L1261.91 529.753L1445.82 713.175L1445.82 713.176C1449.08 716.421 1450.92 720.824 1450.93 725.418C1450.94 730.012 1449.12 734.422 1445.88 737.682C1445.88 737.682 1445.88 737.682 1445.88 737.683L1103.76 1078.92C1100.5 1082.17 1096.07 1083.99 1091.46 1083.99C1086.85 1083.99 1082.42 1082.17 1079.15 1078.92L921.093 921.274C919.477 919.663 918.196 917.751 917.322 915.646C916.448 913.541 915.998 911.285 915.998 909.007C915.998 906.729 916.448 904.474 917.322 902.369C918.196 900.264 919.477 898.352 921.093 896.741L920.387 896.033L921.093 896.741L1079.16 739.097C1080.96 737.3 1082.39 735.167 1083.36 732.819C1084.34 730.472 1084.84 727.955 1084.84 725.413C1084.84 722.872 1084.34 720.355 1083.36 718.008C1082.39 715.66 1080.96 713.527 1079.16 711.73L921.093 554.087Z" stroke="url(#paint0_radial_636_3230)" stroke-width="2"/>
</g>
<g clip-path="url(#clip1_636_3230)">
<path d="M920.088 530.907L920.086 530.908C917.063 533.95 913.024 535.76 908.748 535.99C904.506 536.218 900.328 534.875 897.01 532.216C896.618 531.743 896.215 531.284 895.754 530.821L895.046 531.527L895.754 530.821L738.11 372.759L737.402 373.465L738.11 372.758C736.498 371.143 735.22 369.225 734.348 367.114C733.475 365.003 733.027 362.74 733.027 360.455C733.027 358.17 733.475 355.907 734.348 353.796C735.22 351.685 736.498 349.767 738.11 348.152L737.402 347.445L738.11 348.152L895.754 190.089L1079.18 6.17961L1079.18 6.17876C1082.42 2.91698 1086.83 1.07994 1091.42 1.06981C1096.01 1.05968 1100.42 2.87681 1103.68 6.12358C1103.68 6.12389 1103.68 6.12419 1103.68 6.1245L1444.92 348.237C1448.17 351.503 1449.99 355.928 1449.99 360.541C1449.99 365.155 1448.17 369.579 1444.92 372.845L1287.28 530.907C1285.66 532.523 1283.75 533.804 1281.65 534.678C1279.54 535.552 1277.29 536.002 1275.01 536.002C1272.73 536.002 1270.47 535.552 1268.37 534.678C1266.27 533.804 1264.35 532.523 1262.74 530.907L1262.03 531.613L1262.74 530.907L1105.1 372.844C1103.3 371.043 1101.17 369.614 1098.82 368.639C1096.47 367.663 1093.96 367.161 1091.41 367.161C1088.87 367.161 1086.36 367.663 1084.01 368.639C1081.66 369.614 1079.53 371.043 1077.73 372.844L920.088 530.907Z" stroke="url(#paint1_linear_636_3230)" stroke-width="2"/>
</g>
<g clip-path="url(#clip2_636_3230)">
<path d="M530.912 921.093L530.914 921.092C533.937 918.05 537.976 916.24 542.252 916.01C546.494 915.782 550.672 917.125 553.99 919.784C554.382 920.257 554.785 920.716 555.246 921.179L555.954 920.473L555.246 921.179L712.89 1079.24L713.598 1078.54L712.89 1079.24C714.502 1080.86 715.78 1082.77 716.652 1084.89C717.524 1087 717.973 1089.26 717.973 1091.54C717.973 1093.83 717.524 1096.09 716.652 1098.2C715.78 1100.31 714.502 1102.23 712.89 1103.85L713.598 1104.55L712.89 1103.85L555.246 1261.91L371.824 1445.82L371.823 1445.82C368.578 1449.08 364.175 1450.92 359.581 1450.93C354.987 1450.94 350.577 1449.12 347.317 1445.88C347.317 1445.88 347.317 1445.88 347.316 1445.88L6.08172 1103.76C2.83373 1100.5 1.00945 1096.07 1.00945 1091.46C1.00945 1086.85 2.83373 1082.42 6.08172 1079.15L163.725 921.093C165.336 919.477 167.248 918.196 169.353 917.322C171.458 916.447 173.714 915.998 175.992 915.998C178.27 915.998 180.525 916.447 182.63 917.322C184.735 918.196 186.647 919.477 188.258 921.093L188.966 920.387L188.258 921.093L345.902 1079.16C347.699 1080.96 349.832 1082.39 352.18 1083.36C354.527 1084.34 357.044 1084.84 359.586 1084.84C362.127 1084.84 364.644 1084.34 366.991 1083.36C369.339 1082.39 371.472 1080.96 373.269 1079.16L530.912 921.093Z" stroke="url(#paint2_radial_636_3230)" stroke-width="2"/>
</g>
<g clip-path="url(#clip3_636_3230)">
<path d="M189.088 530.907L189.087 530.908C186.063 533.95 182.024 535.76 177.748 535.99C173.506 536.218 169.328 534.875 166.01 532.216C165.618 531.743 165.215 531.284 164.754 530.821L164.046 531.527L164.754 530.821L7.1098 372.759L6.40176 373.465L7.10974 372.758C5.49842 371.143 4.22004 369.225 3.34782 367.114C2.47562 365.003 2.02673 362.74 2.02673 360.455C2.02673 358.17 2.47562 355.907 3.34782 353.796C4.22004 351.685 5.49842 349.767 7.10974 348.152L6.40176 347.445L7.1098 348.152L164.754 190.089L348.176 6.17961L348.177 6.17876C351.422 2.91698 355.825 1.07994 360.419 1.06981C365.013 1.05968 369.423 2.87681 372.683 6.12358C372.683 6.12389 372.684 6.12419 372.684 6.1245L713.918 348.237C717.166 351.503 718.991 355.928 718.991 360.541C718.991 365.155 717.166 369.579 713.918 372.845L556.276 530.907C554.664 532.523 552.752 533.804 550.647 534.678C548.542 535.552 546.286 536.002 544.008 536.002C541.73 536.002 539.475 535.552 537.37 534.678C535.265 533.804 533.353 532.523 531.742 530.907L531.034 531.613L531.742 530.907L374.098 372.844C372.301 371.043 370.168 369.614 367.82 368.639C365.473 367.663 362.956 367.161 360.415 367.161C357.873 367.161 355.357 367.663 353.009 368.639C350.661 369.614 348.528 371.043 346.732 372.844L189.088 530.907Z" stroke="url(#paint3_linear_636_3230)" stroke-width="2"/>
</g>
<g clip-path="url(#clip4_636_3230)">
<path d="M1262.91 920.093L1262.91 920.092C1265.94 917.05 1269.98 915.24 1274.25 915.01C1278.49 914.782 1282.67 916.125 1285.99 918.784C1286.38 919.257 1286.78 919.716 1287.25 920.179L1287.95 919.473L1287.25 920.179L1444.89 1078.24L1445.6 1077.54L1444.89 1078.24C1446.5 1079.86 1447.78 1081.77 1448.65 1083.89C1449.52 1086 1449.97 1088.26 1449.97 1090.54C1449.97 1092.83 1449.52 1095.09 1448.65 1097.2C1447.78 1099.31 1446.5 1101.23 1444.89 1102.85L1445.6 1103.55L1444.89 1102.85L1287.25 1260.91L1103.82 1444.82L1103.82 1444.82C1100.58 1448.08 1096.17 1449.92 1091.58 1449.93C1086.99 1449.94 1082.58 1448.12 1079.32 1444.88C1079.32 1444.88 1079.32 1444.88 1079.32 1444.88L738.082 1102.76C734.834 1099.5 733.009 1095.07 733.009 1090.46C733.009 1085.85 734.834 1081.42 738.082 1078.15L895.725 920.093C897.336 918.477 899.248 917.196 901.353 916.322C903.458 915.447 905.714 914.998 907.992 914.998C910.27 914.998 912.525 915.447 914.63 916.322C916.735 917.196 918.647 918.477 920.258 920.093L920.966 919.387L920.258 920.093L1077.9 1078.16C1079.7 1079.96 1081.83 1081.39 1084.18 1082.36C1086.53 1083.34 1089.04 1083.84 1091.59 1083.84C1094.13 1083.84 1096.64 1083.34 1098.99 1082.36C1101.34 1081.39 1103.47 1079.96 1105.27 1078.16L1262.91 920.093Z" stroke="url(#paint4_diamond_636_3230)" stroke-width="2"/>
</g>
<g clip-path="url(#clip5_636_3230)">
<path d="M190.093 554.087L190.092 554.085C187.051 551.062 185.24 547.023 185.01 542.747C184.782 538.505 186.126 534.327 188.784 531.009C189.258 530.617 189.717 530.214 190.18 529.753L189.473 529.045L190.18 529.753L348.242 372.109L347.536 371.401L348.242 372.109C349.857 370.497 351.775 369.219 353.886 368.347C355.997 367.475 358.26 367.026 360.545 367.026C362.83 367.026 365.093 367.475 367.204 368.347C369.315 369.219 371.233 370.497 372.849 372.109L373.555 371.401L372.849 372.109L530.911 529.753L714.821 713.175L714.822 713.176C718.083 716.421 719.92 720.824 719.931 725.418C719.941 730.012 718.124 734.422 714.877 737.682C714.876 737.682 714.876 737.682 714.876 737.683L372.764 1078.92C369.498 1082.17 365.073 1083.99 360.459 1083.99C355.846 1083.99 351.421 1082.17 348.155 1078.92L190.093 921.274C188.478 919.663 187.196 917.751 186.322 915.646C185.448 913.541 184.998 911.285 184.998 909.007C184.998 906.729 185.448 904.474 186.322 902.369C187.196 900.264 188.478 898.352 190.093 896.741L189.387 896.033L190.093 896.741L348.156 739.097C349.958 737.3 351.387 735.167 352.362 732.819C353.337 730.472 353.839 727.955 353.839 725.413C353.839 722.872 353.337 720.355 352.362 718.008C351.387 715.66 349.958 713.527 348.156 711.73L190.093 554.087Z" stroke="url(#paint5_linear_636_3230)" stroke-width="2"/>
</g>
<g clip-path="url(#clip6_636_3230)">
<path d="M555.093 554.087L555.092 554.085C552.05 551.062 550.24 547.023 550.01 542.747C549.782 538.505 551.125 534.327 553.784 531.009C554.257 530.617 554.717 530.214 555.179 529.753L554.473 529.045L555.179 529.753L713.242 372.109L712.535 371.401L713.242 372.109C714.857 370.497 716.775 369.219 718.886 368.347C720.997 367.475 723.26 367.026 725.545 367.026C727.83 367.026 730.093 367.475 732.204 368.347C734.315 369.219 736.233 370.497 737.848 372.109L738.555 371.401L737.848 372.109L895.911 529.753L1079.82 713.175L1079.82 713.176C1083.08 716.421 1084.92 720.824 1084.93 725.418C1084.94 730.012 1083.12 734.422 1079.88 737.682C1079.88 737.682 1079.88 737.682 1079.88 737.683L737.763 1078.92C734.497 1082.17 730.072 1083.99 725.459 1083.99C720.846 1083.99 716.421 1082.17 713.155 1078.92L555.093 921.274C553.478 919.663 552.196 917.751 551.322 915.646C550.448 913.541 549.998 911.285 549.998 909.007C549.998 906.729 550.448 904.474 551.322 902.369C552.196 900.264 553.478 898.352 555.093 896.741L554.387 896.033L555.093 896.741L713.156 739.097C714.957 737.3 716.386 735.167 717.362 732.819C718.337 730.472 718.839 727.955 718.839 725.413C718.839 722.872 718.337 720.355 717.362 718.008C716.386 715.66 714.957 713.527 713.156 711.73L555.093 554.087Z" fill="#0052FF" stroke="#0052FF" stroke-width="2"/>
</g>
<g filter="url(#filter0_f_636_3230)">
<circle cx="795.5" cy="706.499" r="284.5" fill="url(#paint6_radial_636_3230)"/>
</g>
<defs>
<filter id="filter0_f_636_3230" x="271" y="181.999" width="1049" height="1049" filterUnits="userSpaceOnUse" color-interpolation-filters="sRGB">
<feFlood flood-opacity="0" result="BackgroundImageFix"/>
<feBlend mode="normal" in="SourceGraphic" in2="BackgroundImageFix" result="shape"/>
<feGaussianBlur stdDeviation="120" result="effect1_foregroundBlur_636_3230"/>
</filter>
<radialGradient id="paint0_radial_636_3230" cx="0" cy="0" r="1" gradientUnits="userSpaceOnUse" gradientTransform="translate(1130.5 725.999) scale(305.5)">
<stop stop-color="#0052FF"/>
<stop offset="1" stop-color="#0052FF" stop-opacity="0"/>
</radialGradient>
<linearGradient id="paint1_linear_636_3230" x1="1177.5" y1="278" x2="1060.5" y2="711" gradientUnits="userSpaceOnUse">
<stop stop-color="#0052FF" stop-opacity="0"/>
<stop offset="1" stop-color="#0052FF"/>
</linearGradient>
<radialGradient id="paint2_radial_636_3230" cx="0" cy="0" r="1" gradientUnits="userSpaceOnUse" gradientTransform="translate(520 887.499) rotate(120.16) scale(470.724 351.552)">
<stop stop-color="#0052FF"/>
<stop offset="1" stop-color="#0052FF" stop-opacity="0"/>
</radialGradient>
<linearGradient id="paint3_linear_636_3230" x1="335.5" y1="202.5" x2="563.5" y2="686" gradientUnits="userSpaceOnUse">
<stop stop-color="#0052FF" stop-opacity="0"/>
<stop offset="1" stop-color="#0052FF"/>
</linearGradient>
<radialGradient id="paint4_diamond_636_3230" cx="0" cy="0" r="1" gradientUnits="userSpaceOnUse" gradientTransform="translate(891 884.999) rotate(1.67975) scale(511.72 436.998)">
<stop stop-color="#0052FF"/>
<stop offset="1" stop-color="#0052FF" stop-opacity="0"/>
</radialGradient>
<linearGradient id="paint5_linear_636_3230" x1="770" y1="663.999" x2="252.5" y2="770.999" gradientUnits="userSpaceOnUse">
<stop stop-color="#0052FF"/>
<stop offset="1" stop-color="#0052FF" stop-opacity="0"/>
</linearGradient>
<radialGradient id="paint6_radial_636_3230" cx="0" cy="0" r="1" gradientUnits="userSpaceOnUse" gradientTransform="translate(795.5 706.499) rotate(90) scale(284.5)">
<stop stop-color="#0251FA"/>
<stop offset="1" stop-color="#0052FF" stop-opacity="0"/>
</radialGradient>
<clipPath id="clip0_636_3230">
<rect width="537" height="719" fill="white" transform="translate(915 365.999)"/>
</clipPath>
<clipPath id="clip1_636_3230">
<rect width="537" height="719" fill="white" transform="translate(732 537) rotate(-90)"/>
</clipPath>
<clipPath id="clip2_636_3230">
<rect width="537" height="719" fill="white" transform="translate(719 915) rotate(90)"/>
</clipPath>
<clipPath id="clip3_636_3230">
<rect width="537" height="719" fill="white" transform="translate(1.00012 537) rotate(-90)"/>
</clipPath>
<clipPath id="clip4_636_3230">
<rect width="537" height="719" fill="white" transform="translate(1451 914) rotate(90)"/>
</clipPath>
<clipPath id="clip5_636_3230">
<rect width="537" height="719" fill="white" transform="translate(184 365.999)"/>
</clipPath>
<clipPath id="clip6_636_3230">
<rect width="537" height="719" fill="white" transform="translate(549 365.999)"/>
</clipPath>
</defs>
</svg>
