<svg width="94" height="94" viewBox="0 0 94 94" fill="none" xmlns="http://www.w3.org/2000/svg">
<circle r="31.5" transform="matrix(1 0 0 -1 47 47)" stroke="#DAEBFF"/>
<g filter="url(#filter0_d_240_750)">
<path d="M70.3261 41.4472L69.9583 41.7069C68.6702 42.6221 67.7845 43.8125 67.5823 45.4143C67.3426 47.3201 67.7267 49.0589 69.1227 50.4704C69.6217 50.971 70.2034 51.3809 70.8421 51.6821C71.0116 51.7632 71.0289 51.8481 70.9711 52.0142C70.3935 53.668 69.5271 55.1577 68.4844 56.5519C68.0608 57.1176 67.6179 57.6641 67.0557 58.0966C66.3048 58.6759 65.4566 58.8873 64.5459 58.6904C63.9018 58.5504 63.2779 58.3129 62.6551 58.0898C61.8993 57.8195 61.1349 57.6563 60.3262 57.7481C59.6956 57.8195 59.1074 58.0377 58.5153 58.2482C58.0522 58.4133 57.5863 58.5697 57.1135 58.7029C56.3145 58.9279 55.5915 58.7155 54.9137 58.2771C54.3255 57.8967 53.8547 57.3947 53.4157 56.856C51.9716 55.0747 50.8895 53.1013 50.256 50.8894C49.8189 49.3592 49.557 47.7999 49.6264 46.205C49.7226 44.0684 50.3812 42.15 51.9437 40.6371C53.2771 39.3511 54.8752 38.6937 56.7573 38.9273C57.6604 39.0383 58.5018 39.3782 59.3288 39.7393C59.6694 39.8979 60.0398 39.9819 60.4153 39.9858C60.7908 39.9896 61.1628 39.9132 61.5065 39.7615C62.2786 39.4495 63.07 39.1879 63.8758 38.9785C64.98 38.6888 66.0843 38.8056 67.1703 39.1358C68.2562 39.466 69.1708 40.0048 69.9035 40.866C70.0229 41.006 70.1268 41.1556 70.2375 41.3081C70.2635 41.3429 70.2857 41.3844 70.3261 41.4472Z" fill="#9EC5FF"/>
<path d="M65.5518 32.4722C65.6229 33.1252 65.567 33.7859 65.3872 34.4176C64.9653 35.8971 64.0091 37.1661 62.7051 37.9772C61.9811 38.4406 61.1647 38.5913 60.3136 38.5198C59.9651 35.6485 62.4903 32.7126 65.5518 32.4722Z" fill="#9EC5FF"/>
<path d="M27.3785 41.2385H40.4814C40.4814 41.3158 40.492 41.3872 40.492 41.4596C40.492 44.9939 40.492 48.5288 40.492 52.0643C40.4964 52.2011 40.4867 52.3379 40.4631 52.4727C40.4203 52.6966 40.3017 52.8989 40.1273 53.0453C39.9529 53.1916 39.7335 53.2731 39.5061 53.276C39.1788 53.2895 38.8514 53.2895 38.5241 53.276C38.3499 53.2702 38.3056 53.3329 38.3065 53.499C38.3123 54.6575 38.3065 55.8238 38.3065 56.9862C38.3065 57.4477 38.192 57.8677 37.8675 58.2075C37.4179 58.6777 36.8769 58.892 36.2376 58.6903C35.5685 58.4827 35.1632 58.0144 35.0506 57.3154C35.0311 57.1734 35.0228 57.0301 35.0255 56.8868C35.0255 55.7582 35.0255 54.6305 35.0255 53.5019C35.0255 53.3223 34.9774 53.2682 34.7954 53.2721C34.2236 53.2837 33.6508 53.2856 33.0779 53.2721C32.8709 53.2673 32.8315 53.3397 32.8334 53.5289C32.8411 54.6875 32.8334 55.8402 32.8334 56.9959C32.8334 57.7084 32.533 58.251 31.9005 58.5831C30.9445 59.0909 29.6862 58.4074 29.5794 57.328C29.562 57.1581 29.5543 56.9872 29.5534 56.8163C29.5534 55.7224 29.5466 54.6286 29.5534 53.5337C29.5534 53.3204 29.4908 53.2644 29.2867 53.275C28.9815 53.2904 28.6734 53.2856 28.3673 53.275C28.1046 53.274 27.8528 53.1693 27.6665 52.9835C27.4802 52.7978 27.3743 52.5459 27.3718 52.2825C27.3718 52.1859 27.366 52.0894 27.366 51.9928C27.366 48.4908 27.366 44.9897 27.366 41.4896L27.3785 41.2385Z" fill="#9EC5FF"/>
<path d="M40.5016 40.1186H27.3882C27.3796 39.0894 27.6226 38.0738 28.0958 37.1604C28.5658 36.2343 29.2612 35.442 30.1175 34.8569C29.7873 34.5286 29.4773 34.2235 29.1702 33.9146C28.991 33.7468 28.8213 33.5692 28.6619 33.3826C28.6084 33.3177 28.5712 33.2409 28.5535 33.1586C28.5358 33.0763 28.538 32.9909 28.5599 32.9097C28.5819 32.8284 28.623 32.7537 28.6798 32.6916C28.7366 32.6296 28.8073 32.5822 28.8862 32.5532C29.122 32.4567 29.3146 32.5417 29.4831 32.7C29.6756 32.8776 29.8518 33.064 30.0357 33.2474C30.3149 33.5274 30.5969 33.8055 30.8732 34.0893C30.9014 34.1313 30.9444 34.161 30.9936 34.1723C31.0428 34.1836 31.0944 34.1757 31.138 34.1501C31.9936 33.7505 32.9274 33.5474 33.8712 33.5554C34.8128 33.5487 35.7351 33.6819 36.5957 34.0893C36.8152 34.1936 36.95 34.1733 37.1185 33.9928C37.5229 33.5583 37.9503 33.1451 38.3701 32.729C38.6156 32.4886 38.838 32.4509 39.0681 32.5909C39.3569 32.7715 39.4387 33.1113 39.223 33.3816C39.0636 33.5683 38.8939 33.7459 38.7147 33.9136C38.4066 34.2216 38.0967 34.5257 37.7703 34.8482C39.5513 36.1612 40.4294 37.9164 40.5016 40.1186ZM31.2092 38.2051C31.3168 38.2043 31.4231 38.1821 31.522 38.1398C31.6209 38.0975 31.7104 38.0358 31.7853 37.9585C31.8602 37.8811 31.919 37.7896 31.9583 37.6892C31.9975 37.5888 32.0165 37.4816 32.0141 37.3738C32.0108 37.1595 31.9239 36.9551 31.772 36.8044C31.62 36.6536 31.4153 36.5686 31.2016 36.5677C30.9844 36.5687 30.7766 36.6561 30.6237 36.8107C30.4708 36.9653 30.3853 37.1744 30.3861 37.3922C30.3863 37.5 30.4079 37.6066 30.4495 37.706C30.4911 37.8054 30.5519 37.8955 30.6285 37.9712C30.705 38.0469 30.7957 38.1066 30.8954 38.1469C30.9951 38.1872 31.1018 38.2073 31.2092 38.206V38.2051ZM36.6747 38.2051C36.7822 38.205 36.8886 38.1834 36.9878 38.1418C37.087 38.1001 37.1769 38.0391 37.2524 37.9623C37.3279 37.8855 37.3874 37.7945 37.4276 37.6945C37.4677 37.5945 37.4877 37.4874 37.4863 37.3796C37.4838 37.1656 37.3981 36.9611 37.2473 36.8096C37.0966 36.6581 36.8929 36.5716 36.6795 36.5686C36.572 36.5679 36.4654 36.5884 36.3659 36.6291C36.2664 36.6698 36.1758 36.7298 36.0995 36.8057C36.0232 36.8816 35.9626 36.9719 35.9212 37.0714C35.8798 37.1709 35.8584 37.2776 35.8583 37.3854C35.8573 37.4933 35.8777 37.6003 35.9183 37.7002C35.959 37.8001 36.019 37.8909 36.095 37.9673C36.171 38.0437 36.2614 38.1041 36.3609 38.1451C36.4604 38.1861 36.5671 38.2068 36.6747 38.206V38.2051Z" fill="#9EC5FF"/>
<path d="M41.5923 46.6887C41.5923 45.4452 41.5875 44.2016 41.5923 42.9572C41.5923 42.0709 42.1969 41.3593 43.0181 41.2464C43.9914 41.1122 44.8579 41.9 44.8685 42.9427C44.8772 43.941 44.8685 44.9383 44.8685 45.9356C44.8685 47.4321 44.8685 48.9289 44.8685 50.426C44.8685 51.2254 44.4314 51.8568 43.7257 52.0972C42.7813 52.4177 41.7213 51.7429 41.6077 50.7456C41.5923 50.5825 41.5855 50.4188 41.5875 50.2551C41.5894 49.067 41.591 47.8781 41.5923 46.6887Z" fill="#3D3D3D"/>
<path d="M26.28 46.7108C26.28 47.9553 26.28 49.1988 26.28 50.4423C26.28 51.2417 25.8391 51.8635 25.1247 52.1029C24.2227 52.4051 23.1897 51.7776 23.0404 50.8324C23.0164 50.6911 23.0038 50.548 23.0029 50.4047C23.0029 47.9382 23.0029 45.4711 23.0029 43.0034C23.0029 42.1799 23.4448 41.5455 24.1707 41.31C25.1016 41.0088 26.1433 41.6749 26.2579 42.653C26.2776 42.8567 26.2853 43.0614 26.281 43.266C26.2816 44.4149 26.2813 45.5632 26.28 46.7108Z" fill="#9EC5FF"/>
<path d="M31.2093 38.206C31.1019 38.2073 30.9953 38.1872 30.8957 38.147C30.796 38.1067 30.7053 38.0471 30.6288 37.9715C30.5523 37.896 30.4914 37.8059 30.4498 37.7067C30.4081 37.6074 30.3865 37.5008 30.3861 37.3931C30.3853 37.1754 30.4708 36.9662 30.6237 36.8116C30.7766 36.657 30.9844 36.5696 31.2016 36.5686C31.4153 36.5696 31.6201 36.6546 31.772 36.8053C31.9239 36.956 32.0108 37.1605 32.0141 37.3748C32.0165 37.4826 31.9976 37.5898 31.9583 37.6902C31.919 37.7905 31.8602 37.8821 31.7853 37.9594C31.7104 38.0368 31.6209 38.0984 31.522 38.1408C31.4231 38.1831 31.3168 38.2053 31.2093 38.206Z" fill="white"/>
<path d="M36.6747 38.2061C36.5672 38.2068 36.4606 38.1862 36.3612 38.1452C36.2617 38.1043 36.1713 38.0439 36.0954 37.9676C36.0194 37.8914 35.9593 37.8007 35.9186 37.7009C35.8779 37.6011 35.8574 37.4942 35.8583 37.3864C35.8584 37.2786 35.8798 37.1719 35.9212 37.0724C35.9626 36.9729 36.0232 36.8826 36.0995 36.8067C36.1758 36.7308 36.2664 36.6708 36.3659 36.6301C36.4654 36.5894 36.572 36.5688 36.6795 36.5696C36.8929 36.5726 37.0966 36.6591 37.2474 36.8106C37.3981 36.9621 37.4838 37.1666 37.4863 37.3806C37.4877 37.4884 37.4677 37.5954 37.4276 37.6955C37.3874 37.7955 37.3279 37.8865 37.2524 37.9633C37.1769 38.0401 37.087 38.1011 36.9878 38.1427C36.8887 38.1844 36.7822 38.2059 36.6747 38.2061Z" fill="white"/>
<path d="M55.9255 24.5448H38.2526C36.5777 24.5448 35.22 25.9064 35.22 27.586V66.4141C35.22 68.0937 36.5777 69.4553 38.2526 69.4553H55.9255C57.6004 69.4553 58.9581 68.0937 58.9581 66.4141V27.586C58.9581 25.9064 57.6004 24.5448 55.9255 24.5448Z" fill="white"/>
<path d="M55.9255 23H38.2526C37.0403 23.0015 35.878 23.4852 35.0207 24.3449C34.1634 25.2046 33.6812 26.3702 33.6796 27.586V66.414C33.6812 67.6298 34.1634 68.7954 35.0207 69.6551C35.878 70.5148 37.0403 70.9985 38.2526 71H55.9255C57.1379 70.9985 58.3001 70.5148 59.1574 69.6551C60.0147 68.7954 60.497 67.6298 60.4985 66.414V27.586C60.497 26.3702 60.0147 25.2046 59.1574 24.3449C58.3001 23.4852 57.1379 23.0015 55.9255 23ZM57.4177 66.414C57.4175 66.8108 57.2602 67.1913 56.9804 67.4719C56.7006 67.7525 56.3212 67.9102 55.9255 67.9105H38.2526C37.8569 67.9102 37.4775 67.7525 37.1977 67.4719C36.9179 67.1913 36.7606 66.8108 36.7604 66.414V27.586C36.7606 27.1891 36.9179 26.8087 37.1977 26.5281C37.4775 26.2475 37.8569 26.0897 38.2526 26.0895H41.7281C41.8326 26.8513 42.2085 27.5496 42.7862 28.0553C43.3639 28.561 44.1046 28.8401 44.8714 28.8411H49.3077C50.0745 28.8401 50.8152 28.561 51.3929 28.0553C51.9706 27.5496 52.3464 26.8513 52.451 26.0895H55.9255C56.3212 26.0897 56.7006 26.2475 56.9804 26.5281C57.2602 26.8087 57.4175 27.1891 57.4177 27.586V66.414Z" fill="#0052FF"/>
<path d="M43.6256 48.998L42.0255 47.3924L40.4707 48.9516L39.1768 47.655L42.0255 44.7982L43.6256 46.4038L46.6419 43.379L49.6302 46.3758L53.7988 42.1953L55.0918 43.4929L49.6302 48.97L46.6419 45.9732L43.6256 48.998Z" fill="#0052FF"/>
</g>
<defs>
<filter id="filter0_d_240_750" x="13" y="20" width="68.001" height="68" filterUnits="userSpaceOnUse" color-interpolation-filters="sRGB">
<feFlood flood-opacity="0" result="BackgroundImageFix"/>
<feColorMatrix in="SourceAlpha" type="matrix" values="0 0 0 0 0 0 0 0 0 0 0 0 0 0 0 0 0 0 127 0" result="hardAlpha"/>
<feOffset dy="7"/>
<feGaussianBlur stdDeviation="5"/>
<feComposite in2="hardAlpha" operator="out"/>
<feColorMatrix type="matrix" values="0 0 0 0 0.278431 0 0 0 0 0.509804 0 0 0 0 1 0 0 0 0.25 0"/>
<feBlend mode="normal" in2="BackgroundImageFix" result="effect1_dropShadow_240_750"/>
<feBlend mode="normal" in="SourceGraphic" in2="effect1_dropShadow_240_750" result="shape"/>
</filter>
</defs>
</svg>
