<svg width="231" height="496" viewBox="0 0 231 496" fill="none" xmlns="http://www.w3.org/2000/svg">
<path d="M215 0H16C7.16344 0 0 7.16344 0 16V479.88C0 488.717 7.16344 495.88 16 495.88H215C223.837 495.88 231 488.717 231 479.88V16C231 7.16344 223.837 0 215 0Z" fill="#131313"/>
<path d="M221.144 129.36H9.85609C8.49526 129.36 7.39209 130.463 7.39209 131.824V222.992C7.39209 224.353 8.49526 225.456 9.85609 225.456H221.144C222.505 225.456 223.608 224.353 223.608 222.992V131.824C223.608 130.463 222.505 129.36 221.144 129.36Z" fill="#242424"/>
<path d="M29.5682 166.32C37.7332 166.32 44.3522 159.701 44.3522 151.536C44.3522 143.371 37.7332 136.752 29.5682 136.752C21.4032 136.752 14.7842 143.371 14.7842 151.536C14.7842 159.701 21.4032 166.32 29.5682 166.32Z" fill="#F7931A"/>
<path d="M36.2113 149.706C36.5013 147.77 35.0253 146.728 33.0093 146.033L33.6633 143.409L32.0663 143.012L31.4293 145.567C31.0093 145.462 30.5793 145.364 30.1493 145.266L30.7913 142.694L29.1953 142.296L28.5413 144.919C28.1933 144.84 27.8513 144.762 27.5203 144.679L27.5223 144.671L25.3193 144.121L24.8943 145.827C24.8943 145.827 26.0803 146.098 26.0553 146.115C26.7023 146.276 26.8183 146.704 26.7993 147.044L26.0543 150.033C26.0983 150.045 26.1563 150.061 26.2203 150.086L26.0513 150.045L25.0073 154.232C24.9283 154.428 24.7273 154.723 24.2743 154.611C24.2913 154.634 23.1143 154.322 23.1143 154.322L22.3213 156.149L24.4003 156.668C24.7863 156.765 25.1653 156.866 25.5383 156.962L24.8773 159.615L26.4733 160.013L27.1273 157.389C27.5633 157.506 27.9863 157.615 28.4003 157.718L27.7483 160.331L29.3443 160.729L30.0053 158.081C32.7293 158.596 34.7773 158.388 35.6393 155.925C36.3343 153.942 35.6043 152.797 34.1713 152.051C35.2153 151.811 36.0013 151.125 36.2113 149.706ZM32.5613 154.823C32.0683 156.807 28.7283 155.735 27.6453 155.466L28.5233 151.95C29.6063 152.221 33.0773 152.756 32.5613 154.823ZM33.0553 149.678C32.6053 151.482 29.8263 150.565 28.9253 150.34L29.7203 147.152C30.6203 147.377 33.5253 147.796 33.0553 149.678Z" fill="white"/>
<path d="M56.1943 155.036V147.274H59.3103C60.1153 147.274 60.7293 147.463 61.1503 147.84C61.5793 148.209 61.7933 148.686 61.7933 149.27C61.7933 149.758 61.6603 150.15 61.3943 150.446C61.1363 150.734 60.8183 150.93 60.4413 151.033C60.8843 151.122 61.2503 151.344 61.5383 151.699C61.8273 152.046 61.9713 152.453 61.9713 152.918C61.9713 153.532 61.7493 154.038 61.3063 154.437C60.8623 154.836 60.2343 155.036 59.4213 155.036H56.1943ZM57.6133 150.534H59.0993C59.4983 150.534 59.8053 150.442 60.0193 150.257C60.2343 150.072 60.3413 149.81 60.3413 149.47C60.3413 149.145 60.2343 148.89 60.0193 148.705C59.8123 148.513 59.4983 148.416 59.0773 148.416H57.6133V150.534ZM57.6133 153.883H59.1993C59.6203 153.883 59.9453 153.787 60.1753 153.595C60.4113 153.395 60.5293 153.118 60.5293 152.763C60.5293 152.401 60.4073 152.116 60.1633 151.909C59.9203 151.702 59.5913 151.599 59.1773 151.599H57.6133V153.883ZM63.7733 148.683C63.5143 148.683 63.3003 148.605 63.1303 148.45C62.9673 148.295 62.8863 148.099 62.8863 147.862C62.8863 147.626 62.9673 147.433 63.1303 147.285C63.3003 147.13 63.5143 147.053 63.7733 147.053C64.0323 147.053 64.2423 147.13 64.4053 147.285C64.5753 147.433 64.6603 147.626 64.6603 147.862C64.6603 148.099 64.5753 148.295 64.4053 148.45C64.2423 148.605 64.0323 148.683 63.7733 148.683ZM63.0633 155.036V149.536H64.4833V155.036H63.0633ZM68.2673 155.036C67.6903 155.036 67.2283 154.896 66.8813 154.615C66.5333 154.334 66.3593 153.835 66.3593 153.118V150.723H65.4173V149.536H66.3593L66.5263 148.062H67.7793V149.536H69.2643V150.723H67.7793V153.129C67.7793 153.395 67.8343 153.58 67.9453 153.683C68.0633 153.779 68.2633 153.827 68.5443 153.827H69.2313V155.036H68.2673ZM72.8893 155.169C72.3273 155.169 71.8323 155.047 71.4033 154.803C70.9743 154.559 70.6343 154.219 70.3833 153.783C70.1393 153.347 70.0173 152.848 70.0173 152.286C70.0173 151.724 70.1393 151.225 70.3833 150.789C70.6343 150.353 70.9743 150.013 71.4033 149.769C71.8323 149.525 72.3273 149.403 72.8893 149.403C73.5913 149.403 74.1823 149.588 74.6633 149.958C75.1433 150.32 75.4503 150.823 75.5833 151.466H74.0863C74.0123 151.2 73.8653 150.993 73.6433 150.845C73.4283 150.69 73.1733 150.612 72.8783 150.612C72.4863 150.612 72.1533 150.76 71.8803 151.055C71.6063 151.351 71.4703 151.761 71.4703 152.286C71.4703 152.811 71.6063 153.221 71.8803 153.517C72.1533 153.813 72.4863 153.96 72.8783 153.96C73.1733 153.96 73.4283 153.887 73.6433 153.739C73.8653 153.591 74.0123 153.38 74.0863 153.107H75.5833C75.4503 153.728 75.1433 154.227 74.6633 154.604C74.1823 154.981 73.5913 155.169 72.8893 155.169ZM79.3343 155.169C78.8023 155.169 78.3213 155.047 77.8933 154.803C77.4713 154.559 77.1353 154.223 76.8843 153.794C76.6403 153.358 76.5183 152.855 76.5183 152.286C76.5183 151.717 76.6433 151.218 76.8953 150.789C77.1463 150.353 77.4823 150.013 77.9043 149.769C78.3323 149.525 78.8133 149.403 79.3453 149.403C79.8703 149.403 80.3433 149.525 80.7643 149.769C81.1933 150.013 81.5293 150.353 81.7733 150.789C82.0253 151.218 82.1503 151.717 82.1503 152.286C82.1503 152.855 82.0253 153.358 81.7733 153.794C81.5293 154.223 81.1933 154.559 80.7643 154.803C80.3363 155.047 79.8593 155.169 79.3343 155.169ZM79.3343 153.938C79.7043 153.938 80.0253 153.802 80.2993 153.528C80.5723 153.247 80.7093 152.833 80.7093 152.286C80.7093 151.739 80.5723 151.329 80.2993 151.055C80.0253 150.775 79.7073 150.634 79.3453 150.634C78.9683 150.634 78.6433 150.775 78.3693 151.055C78.1033 151.329 77.9703 151.739 77.9703 152.286C77.9703 152.833 78.1033 153.247 78.3693 153.528C78.6433 153.802 78.9643 153.938 79.3343 153.938ZM84.0373 148.683C83.7783 148.683 83.5633 148.605 83.3933 148.45C83.2313 148.295 83.1493 148.099 83.1493 147.862C83.1493 147.626 83.2313 147.433 83.3933 147.285C83.5633 147.13 83.7783 147.053 84.0373 147.053C84.2953 147.053 84.5063 147.13 84.6693 147.285C84.8393 147.433 84.9243 147.626 84.9243 147.862C84.9243 148.099 84.8393 148.295 84.6693 148.45C84.5063 148.605 84.2953 148.683 84.0373 148.683ZM83.3273 155.036V149.536H84.7463V155.036H83.3273ZM86.0803 155.036V149.536H87.3333L87.4443 150.468C87.6143 150.143 87.8573 149.884 88.1753 149.692C88.5013 149.499 88.8813 149.403 89.3173 149.403C89.9973 149.403 90.5263 149.618 90.9033 150.046C91.2803 150.475 91.4683 151.103 91.4683 151.931V155.036H90.0493V152.064C90.0493 151.591 89.9533 151.229 89.7613 150.978C89.5693 150.726 89.2693 150.601 88.8633 150.601C88.4643 150.601 88.1353 150.741 87.8763 151.022C87.6253 151.303 87.4993 151.695 87.4993 152.197V155.036H86.0803Z" fill="white"/>
<path d="M143.331 146.87C142.694 146.87 142.148 146.722 141.695 146.427C141.241 146.124 140.89 145.707 140.64 145.175C140.397 144.636 140.276 144.012 140.276 143.302C140.276 142.599 140.397 141.978 140.64 141.44C140.89 140.901 141.241 140.484 141.695 140.188C142.148 139.886 142.694 139.734 143.331 139.734C143.968 139.734 144.514 139.886 144.967 140.188C145.42 140.484 145.769 140.901 146.012 141.44C146.261 141.978 146.386 142.599 146.386 143.302C146.386 144.012 146.261 144.636 146.012 145.175C145.769 145.707 145.42 146.124 144.967 146.427C144.514 146.722 143.968 146.87 143.331 146.87ZM143.331 145.737C143.85 145.737 144.274 145.52 144.602 145.086C144.931 144.653 145.095 144.058 145.095 143.302C145.095 142.547 144.931 141.952 144.602 141.518C144.274 141.085 143.85 140.868 143.331 140.868C142.805 140.868 142.378 141.085 142.05 141.518C141.728 141.952 141.567 142.547 141.567 143.302C141.567 144.058 141.728 144.653 142.05 145.086C142.378 145.52 142.805 145.737 143.331 145.737ZM147.617 146.821C147.387 146.821 147.197 146.749 147.046 146.604C146.901 146.46 146.829 146.285 146.829 146.082C146.829 145.871 146.901 145.694 147.046 145.55C147.197 145.405 147.387 145.333 147.617 145.333C147.847 145.333 148.035 145.405 148.179 145.55C148.33 145.694 148.406 145.871 148.406 146.082C148.406 146.285 148.33 146.46 148.179 146.604C148.035 146.749 147.847 146.821 147.617 146.821ZM149.305 146.752V145.835C149.726 145.487 150.133 145.142 150.527 144.8C150.928 144.459 151.283 144.12 151.592 143.785C151.907 143.45 152.157 143.125 152.341 142.81C152.531 142.488 152.627 142.175 152.627 141.873C152.627 141.591 152.548 141.341 152.39 141.124C152.239 140.907 151.986 140.799 151.631 140.799C151.27 140.799 150.997 140.917 150.813 141.154C150.629 141.39 150.537 141.676 150.537 142.011H149.315C149.328 141.505 149.44 141.085 149.65 140.75C149.86 140.408 150.14 140.155 150.488 139.991C150.836 139.82 151.227 139.734 151.661 139.734C152.364 139.734 152.909 139.928 153.297 140.316C153.691 140.697 153.888 141.193 153.888 141.804C153.888 142.185 153.799 142.557 153.622 142.918C153.451 143.279 153.225 143.628 152.942 143.963C152.659 144.298 152.354 144.613 152.025 144.909C151.697 145.198 151.378 145.467 151.069 145.717H154.056V146.752H149.305ZM157.577 146.87C157.071 146.87 156.634 146.782 156.266 146.604C155.905 146.427 155.619 146.184 155.409 145.875C155.205 145.559 155.087 145.205 155.054 144.81H156.286C156.345 145.093 156.49 145.329 156.72 145.52C156.95 145.704 157.236 145.796 157.577 145.796C157.945 145.796 158.244 145.661 158.474 145.392C158.711 145.122 158.829 144.787 158.829 144.387C158.829 143.973 158.711 143.644 158.474 143.401C158.244 143.158 157.952 143.036 157.597 143.036C157.301 143.036 157.045 143.109 156.828 143.253C156.611 143.398 156.457 143.578 156.365 143.795H155.153L155.744 139.853H159.568V140.957H156.69L156.375 142.553C156.519 142.396 156.716 142.267 156.966 142.169C157.216 142.064 157.495 142.011 157.804 142.011C158.297 142.011 158.707 142.123 159.036 142.346C159.364 142.563 159.614 142.852 159.785 143.214C159.956 143.568 160.041 143.956 160.041 144.377C160.041 144.856 159.936 145.283 159.726 145.658C159.522 146.032 159.233 146.328 158.858 146.545C158.491 146.762 158.063 146.87 157.577 146.87ZM164.369 146.752V145.471H160.969V144.465L164.202 139.853H165.631V144.377H166.537V145.471H165.631V146.752H164.369ZM162.319 144.377H164.448V141.242L162.319 144.377ZM170.121 146.87C169.602 146.87 169.165 146.775 168.81 146.584C168.456 146.394 168.17 146.138 167.953 145.816C167.736 145.494 167.578 145.136 167.48 144.741C167.388 144.347 167.342 143.943 167.342 143.529C167.342 142.76 167.45 142.093 167.667 141.528C167.884 140.957 168.196 140.516 168.604 140.208C169.011 139.892 169.504 139.734 170.082 139.734C170.555 139.734 170.956 139.83 171.284 140.02C171.619 140.204 171.879 140.447 172.063 140.75C172.247 141.052 172.355 141.377 172.388 141.725H171.215C171.156 141.423 171.028 141.19 170.831 141.026C170.634 140.861 170.381 140.779 170.072 140.779C169.632 140.779 169.277 140.983 169.008 141.39C168.738 141.791 168.594 142.405 168.574 143.233C168.732 142.964 168.968 142.741 169.284 142.563C169.599 142.386 169.95 142.297 170.338 142.297C170.719 142.297 171.077 142.389 171.412 142.573C171.748 142.757 172.017 143.017 172.221 143.352C172.431 143.687 172.536 144.081 172.536 144.534C172.536 144.948 172.434 145.333 172.231 145.688C172.033 146.042 171.751 146.328 171.383 146.545C171.022 146.762 170.601 146.87 170.121 146.87ZM170.052 145.786C170.42 145.786 170.723 145.674 170.959 145.451C171.202 145.221 171.324 144.932 171.324 144.584C171.324 144.216 171.202 143.92 170.959 143.697C170.716 143.473 170.407 143.361 170.033 143.361C169.79 143.361 169.569 143.417 169.372 143.529C169.182 143.634 169.031 143.779 168.919 143.963C168.807 144.14 168.751 144.341 168.751 144.564C168.751 144.919 168.873 145.211 169.116 145.441C169.366 145.671 169.678 145.786 170.052 145.786ZM176.93 146.752V145.471H173.529V144.465L176.762 139.853H178.191V144.377H179.098V145.471H178.191V146.752H176.93ZM174.88 144.377H177.009V141.242L174.88 144.377ZM182.682 146.87C182.163 146.87 181.726 146.775 181.371 146.584C181.016 146.394 180.73 146.138 180.514 145.816C180.297 145.494 180.139 145.136 180.041 144.741C179.949 144.347 179.903 143.943 179.903 143.529C179.903 142.76 180.011 142.093 180.228 141.528C180.445 140.957 180.757 140.516 181.164 140.208C181.572 139.892 182.064 139.734 182.643 139.734C183.116 139.734 183.516 139.83 183.845 140.02C184.18 140.204 184.44 140.447 184.624 140.75C184.808 141.052 184.916 141.377 184.949 141.725H183.776C183.717 141.423 183.589 141.19 183.392 141.026C183.194 140.861 182.942 140.779 182.633 140.779C182.192 140.779 181.838 140.983 181.568 141.39C181.299 141.791 181.154 142.405 181.135 143.233C181.292 142.964 181.529 142.741 181.844 142.563C182.16 142.386 182.511 142.297 182.899 142.297C183.28 142.297 183.638 142.389 183.973 142.573C184.308 142.757 184.578 143.017 184.781 143.352C184.992 143.687 185.097 144.081 185.097 144.534C185.097 144.948 184.995 145.333 184.791 145.688C184.594 146.042 184.311 146.328 183.944 146.545C183.582 146.762 183.162 146.87 182.682 146.87ZM182.613 145.786C182.981 145.786 183.283 145.674 183.52 145.451C183.763 145.221 183.884 144.932 183.884 144.584C183.884 144.216 183.763 143.92 183.52 143.697C183.277 143.473 182.968 143.361 182.593 143.361C182.35 143.361 182.13 143.417 181.933 143.529C181.742 143.634 181.591 143.779 181.48 143.963C181.368 144.14 181.312 144.341 181.312 144.564C181.312 144.919 181.434 145.211 181.677 145.441C181.926 145.671 182.238 145.786 182.613 145.786ZM186.044 146.752V145.835C186.464 145.487 186.872 145.142 187.266 144.8C187.667 144.459 188.022 144.12 188.33 143.785C188.646 143.45 188.895 143.125 189.079 142.81C189.27 142.488 189.365 142.175 189.365 141.873C189.365 141.591 189.286 141.341 189.129 141.124C188.978 140.907 188.725 140.799 188.37 140.799C188.008 140.799 187.736 140.917 187.552 141.154C187.368 141.39 187.276 141.676 187.276 142.011H186.054C186.067 141.505 186.178 141.085 186.389 140.75C186.599 140.408 186.878 140.155 187.227 139.991C187.575 139.82 187.966 139.734 188.399 139.734C189.102 139.734 189.648 139.928 190.035 140.316C190.43 140.697 190.627 141.193 190.627 141.804C190.627 142.185 190.538 142.557 190.361 142.918C190.19 143.279 189.963 143.628 189.681 143.963C189.398 144.298 189.093 144.613 188.764 144.909C188.436 145.198 188.117 145.467 187.808 145.717H190.794V146.752H186.044ZM192.591 146.752V141.292L191.458 141.558V140.592L193.123 139.853H193.902V146.752H192.591ZM197.588 146.752V139.853H200.358C201.074 139.853 201.619 140.02 201.994 140.355C202.375 140.684 202.565 141.108 202.565 141.627C202.565 142.06 202.447 142.409 202.211 142.672C201.981 142.928 201.698 143.102 201.363 143.194C201.757 143.273 202.082 143.47 202.339 143.785C202.595 144.094 202.723 144.456 202.723 144.869C202.723 145.415 202.526 145.865 202.132 146.22C201.737 146.575 201.179 146.752 200.456 146.752H197.588ZM198.85 142.75H200.17C200.525 142.75 200.798 142.668 200.988 142.504C201.179 142.34 201.274 142.106 201.274 141.804C201.274 141.515 201.179 141.288 200.988 141.124C200.804 140.953 200.525 140.868 200.151 140.868H198.85V142.75ZM198.85 145.727H200.259C200.634 145.727 200.923 145.642 201.126 145.471C201.337 145.293 201.442 145.047 201.442 144.731C201.442 144.41 201.333 144.157 201.117 143.973C200.9 143.789 200.607 143.697 200.239 143.697H198.85V145.727ZM205.326 146.752V140.868H203.315V139.853H208.608V140.868H206.587V146.752H205.326ZM209.542 146.752V139.853H210.804V142.721H213.899V139.853H215.16V146.752H213.899V143.746H210.804V146.752H209.542Z" fill="white"/>
<path d="M183.384 159.89V158.835H185.237V157.13H186.311V158.835H188.154V159.89H186.311V161.595H185.237V159.89H183.384ZM189.517 162.216L192.119 156.391H188.719V155.317H193.42V156.214L190.828 162.216H189.517ZM194.313 162.285C194.083 162.285 193.893 162.213 193.742 162.068C193.597 161.924 193.525 161.749 193.525 161.546C193.525 161.335 193.597 161.158 193.742 161.014C193.893 160.869 194.083 160.797 194.313 160.797C194.543 160.797 194.731 160.869 194.875 161.014C195.026 161.158 195.102 161.335 195.102 161.546C195.102 161.749 195.026 161.924 194.875 162.068C194.731 162.213 194.543 162.285 194.313 162.285ZM196.001 162.216V161.299C196.422 160.951 196.829 160.606 197.223 160.264C197.624 159.923 197.979 159.584 198.288 159.249C198.603 158.914 198.853 158.589 199.037 158.274C199.227 157.952 199.323 157.639 199.323 157.337C199.323 157.055 199.244 156.805 199.086 156.588C198.935 156.371 198.682 156.263 198.327 156.263C197.966 156.263 197.693 156.381 197.509 156.618C197.325 156.854 197.233 157.14 197.233 157.475H196.011C196.024 156.969 196.136 156.549 196.346 156.214C196.556 155.872 196.836 155.619 197.184 155.455C197.532 155.284 197.923 155.198 198.357 155.198C199.06 155.198 199.605 155.392 199.993 155.78C200.387 156.161 200.584 156.657 200.584 157.268C200.584 157.649 200.495 158.021 200.318 158.382C200.147 158.743 199.921 159.092 199.638 159.427C199.355 159.762 199.05 160.077 198.721 160.373C198.393 160.662 198.074 160.931 197.765 161.181H200.752V162.216H196.001ZM204.867 162.216V160.935H201.466V159.929L204.699 155.317H206.128V159.841H207.035V160.935H206.128V162.216H204.867ZM202.817 159.841H204.945V156.706L202.817 159.841ZM209.282 158.707C208.967 158.707 208.681 158.638 208.425 158.5C208.169 158.356 207.965 158.152 207.814 157.889C207.663 157.626 207.587 157.314 207.587 156.953C207.587 156.591 207.663 156.279 207.814 156.017C207.965 155.754 208.169 155.553 208.425 155.415C208.681 155.271 208.97 155.198 209.292 155.198C209.608 155.198 209.89 155.271 210.14 155.415C210.396 155.553 210.6 155.754 210.751 156.017C210.902 156.279 210.978 156.591 210.978 156.953C210.978 157.314 210.902 157.626 210.751 157.889C210.6 158.152 210.396 158.356 210.14 158.5C209.884 158.638 209.598 158.707 209.282 158.707ZM208.908 162.216L212.801 155.317H214.033L210.14 162.216H208.908ZM209.282 157.83C209.473 157.83 209.637 157.758 209.775 157.613C209.913 157.462 209.982 157.242 209.982 156.953C209.982 156.664 209.913 156.444 209.775 156.292C209.644 156.141 209.479 156.066 209.282 156.066C209.085 156.066 208.918 156.141 208.78 156.292C208.648 156.444 208.583 156.664 208.583 156.953C208.583 157.242 208.648 157.462 208.78 157.613C208.918 157.758 209.085 157.83 209.282 157.83ZM213.698 162.334C213.382 162.334 213.097 162.265 212.84 162.127C212.584 161.983 212.38 161.779 212.229 161.516C212.078 161.253 212.003 160.941 212.003 160.58C212.003 160.218 212.078 159.91 212.229 159.653C212.38 159.391 212.584 159.19 212.84 159.052C213.097 158.908 213.386 158.835 213.708 158.835C214.023 158.835 214.306 158.908 214.555 159.052C214.812 159.19 215.015 159.391 215.166 159.653C215.318 159.91 215.393 160.218 215.393 160.58C215.393 160.941 215.318 161.253 215.166 161.516C215.015 161.779 214.812 161.983 214.555 162.127C214.306 162.265 214.02 162.334 213.698 162.334ZM213.698 161.457C213.895 161.457 214.059 161.385 214.191 161.24C214.329 161.089 214.398 160.869 214.398 160.58C214.398 160.291 214.329 160.071 214.191 159.919C214.059 159.768 213.895 159.693 213.698 159.693C213.501 159.693 213.333 159.768 213.195 159.919C213.064 160.071 212.998 160.291 212.998 160.58C212.998 160.869 213.064 161.089 213.195 161.24C213.333 161.385 213.501 161.457 213.698 161.457Z" fill="#0FD369"/>
<path d="M17.1192 206.976L14.7837 206.124V218.064H216.216V174.328L212.129 175.748C212.129 175.748 210.254 175.754 209.748 176.125C209.242 176.496 208.626 177.735 208.626 177.735C208.626 177.735 204.539 178.521 204.539 179.154V183.697L199.284 186.252L192.861 183.697C192.861 183.697 190.96 181.517 189.942 181.426C188.924 181.334 185.416 184.512 185.416 184.512L180.796 183.697L174.636 190.226L171.248 188.807C171.248 188.807 168.168 190.802 166.32 190.802C164.472 190.802 161.917 190.226 161.917 190.226C161.917 190.226 161.917 188.807 160.468 188.807C159.019 188.807 157.246 191.078 157.246 191.078L151.536 185.41L146.608 189.304L142.065 186.252L136.136 190.226L130.284 191.551L125.664 189.604L121.046 193.065H118.888L116.959 196.756L113.456 200.163L109.032 201.866H104.115L101.64 200.163L97.6919 199.027H90.1019L88.0879 196.044C86.8559 194.696 81.9479 201.73 80.0799 202.184C78.2109 202.638 75.5049 204.137 75.5049 204.705L63.2439 206.976L59.7409 204.705H52.1509L48.3559 203.382L41.0579 206.124L38.4999 204.705H31.1319L28.0279 203.082L23.5419 204.705H20.6219L17.1192 206.976Z" fill="url(#paint0_linear_809_4775)" fill-opacity="0.5"/>
<path d="M14.7842 205.508L17.1196 206.36L20.6232 204.089H23.5422L28.0282 202.466L31.1322 204.089H38.5002L41.0582 205.508L48.3562 202.766L52.1512 204.089H59.7412L63.2442 206.36L75.5062 204.089C75.5062 203.521 78.2122 202.022 80.0802 201.568C81.9482 201.113 86.8562 194.08 88.0882 195.427L90.1022 198.411H97.6922L101.64 199.547L104.115 201.25H109.032L113.456 199.547L116.96 196.14L118.888 192.449H121.047L125.664 188.988L130.284 190.935L136.136 189.61L142.066 185.636L146.608 188.688L151.536 184.794L157.246 190.462C157.246 190.462 159.019 188.191 160.468 188.191C161.917 188.191 161.917 189.61 161.917 189.61C161.917 189.61 164.472 190.186 166.32 190.186C168.168 190.186 171.248 188.191 171.248 188.191L174.636 189.61L180.796 183.081L185.416 183.896C185.416 183.896 188.925 180.718 189.942 180.809C190.96 180.901 192.862 183.081 192.862 183.081L199.284 185.636L204.539 183.081C204.539 183.081 204.539 179.171 204.539 178.538C204.539 177.905 208.626 177.119 208.626 177.119C208.626 177.119 209.242 175.88 209.748 175.509C210.254 175.138 212.129 175.132 212.129 175.132L216.216 173.712" stroke="#0FD369" stroke-width="1.848" stroke-linecap="round"/>
<path d="M221.144 230.384H9.85609C8.49526 230.384 7.39209 231.487 7.39209 232.848V324.016C7.39209 325.377 8.49526 326.48 9.85609 326.48H221.144C222.505 326.48 223.608 325.377 223.608 324.016V232.848C223.608 231.487 222.505 230.384 221.144 230.384Z" fill="#242424"/>
<path d="M29.5683 267.344C37.7333 267.344 44.3523 260.725 44.3523 252.56C44.3523 244.395 37.7333 237.776 29.5683 237.776C21.4033 237.776 14.7842 244.395 14.7842 252.56C14.7842 260.725 21.4033 267.344 29.5683 267.344Z" fill="#627EEA"/>
<path d="M30.0283 241.472V249.668L36.9553 252.764L30.0283 241.472Z" fill="white" fill-opacity="0.602"/>
<path d="M30.0281 241.472L23.1001 252.764L30.0281 249.668V241.472Z" fill="white"/>
<path d="M30.0283 258.075V263.644L36.9603 254.053L30.0283 258.075Z" fill="white" fill-opacity="0.602"/>
<path d="M30.0281 263.644V258.074L23.1001 254.053L30.0281 263.644Z" fill="white"/>
<path d="M30.0283 256.786L36.9553 252.763L30.0283 249.67V256.786Z" fill="white" fill-opacity="0.2"/>
<path d="M23.1001 252.763L30.0281 256.786V249.67L23.1001 252.763Z" fill="white" fill-opacity="0.602"/>
<path d="M56.1943 256.06V248.299H61.2613V249.441H57.6133V251.57H60.9283V252.678H57.6133V254.918H61.2613V256.06H56.1943ZM64.8733 256.06C64.2973 256.06 63.8353 255.92 63.4873 255.639C63.1403 255.358 62.9663 254.859 62.9663 254.142V251.747H62.0243V250.561H62.9663L63.1333 249.086H64.3863V250.561H65.8713V251.747H64.3863V254.153C64.3863 254.419 64.4413 254.604 64.5523 254.708C64.6703 254.804 64.8703 254.852 65.1513 254.852H65.8383V256.06H64.8733ZM66.9423 256.06V248.077H68.3613V251.403C68.5463 251.1 68.7943 250.864 69.1043 250.694C69.4223 250.516 69.7843 250.428 70.1913 250.428C70.8713 250.428 71.3963 250.642 71.7653 251.071C72.1423 251.499 72.3313 252.128 72.3313 252.956V256.06H70.9233V253.089C70.9233 252.616 70.8273 252.253 70.6343 252.002C70.4503 251.751 70.1543 251.625 69.7473 251.625C69.3483 251.625 69.0163 251.766 68.7493 252.046C68.4913 252.327 68.3613 252.719 68.3613 253.222V256.06H66.9423ZM76.2123 256.193C75.6583 256.193 75.1663 256.075 74.7383 255.839C74.3093 255.602 73.9733 255.269 73.7293 254.841C73.4853 254.412 73.3633 253.917 73.3633 253.355C73.3633 252.786 73.4813 252.279 73.7183 251.836C73.9623 251.392 74.2943 251.049 74.7163 250.805C75.1443 250.553 75.6473 250.428 76.2243 250.428C76.7633 250.428 77.2403 250.546 77.6543 250.782C78.0683 251.019 78.3893 251.344 78.6193 251.758C78.8553 252.165 78.9733 252.619 78.9733 253.122C78.9733 253.203 78.9703 253.288 78.9623 253.377C78.9623 253.466 78.9593 253.558 78.9513 253.654H74.7713C74.8013 254.083 74.9483 254.419 75.2143 254.663C75.4883 254.907 75.8173 255.029 76.2013 255.029C76.4903 255.029 76.7303 254.966 76.9223 254.841C77.1223 254.708 77.2693 254.538 77.3663 254.331H78.8073C78.7043 254.678 78.5303 254.996 78.2863 255.284C78.0493 255.565 77.7543 255.787 77.3993 255.949C77.0513 256.112 76.6563 256.193 76.2123 256.193ZM76.2243 251.581C75.8763 251.581 75.5693 251.681 75.3033 251.88C75.0373 252.072 74.8673 252.368 74.7933 252.767H77.5323C77.5103 252.405 77.3773 252.117 77.1333 251.902C76.8893 251.688 76.5863 251.581 76.2243 251.581ZM80.0193 256.06V250.561H81.2833L81.4163 251.592C81.6163 251.237 81.8863 250.956 82.2263 250.749C82.5733 250.535 82.9803 250.428 83.4453 250.428V251.924H83.0463C82.7363 251.924 82.4593 251.973 82.2153 252.069C81.9713 252.165 81.7783 252.331 81.6383 252.568C81.5053 252.804 81.4383 253.133 81.4383 253.554V256.06H80.0193ZM86.8423 256.193C86.2883 256.193 85.7963 256.075 85.3683 255.839C84.9393 255.602 84.6033 255.269 84.3593 254.841C84.1153 254.412 83.9933 253.917 83.9933 253.355C83.9933 252.786 84.1113 252.279 84.3483 251.836C84.5913 251.392 84.9243 251.049 85.3453 250.805C85.7743 250.553 86.2773 250.428 86.8533 250.428C87.3933 250.428 87.8703 250.546 88.2843 250.782C88.6983 251.019 89.0193 251.344 89.2483 251.758C89.4853 252.165 89.6033 252.619 89.6033 253.122C89.6033 253.203 89.6003 253.288 89.5923 253.377C89.5923 253.466 89.5883 253.558 89.5813 253.654H85.4013C85.4303 254.083 85.5783 254.419 85.8443 254.663C86.1183 254.907 86.4473 255.029 86.8313 255.029C87.1203 255.029 87.3603 254.966 87.5523 254.841C87.7523 254.708 87.8993 254.538 87.9953 254.331H89.4373C89.3333 254.678 89.1603 254.996 88.9163 255.284C88.6793 255.565 88.3843 255.787 88.0293 255.949C87.6813 256.112 87.2863 256.193 86.8423 256.193ZM86.8533 251.581C86.5063 251.581 86.1993 251.681 85.9333 251.88C85.6673 252.072 85.4973 252.368 85.4233 252.767H88.1623C88.1403 252.405 88.0073 252.117 87.7633 251.902C87.5193 251.688 87.2163 251.581 86.8533 251.581ZM92.7113 256.193C92.0243 256.193 91.4923 255.979 91.1153 255.55C90.7453 255.122 90.5603 254.493 90.5603 253.665V250.561H91.9693V253.532C91.9693 254.005 92.0653 254.368 92.2573 254.619C92.4493 254.87 92.7523 254.996 93.1663 254.996C93.5583 254.996 93.8793 254.855 94.1313 254.575C94.3893 254.294 94.5193 253.902 94.5193 253.399V250.561H95.9383V256.06H94.6853L94.5743 255.129C94.4043 255.454 94.1573 255.713 93.8313 255.905C93.5133 256.097 93.1403 256.193 92.7113 256.193ZM97.2473 256.06V250.561H98.5003L98.6223 251.304C98.7993 251.037 99.0323 250.827 99.3213 250.672C99.6163 250.509 99.9563 250.428 100.341 250.428C101.191 250.428 101.793 250.757 102.148 251.414C102.348 251.111 102.614 250.871 102.946 250.694C103.286 250.516 103.656 250.428 104.055 250.428C104.772 250.428 105.323 250.642 105.707 251.071C106.092 251.499 106.284 252.128 106.284 252.956V256.06H104.865V253.089C104.865 252.616 104.772 252.253 104.587 252.002C104.41 251.751 104.133 251.625 103.756 251.625C103.371 251.625 103.061 251.766 102.824 252.046C102.595 252.327 102.481 252.719 102.481 253.222V256.06H101.061V253.089C101.061 252.616 100.969 252.253 100.784 252.002C100.599 251.751 100.315 251.625 99.9303 251.625C99.5533 251.625 99.2473 251.766 99.0103 252.046C98.7813 252.327 98.6663 252.719 98.6663 253.222V256.06H97.2473Z" fill="white"/>
<path d="M142.971 247.895C142.333 247.895 141.788 247.747 141.335 247.451C140.881 247.149 140.53 246.732 140.28 246.199C140.037 245.66 139.915 245.036 139.915 244.327C139.915 243.624 140.037 243.003 140.28 242.464C140.53 241.925 140.881 241.508 141.335 241.212C141.788 240.91 142.333 240.759 142.971 240.759C143.608 240.759 144.154 240.91 144.607 241.212C145.06 241.508 145.409 241.925 145.652 242.464C145.901 243.003 146.026 243.624 146.026 244.327C146.026 245.036 145.901 245.66 145.652 246.199C145.409 246.732 145.06 247.149 144.607 247.451C144.154 247.747 143.608 247.895 142.971 247.895ZM142.971 246.761C143.49 246.761 143.914 246.544 144.242 246.111C144.571 245.677 144.735 245.082 144.735 244.327C144.735 243.571 144.571 242.976 144.242 242.543C143.914 242.109 143.49 241.892 142.971 241.892C142.445 241.892 142.018 242.109 141.69 242.543C141.368 242.976 141.207 243.571 141.207 244.327C141.207 245.082 141.368 245.677 141.69 246.111C142.018 246.544 142.445 246.761 142.971 246.761ZM147.257 247.845C147.027 247.845 146.837 247.773 146.686 247.628C146.541 247.484 146.469 247.31 146.469 247.106C146.469 246.896 146.541 246.718 146.686 246.574C146.837 246.429 147.027 246.357 147.257 246.357C147.487 246.357 147.675 246.429 147.819 246.574C147.97 246.718 148.046 246.896 148.046 247.106C148.046 247.31 147.97 247.484 147.819 247.628C147.675 247.773 147.487 247.845 147.257 247.845ZM148.945 247.776V246.86C149.366 246.511 149.773 246.166 150.167 245.825C150.568 245.483 150.923 245.145 151.232 244.81C151.547 244.474 151.797 244.149 151.981 243.834C152.171 243.512 152.267 243.2 152.267 242.898C152.267 242.615 152.188 242.365 152.03 242.148C151.879 241.932 151.626 241.823 151.271 241.823C150.91 241.823 150.637 241.941 150.453 242.178C150.269 242.415 150.177 242.7 150.177 243.036H148.955C148.968 242.53 149.08 242.109 149.29 241.774C149.5 241.432 149.78 241.179 150.128 241.015C150.476 240.844 150.867 240.759 151.301 240.759C152.004 240.759 152.549 240.953 152.937 241.34C153.331 241.721 153.528 242.217 153.528 242.829C153.528 243.21 153.439 243.581 153.262 243.942C153.091 244.304 152.864 244.652 152.582 244.987C152.299 245.322 151.994 245.637 151.665 245.933C151.337 246.222 151.018 246.492 150.709 246.741H153.696V247.776H148.945ZM157.217 247.895C156.711 247.895 156.274 247.806 155.906 247.628C155.545 247.451 155.259 247.208 155.049 246.899C154.845 246.584 154.727 246.229 154.694 245.835H155.926C155.985 246.117 156.13 246.354 156.36 246.544C156.59 246.728 156.875 246.82 157.217 246.82C157.585 246.82 157.884 246.686 158.114 246.416C158.351 246.147 158.469 245.812 158.469 245.411C158.469 244.997 158.351 244.668 158.114 244.425C157.884 244.182 157.592 244.061 157.237 244.061C156.941 244.061 156.685 244.133 156.468 244.277C156.251 244.422 156.097 244.603 156.005 244.819H154.793L155.384 240.877H159.208V241.981H156.33L156.015 243.578C156.159 243.42 156.356 243.292 156.606 243.193C156.856 243.088 157.135 243.036 157.444 243.036C157.937 243.036 158.347 243.147 158.676 243.371C159.004 243.587 159.254 243.877 159.425 244.238C159.596 244.593 159.681 244.98 159.681 245.401C159.681 245.881 159.576 246.308 159.366 246.682C159.162 247.057 158.873 247.352 158.498 247.569C158.13 247.786 157.703 247.895 157.217 247.895ZM164.009 247.776V246.495H160.609V245.49L163.841 240.877H165.271V245.401H166.177V246.495H165.271V247.776H164.009ZM161.959 245.401H164.088V242.267L161.959 245.401ZM169.761 247.895C169.242 247.895 168.805 247.799 168.45 247.609C168.096 247.418 167.81 247.162 167.593 246.84C167.376 246.518 167.218 246.16 167.12 245.766C167.028 245.371 166.982 244.967 166.982 244.553C166.982 243.785 167.09 243.118 167.307 242.553C167.524 241.981 167.836 241.541 168.243 241.232C168.651 240.916 169.144 240.759 169.722 240.759C170.195 240.759 170.596 240.854 170.924 241.045C171.259 241.229 171.519 241.472 171.703 241.774C171.887 242.076 171.995 242.401 172.028 242.75H170.855C170.796 242.447 170.668 242.214 170.471 242.05C170.274 241.886 170.021 241.804 169.712 241.804C169.272 241.804 168.917 242.007 168.648 242.415C168.378 242.815 168.234 243.43 168.214 244.258C168.372 243.988 168.608 243.765 168.924 243.587C169.239 243.41 169.59 243.321 169.978 243.321C170.359 243.321 170.717 243.413 171.052 243.597C171.388 243.781 171.657 244.041 171.861 244.376C172.071 244.711 172.176 245.105 172.176 245.559C172.176 245.973 172.074 246.357 171.87 246.712C171.673 247.067 171.391 247.352 171.023 247.569C170.661 247.786 170.241 247.895 169.761 247.895ZM169.692 246.81C170.06 246.81 170.362 246.699 170.599 246.475C170.842 246.245 170.964 245.956 170.964 245.608C170.964 245.24 170.842 244.944 170.599 244.721C170.356 244.497 170.047 244.386 169.673 244.386C169.429 244.386 169.209 244.442 169.012 244.553C168.822 244.658 168.671 244.803 168.559 244.987C168.447 245.164 168.391 245.365 168.391 245.588C168.391 245.943 168.513 246.235 168.756 246.465C169.006 246.695 169.318 246.81 169.692 246.81ZM176.57 247.776V246.495H173.169V245.49L176.402 240.877H177.831V245.401H178.738V246.495H177.831V247.776H176.57ZM174.52 245.401H176.649V242.267L174.52 245.401ZM182.322 247.895C181.803 247.895 181.366 247.799 181.011 247.609C180.656 247.418 180.37 247.162 180.154 246.84C179.937 246.518 179.779 246.16 179.68 245.766C179.588 245.371 179.542 244.967 179.542 244.553C179.542 243.785 179.651 243.118 179.868 242.553C180.085 241.981 180.397 241.541 180.804 241.232C181.211 240.916 181.704 240.759 182.282 240.759C182.756 240.759 183.156 240.854 183.485 241.045C183.82 241.229 184.08 241.472 184.264 241.774C184.447 242.076 184.556 242.401 184.589 242.75H183.416C183.357 242.447 183.229 242.214 183.032 242.05C182.834 241.886 182.581 241.804 182.273 241.804C181.832 241.804 181.478 242.007 181.208 242.415C180.939 242.815 180.794 243.43 180.774 244.258C180.932 243.988 181.169 243.765 181.484 243.587C181.8 243.41 182.151 243.321 182.539 243.321C182.92 243.321 183.278 243.413 183.613 243.597C183.948 243.781 184.218 244.041 184.421 244.376C184.631 244.711 184.737 245.105 184.737 245.559C184.737 245.973 184.635 246.357 184.431 246.712C184.234 247.067 183.951 247.352 183.583 247.569C183.222 247.786 182.802 247.895 182.322 247.895ZM182.253 246.81C182.621 246.81 182.923 246.699 183.16 246.475C183.403 246.245 183.524 245.956 183.524 245.608C183.524 245.24 183.403 244.944 183.16 244.721C182.917 244.497 182.608 244.386 182.233 244.386C181.99 244.386 181.77 244.442 181.573 244.553C181.382 244.658 181.231 244.803 181.119 244.987C181.008 245.164 180.952 245.365 180.952 245.588C180.952 245.943 181.073 246.235 181.317 246.465C181.566 246.695 181.878 246.81 182.253 246.81ZM185.684 247.776V246.86C186.104 246.511 186.512 246.166 186.906 245.825C187.307 245.483 187.661 245.145 187.97 244.81C188.286 244.474 188.535 244.149 188.719 243.834C188.91 243.512 189.005 243.2 189.005 242.898C189.005 242.615 188.926 242.365 188.769 242.148C188.618 241.932 188.365 241.823 188.01 241.823C187.648 241.823 187.376 241.941 187.192 242.178C187.008 242.415 186.916 242.7 186.916 243.036H185.694C185.707 242.53 185.818 242.109 186.029 241.774C186.239 241.432 186.518 241.179 186.866 241.015C187.215 240.844 187.606 240.759 188.039 240.759C188.742 240.759 189.288 240.953 189.675 241.34C190.07 241.721 190.267 242.217 190.267 242.829C190.267 243.21 190.178 243.581 190.001 243.942C189.83 244.304 189.603 244.652 189.321 244.987C189.038 245.322 188.732 245.637 188.404 245.933C188.075 246.222 187.757 246.492 187.448 246.741H190.434V247.776H185.684ZM192.231 247.776V242.316L191.097 242.582V241.616L192.763 240.877H193.542V247.776H192.231ZM197.228 247.776V240.877H201.732V241.892H198.49V243.785H201.437V244.77H198.49V246.761H201.732V247.776H197.228ZM204.533 247.776V241.892H202.522V240.877H207.815V241.892H205.794V247.776H204.533ZM208.749 247.776V240.877H210.011V243.745H213.105V240.877H214.367V247.776H213.105V244.77H210.011V247.776H208.749Z" fill="white"/>
<path d="M183.024 260.914V259.86H184.877V258.155H185.951V259.86H187.794V260.914H185.951V262.619H184.877V260.914H183.024ZM189.157 263.24L191.759 257.415H188.359V256.341H193.06V257.238L190.468 263.24H189.157ZM193.953 263.309C193.723 263.309 193.533 263.237 193.382 263.092C193.237 262.948 193.165 262.774 193.165 262.57C193.165 262.36 193.237 262.182 193.382 262.038C193.533 261.893 193.723 261.821 193.953 261.821C194.183 261.821 194.371 261.893 194.515 262.038C194.666 262.182 194.742 262.36 194.742 262.57C194.742 262.774 194.666 262.948 194.515 263.092C194.371 263.237 194.183 263.309 193.953 263.309ZM195.641 263.24V262.324C196.062 261.975 196.469 261.63 196.863 261.289C197.264 260.947 197.619 260.609 197.928 260.274C198.243 259.938 198.493 259.613 198.677 259.298C198.867 258.976 198.963 258.664 198.963 258.362C198.963 258.079 198.884 257.829 198.726 257.612C198.575 257.396 198.322 257.287 197.967 257.287C197.606 257.287 197.333 257.405 197.149 257.642C196.965 257.879 196.873 258.164 196.873 258.499H195.651C195.664 257.994 195.776 257.573 195.986 257.238C196.196 256.896 196.476 256.643 196.824 256.479C197.172 256.308 197.563 256.223 197.997 256.223C198.7 256.223 199.245 256.417 199.633 256.804C200.027 257.185 200.224 257.681 200.224 258.293C200.224 258.674 200.135 259.045 199.958 259.406C199.787 259.768 199.56 260.116 199.278 260.451C198.995 260.786 198.69 261.101 198.361 261.397C198.033 261.686 197.714 261.956 197.405 262.205H200.392V263.24H195.641ZM204.507 263.24V261.959H201.106V260.954L204.339 256.341H205.768V260.865H206.675V261.959H205.768V263.24H204.507ZM202.457 260.865H204.585V257.731L202.457 260.865ZM208.922 259.731C208.607 259.731 208.321 259.663 208.065 259.525C207.809 259.38 207.605 259.176 207.454 258.913C207.303 258.651 207.227 258.339 207.227 257.977C207.227 257.616 207.303 257.304 207.454 257.041C207.605 256.778 207.809 256.578 208.065 256.44C208.321 256.295 208.61 256.223 208.932 256.223C209.248 256.223 209.53 256.295 209.78 256.44C210.036 256.578 210.24 256.778 210.391 257.041C210.542 257.304 210.618 257.616 210.618 257.977C210.618 258.339 210.542 258.651 210.391 258.913C210.24 259.176 210.036 259.38 209.78 259.525C209.523 259.663 209.238 259.731 208.922 259.731ZM208.548 263.24L212.441 256.341H213.673L209.78 263.24H208.548ZM208.922 258.854C209.113 258.854 209.277 258.782 209.415 258.637C209.553 258.486 209.622 258.266 209.622 257.977C209.622 257.688 209.553 257.468 209.415 257.317C209.284 257.166 209.119 257.09 208.922 257.09C208.725 257.09 208.558 257.166 208.42 257.317C208.288 257.468 208.222 257.688 208.222 257.977C208.222 258.266 208.288 258.486 208.42 258.637C208.558 258.782 208.725 258.854 208.922 258.854ZM213.338 263.359C213.022 263.359 212.737 263.29 212.48 263.152C212.224 263.007 212.02 262.803 211.869 262.54C211.718 262.278 211.643 261.966 211.643 261.604C211.643 261.243 211.718 260.934 211.869 260.678C212.02 260.415 212.224 260.214 212.48 260.076C212.737 259.932 213.026 259.86 213.348 259.86C213.663 259.86 213.946 259.932 214.195 260.076C214.451 260.214 214.655 260.415 214.806 260.678C214.957 260.934 215.033 261.243 215.033 261.604C215.033 261.966 214.957 262.278 214.806 262.54C214.655 262.803 214.451 263.007 214.195 263.152C213.946 263.29 213.66 263.359 213.338 263.359ZM213.338 262.481C213.535 262.481 213.699 262.409 213.831 262.264C213.969 262.113 214.038 261.893 214.038 261.604C214.038 261.315 213.969 261.095 213.831 260.944C213.699 260.793 213.535 260.717 213.338 260.717C213.141 260.717 212.973 260.793 212.835 260.944C212.704 261.095 212.638 261.315 212.638 261.604C212.638 261.893 212.704 262.113 212.835 262.264C212.973 262.409 213.141 262.481 213.338 262.481Z" fill="#0FD369"/>
<path d="M17.1196 308L14.7842 307.148V319.088H216.216V275.352L212.129 276.772C212.129 276.772 210.254 276.778 209.748 277.149C209.242 277.52 208.626 278.759 208.626 278.759C208.626 278.759 204.539 279.545 204.539 280.178V284.721L199.284 287.276L192.862 284.721C192.862 284.721 190.96 282.541 189.942 282.449C188.925 282.358 185.416 285.536 185.416 285.536L180.796 284.721L174.636 291.25L171.248 289.831C171.248 289.831 168.168 291.826 166.32 291.826C164.472 291.826 161.917 291.25 161.917 291.25C161.917 291.25 161.917 289.831 160.468 289.831C159.019 289.831 157.246 292.102 157.246 292.102L151.536 286.434L146.608 290.328L142.066 287.276L136.136 291.25L130.284 292.575L125.664 290.628L121.047 294.089H118.888L116.96 297.78L113.456 301.187L109.032 302.89H104.115L101.64 301.187L97.6922 300.051H90.1022L88.0882 297.067C86.8562 295.72 81.9482 302.753 80.0802 303.208C78.2122 303.662 75.5062 305.161 75.5062 305.729L63.2442 308L59.7412 305.729H52.1512L48.3562 304.406L41.0582 307.148L38.5002 305.729H31.1322L28.0282 304.106L23.5422 305.729H20.6232L17.1196 308Z" fill="url(#paint1_linear_809_4775)" fill-opacity="0.5"/>
<path d="M14.7842 306.532L17.1196 307.384L20.6232 305.113H23.5422L28.0282 303.49L31.1322 305.113H38.5002L41.0582 306.532L48.3562 303.79L52.1512 305.113H59.7412L63.2442 307.384L75.5062 305.113C75.5062 304.545 78.2122 303.046 80.0802 302.592C81.9482 302.137 86.8562 295.104 88.0882 296.451L90.1022 299.435H97.6922L101.64 300.571L104.115 302.274H109.032L113.456 300.571L116.96 297.164L118.888 293.473H121.047L125.664 290.012L130.284 291.959L136.136 290.634L142.066 286.66L146.608 289.712L151.536 285.818L157.246 291.486C157.246 291.486 159.019 289.215 160.468 289.215C161.917 289.215 161.917 290.634 161.917 290.634C161.917 290.634 164.472 291.21 166.32 291.21C168.168 291.21 171.248 289.215 171.248 289.215L174.636 290.634L180.796 284.105L185.416 284.92C185.416 284.92 188.925 281.742 189.942 281.833C190.96 281.925 192.862 284.105 192.862 284.105L199.284 286.66L204.539 284.105C204.539 284.105 204.539 280.195 204.539 279.562C204.539 278.929 208.626 278.143 208.626 278.143C208.626 278.143 209.242 276.904 209.748 276.533C210.254 276.162 212.129 276.156 212.129 276.156L216.216 274.736" stroke="#0FD369" stroke-width="1.848" stroke-linecap="round"/>
<path d="M221.144 331.408H9.85609C8.49526 331.408 7.39209 332.511 7.39209 333.872V425.04C7.39209 426.401 8.49526 427.504 9.85609 427.504H221.144C222.505 427.504 223.608 426.401 223.608 425.04V333.872C223.608 332.511 222.505 331.408 221.144 331.408Z" fill="#242424"/>
<path d="M29.568 368.368C37.733 368.368 44.352 361.749 44.352 353.584C44.352 345.419 37.733 338.8 29.568 338.8C21.403 338.8 14.7837 345.419 14.7837 353.584C14.7837 361.749 21.403 368.368 29.568 368.368Z" fill="#3E73C4"/>
<path d="M33.2839 355.547C33.2839 353.585 32.1009 352.912 29.7349 352.631C28.0459 352.406 27.7089 351.958 27.7089 351.173C27.7089 350.388 28.2729 349.883 29.3979 349.883C30.4119 349.883 30.9749 350.219 31.2559 351.061C31.2859 351.143 31.3389 351.213 31.4099 351.263C31.4799 351.313 31.5639 351.34 31.6509 351.341H32.5519C32.6039 351.342 32.6559 351.333 32.7039 351.314C32.7519 351.295 32.7959 351.266 32.8329 351.229C32.8699 351.193 32.8989 351.149 32.9189 351.1C32.9379 351.052 32.9469 351 32.9459 350.948V350.893C32.8359 350.284 32.5279 349.728 32.0699 349.312C31.6109 348.897 31.0289 348.644 30.4119 348.593V347.248C30.4119 347.023 30.2429 346.855 29.9619 346.799H29.1159C28.8919 346.799 28.7229 346.967 28.6659 347.248V348.538C26.9759 348.761 25.9069 349.883 25.9069 351.286C25.9069 353.135 27.0329 353.865 29.3979 354.145C30.9749 354.425 31.4819 354.763 31.4819 355.66C31.4819 356.556 30.6939 357.173 29.6239 357.173C28.1589 357.173 27.6529 356.557 27.4839 355.715C27.4279 355.492 27.2579 355.379 27.0889 355.379H26.1319C26.0799 355.378 26.0279 355.387 25.9799 355.406C25.9319 355.426 25.8879 355.454 25.8509 355.491C25.8139 355.528 25.7849 355.572 25.7659 355.62C25.7459 355.668 25.7369 355.72 25.7379 355.772V355.827C25.9629 357.23 26.8649 358.239 28.7229 358.52V359.866C28.7229 360.09 28.8919 360.259 29.1729 360.314H30.0179C30.2429 360.314 30.4119 360.146 30.4679 359.866V358.519C32.1579 358.239 33.2839 357.061 33.2839 355.546V355.547Z" fill="white"/>
<path d="M26.6958 361.435C22.3028 359.865 20.0498 354.986 21.6838 350.668C22.5278 348.312 24.3868 346.518 26.6958 345.677C26.9208 345.565 27.0328 345.397 27.0328 345.116V344.33C27.0328 344.107 26.9208 343.939 26.6958 343.882C26.6388 343.882 26.5268 343.882 26.4698 343.938C25.2028 344.333 24.0258 344.976 23.0078 345.828C21.9898 346.681 21.1508 347.726 20.5388 348.904C19.9258 350.082 19.5528 351.37 19.4398 352.692C19.3278 354.015 19.4778 355.347 19.8818 356.612C20.8948 359.754 23.3168 362.165 26.4698 363.174C26.6958 363.286 26.9208 363.174 26.9768 362.95C27.0328 362.894 27.0328 362.837 27.0328 362.725V361.94C27.0328 361.772 26.8648 361.548 26.6958 361.435ZM32.6648 343.939C32.4388 343.826 32.2138 343.939 32.1578 344.162C32.1018 344.219 32.1018 344.275 32.1018 344.387V345.172C32.1018 345.397 32.2698 345.62 32.4388 345.733C36.8318 347.304 39.0848 352.182 37.4508 356.5C36.6068 358.857 34.7478 360.65 32.4388 361.492C32.2138 361.604 32.1018 361.772 32.1018 362.053V362.838C32.1018 363.062 32.2138 363.23 32.4388 363.286C32.4958 363.286 32.6078 363.286 32.6648 363.231C33.9318 362.835 35.1088 362.192 36.1268 361.34C37.1448 360.488 37.9838 359.442 38.5958 358.264C39.2088 357.086 39.5818 355.799 39.6948 354.476C39.8068 353.153 39.6568 351.821 39.2528 350.556C38.2398 347.359 35.7618 344.948 32.6648 343.939Z" fill="white"/>
<path d="M59.1879 357.217C58.6179 357.217 58.1049 357.106 57.6459 356.884C57.1879 356.655 56.8219 356.311 56.5489 355.853C56.2829 355.395 56.1499 354.815 56.1499 354.112V349.322H57.5689V354.123C57.5689 354.73 57.7129 355.18 58.0009 355.476C58.2969 355.772 58.7029 355.92 59.2209 355.92C59.7309 355.92 60.1339 355.772 60.4299 355.476C60.7249 355.18 60.8729 354.73 60.8729 354.123V349.322H62.2919V354.112C62.2919 354.815 62.1519 355.395 61.8709 355.853C61.5899 356.311 61.2129 356.655 60.7399 356.884C60.2739 357.106 59.7569 357.217 59.1879 357.217ZM66.2429 357.217C65.6739 357.217 65.1709 357.121 64.7349 356.929C64.2989 356.729 63.9549 356.448 63.7039 356.086C63.4529 355.716 63.3229 355.269 63.3159 354.744H64.8129C64.8279 355.107 64.9569 355.413 65.2009 355.665C65.4519 355.909 65.7959 356.031 66.2319 356.031C66.6089 356.031 66.9089 355.942 67.1299 355.764C67.3519 355.58 67.4629 355.336 67.4629 355.033C67.4629 354.715 67.3629 354.467 67.1639 354.29C66.9709 354.112 66.7129 353.968 66.3869 353.857C66.0619 353.746 65.7149 353.628 65.3449 353.502C64.7459 353.295 64.2879 353.029 63.9699 352.704C63.6599 352.379 63.5049 351.946 63.5049 351.407C63.4969 350.949 63.6039 350.557 63.8259 350.231C64.0549 349.899 64.3659 349.644 64.7569 349.466C65.1489 349.282 65.5999 349.189 66.1099 349.189C66.6279 349.189 67.0819 349.282 67.4739 349.466C67.8729 349.651 68.1839 349.91 68.4049 350.243C68.6349 350.575 68.7569 350.971 68.7709 351.429H67.2519C67.2449 351.155 67.1379 350.915 66.9309 350.708C66.7309 350.494 66.4499 350.387 66.0879 350.387C65.7779 350.379 65.5149 350.457 65.3009 350.62C65.0939 350.775 64.9899 351.004 64.9899 351.307C64.9899 351.566 65.0719 351.773 65.2339 351.928C65.3969 352.076 65.6189 352.201 65.8999 352.305C66.1799 352.408 66.5019 352.519 66.8639 352.638C67.2489 352.771 67.5999 352.926 67.9179 353.103C68.2349 353.281 68.4899 353.517 68.6829 353.813C68.8749 354.101 68.9709 354.474 68.9709 354.933C68.9709 355.339 68.8669 355.716 68.6599 356.064C68.4529 356.411 68.1469 356.692 67.7399 356.906C67.3339 357.113 66.8349 357.217 66.2429 357.217ZM70.0609 357.084V349.322H72.7109C73.6209 349.322 74.3669 349.485 74.9509 349.81C75.5429 350.128 75.9789 350.579 76.2599 351.163C76.5479 351.739 76.6919 352.42 76.6919 353.203C76.6919 353.987 76.5479 354.67 76.2599 355.254C75.9789 355.831 75.5429 356.282 74.9509 356.607C74.3669 356.925 73.6209 357.084 72.7109 357.084H70.0609ZM71.4809 355.864H72.6449C73.2949 355.864 73.8089 355.761 74.1859 355.554C74.5629 355.339 74.8329 355.036 74.9959 354.645C75.1579 354.245 75.2389 353.765 75.2389 353.203C75.2389 352.649 75.1579 352.172 74.9959 351.773C74.8329 351.374 74.5629 351.067 74.1859 350.852C73.8089 350.638 73.2949 350.531 72.6449 350.531H71.4809V355.864ZM83.8059 357.217C83.0219 357.217 82.3489 357.051 81.7879 356.718C81.2259 356.378 80.7929 355.909 80.4899 355.31C80.1869 354.704 80.0359 354.005 80.0359 353.214C80.0359 352.423 80.1869 351.725 80.4899 351.119C80.7929 350.512 81.2259 350.039 81.7879 349.699C82.3489 349.359 83.0219 349.189 83.8059 349.189C84.7369 349.189 85.4979 349.422 86.0899 349.888C86.6879 350.346 87.0619 350.993 87.2099 351.828H85.6459C85.5499 351.407 85.3429 351.078 85.0249 350.841C84.7149 350.597 84.3009 350.475 83.7829 350.475C83.0659 350.475 82.5049 350.719 82.0979 351.207C81.6909 351.695 81.4879 352.364 81.4879 353.214C81.4879 354.064 81.6909 354.733 82.0979 355.221C82.5049 355.702 83.0659 355.942 83.7829 355.942C84.3009 355.942 84.7149 355.831 85.0249 355.609C85.3429 355.38 85.5499 355.066 85.6459 354.667H87.2099C87.0619 355.465 86.6879 356.09 86.0899 356.541C85.4979 356.991 84.7369 357.217 83.8059 357.217ZM90.9239 357.217C90.3919 357.217 89.9109 357.095 89.4819 356.851C89.0609 356.607 88.7249 356.271 88.4729 355.842C88.2289 355.406 88.1069 354.903 88.1069 354.334C88.1069 353.765 88.2329 353.266 88.4839 352.837C88.7359 352.401 89.0719 352.061 89.4929 351.817C89.9219 351.573 90.4029 351.451 90.9349 351.451C91.4599 351.451 91.9329 351.573 92.3539 351.817C92.7829 352.061 93.1189 352.401 93.3629 352.837C93.6139 353.266 93.7399 353.765 93.7399 354.334C93.7399 354.903 93.6139 355.406 93.3629 355.842C93.1189 356.271 92.7829 356.607 92.3539 356.851C91.9249 357.095 91.4489 357.217 90.9239 357.217ZM90.9239 355.986C91.2929 355.986 91.6149 355.849 91.8879 355.576C92.1619 355.295 92.2989 354.881 92.2989 354.334C92.2989 353.787 92.1619 353.377 91.8879 353.103C91.6149 352.822 91.2969 352.682 90.9349 352.682C90.5579 352.682 90.2329 352.822 89.9589 353.103C89.6929 353.377 89.5599 353.787 89.5599 354.334C89.5599 354.881 89.6929 355.295 89.9589 355.576C90.2329 355.849 90.5539 355.986 90.9239 355.986ZM95.6259 350.73C95.3679 350.73 95.1529 350.653 94.9829 350.498C94.8209 350.342 94.7389 350.146 94.7389 349.91C94.7389 349.673 94.8209 349.481 94.9829 349.333C95.1529 349.178 95.3679 349.101 95.6259 349.101C95.8849 349.101 96.0959 349.178 96.2579 349.333C96.4279 349.481 96.5129 349.673 96.5129 349.91C96.5129 350.146 96.4279 350.342 96.2579 350.498C96.0959 350.653 95.8849 350.73 95.6259 350.73ZM94.9169 357.084V351.584H96.3359V357.084H94.9169ZM97.6689 357.084V351.584H98.9219L99.0329 352.516C99.2029 352.19 99.4469 351.932 99.7649 351.739C100.09 351.547 100.471 351.451 100.907 351.451C101.587 351.451 102.116 351.666 102.493 352.094C102.87 352.523 103.058 353.151 103.058 353.979V357.084H101.639V354.112C101.639 353.639 101.543 353.277 101.351 353.026C101.158 352.774 100.859 352.649 100.453 352.649C100.053 352.649 99.7239 352.789 99.4659 353.07C99.2139 353.351 99.0889 353.743 99.0889 354.245V357.084H97.6689Z" fill="white"/>
<path d="M162.927 348.8V343.34L161.793 343.606V342.64L163.459 341.901H164.238V348.8H162.927ZM165.408 348.8V347.883C165.828 347.535 166.236 347.19 166.63 346.848C167.031 346.507 167.385 346.168 167.694 345.833C168.01 345.498 168.259 345.173 168.443 344.857C168.634 344.535 168.729 344.223 168.729 343.921C168.729 343.639 168.65 343.389 168.493 343.172C168.341 342.955 168.089 342.847 167.734 342.847C167.372 342.847 167.1 342.965 166.916 343.202C166.732 343.438 166.64 343.724 166.64 344.059H165.418C165.431 343.553 165.542 343.133 165.753 342.798C165.963 342.456 166.242 342.203 166.59 342.039C166.939 341.868 167.33 341.782 167.763 341.782C168.466 341.782 169.012 341.976 169.399 342.364C169.794 342.745 169.991 343.241 169.991 343.852C169.991 344.233 169.902 344.604 169.725 344.966C169.554 345.327 169.327 345.675 169.045 346.011C168.762 346.346 168.456 346.661 168.128 346.957C167.799 347.246 167.481 347.515 167.172 347.765H170.158V348.8H165.408ZM174.273 348.8V347.519H170.873V346.513L174.106 341.901H175.535V346.425H176.441V347.519H175.535V348.8H174.273ZM172.223 346.425H174.352V343.29L172.223 346.425ZM179.907 348.918C179.401 348.918 178.964 348.829 178.596 348.652C178.235 348.475 177.949 348.231 177.739 347.923C177.535 347.607 177.417 347.252 177.384 346.858H178.616C178.675 347.141 178.82 347.377 179.05 347.568C179.28 347.752 179.565 347.844 179.907 347.844C180.275 347.844 180.574 347.709 180.804 347.44C181.041 347.17 181.159 346.835 181.159 346.434C181.159 346.02 181.041 345.692 180.804 345.449C180.574 345.206 180.282 345.084 179.927 345.084C179.631 345.084 179.375 345.156 179.158 345.301C178.941 345.445 178.787 345.626 178.695 345.843H177.483L178.074 341.901H181.898V343.004H179.02L178.705 344.601C178.849 344.443 179.046 344.315 179.296 344.217C179.546 344.112 179.825 344.059 180.134 344.059C180.627 344.059 181.037 344.171 181.366 344.394C181.694 344.611 181.944 344.9 182.115 345.262C182.286 345.616 182.371 346.004 182.371 346.425C182.371 346.904 182.266 347.331 182.056 347.706C181.852 348.08 181.563 348.376 181.188 348.593C180.82 348.81 180.393 348.918 179.907 348.918ZM184.058 348.869C183.828 348.869 183.637 348.797 183.486 348.652C183.341 348.507 183.269 348.333 183.269 348.13C183.269 347.919 183.341 347.742 183.486 347.597C183.637 347.453 183.828 347.381 184.058 347.381C184.288 347.381 184.475 347.453 184.619 347.597C184.771 347.742 184.846 347.919 184.846 348.13C184.846 348.333 184.771 348.507 184.619 348.652C184.475 348.797 184.288 348.869 184.058 348.869ZM185.745 348.8V347.883C186.166 347.535 186.573 347.19 186.967 346.848C187.368 346.507 187.723 346.168 188.032 345.833C188.347 345.498 188.597 345.173 188.781 344.857C188.972 344.535 189.067 344.223 189.067 343.921C189.067 343.639 188.988 343.389 188.83 343.172C188.679 342.955 188.426 342.847 188.071 342.847C187.71 342.847 187.437 342.965 187.253 343.202C187.069 343.438 186.977 343.724 186.977 344.059H185.755C185.768 343.553 185.88 343.133 186.09 342.798C186.301 342.456 186.58 342.203 186.928 342.039C187.276 341.868 187.667 341.782 188.101 341.782C188.804 341.782 189.349 341.976 189.737 342.364C190.131 342.745 190.328 343.241 190.328 343.852C190.328 344.233 190.24 344.604 190.062 344.966C189.891 345.327 189.665 345.675 189.382 346.011C189.1 346.346 188.794 346.661 188.466 346.957C188.137 347.246 187.818 347.515 187.51 347.765H190.496V348.8H185.745ZM192.293 348.8V343.34L191.159 343.606V342.64L192.825 341.901H193.603V348.8H192.293ZM199.951 348.918C199.445 348.918 198.988 348.82 198.581 348.622C198.173 348.419 197.848 348.113 197.605 347.706C197.368 347.298 197.25 346.783 197.25 346.158V341.901H198.512V346.168C198.512 346.707 198.64 347.108 198.896 347.371C199.159 347.634 199.52 347.765 199.98 347.765C200.434 347.765 200.792 347.634 201.055 347.371C201.317 347.108 201.449 346.707 201.449 346.168V341.901H202.71V346.158C202.71 346.783 202.586 347.298 202.336 347.706C202.086 348.113 201.751 348.419 201.331 348.622C200.917 348.82 200.457 348.918 199.951 348.918ZM206.354 348.918C205.848 348.918 205.401 348.833 205.013 348.662C204.626 348.484 204.32 348.235 204.097 347.913C203.873 347.584 203.758 347.187 203.752 346.72H205.082C205.096 347.042 205.211 347.315 205.427 347.538C205.651 347.755 205.956 347.863 206.344 347.863C206.679 347.863 206.945 347.785 207.142 347.627C207.339 347.463 207.438 347.246 207.438 346.976C207.438 346.694 207.349 346.474 207.172 346.316C207.001 346.158 206.771 346.03 206.482 345.932C206.193 345.833 205.884 345.728 205.555 345.616C205.023 345.432 204.616 345.196 204.333 344.907C204.057 344.618 203.919 344.233 203.919 343.754C203.913 343.346 204.008 342.998 204.205 342.709C204.409 342.413 204.685 342.186 205.033 342.029C205.381 341.864 205.782 341.782 206.236 341.782C206.696 341.782 207.1 341.864 207.448 342.029C207.803 342.193 208.079 342.423 208.276 342.719C208.479 343.014 208.588 343.366 208.601 343.773H207.251C207.244 343.53 207.149 343.317 206.965 343.133C206.787 342.942 206.538 342.847 206.216 342.847C205.94 342.84 205.707 342.909 205.516 343.054C205.332 343.192 205.24 343.395 205.24 343.665C205.24 343.895 205.312 344.079 205.457 344.217C205.601 344.348 205.799 344.46 206.048 344.552C206.298 344.644 206.584 344.742 206.906 344.848C207.247 344.966 207.56 345.104 207.842 345.262C208.125 345.419 208.351 345.629 208.522 345.892C208.693 346.149 208.778 346.48 208.778 346.888C208.778 347.249 208.686 347.584 208.502 347.893C208.318 348.202 208.046 348.452 207.684 348.642C207.323 348.826 206.879 348.918 206.354 348.918ZM209.879 348.8V341.901H212.235C213.043 341.901 213.707 342.045 214.226 342.334C214.751 342.617 215.139 343.018 215.389 343.537C215.645 344.049 215.773 344.654 215.773 345.35C215.773 346.047 215.645 346.654 215.389 347.174C215.139 347.686 214.751 348.087 214.226 348.376C213.707 348.659 213.043 348.8 212.235 348.8H209.879ZM211.141 347.716H212.176C212.754 347.716 213.21 347.624 213.546 347.44C213.881 347.249 214.12 346.98 214.265 346.631C214.41 346.277 214.482 345.85 214.482 345.35C214.482 344.857 214.41 344.434 214.265 344.079C214.12 343.724 213.881 343.451 213.546 343.261C213.21 343.07 212.754 342.975 212.176 342.975H211.141V347.716Z" fill="white"/>
<path d="M184.437 361.938V360.883H188.567V361.938H184.437ZM190.522 364.264V358.804L189.388 359.07V358.104L191.054 357.365H191.832V364.264H190.522ZM193.683 364.333C193.453 364.333 193.262 364.261 193.111 364.116C192.966 363.971 192.894 363.797 192.894 363.594C192.894 363.383 192.966 363.206 193.111 363.061C193.262 362.917 193.453 362.845 193.683 362.845C193.913 362.845 194.1 362.917 194.244 363.061C194.396 363.206 194.471 363.383 194.471 363.594C194.471 363.797 194.396 363.971 194.244 364.116C194.1 364.261 193.913 364.333 193.683 364.333ZM197.972 364.382C197.335 364.382 196.789 364.234 196.336 363.939C195.882 363.636 195.531 363.219 195.281 362.687C195.038 362.148 194.917 361.524 194.917 360.814C194.917 360.111 195.038 359.49 195.281 358.951C195.531 358.413 195.882 357.995 196.336 357.7C196.789 357.397 197.335 357.246 197.972 357.246C198.609 357.246 199.155 357.397 199.608 357.7C200.061 357.995 200.41 358.413 200.653 358.951C200.902 359.49 201.027 360.111 201.027 360.814C201.027 361.524 200.902 362.148 200.653 362.687C200.41 363.219 200.061 363.636 199.608 363.939C199.155 364.234 198.609 364.382 197.972 364.382ZM197.972 363.249C198.491 363.249 198.915 363.032 199.243 362.598C199.572 362.164 199.736 361.57 199.736 360.814C199.736 360.059 199.572 359.464 199.243 359.03C198.915 358.597 198.491 358.38 197.972 358.38C197.446 358.38 197.019 358.597 196.691 359.03C196.369 359.464 196.208 360.059 196.208 360.814C196.208 361.57 196.369 362.164 196.691 362.598C197.019 363.032 197.446 363.249 197.972 363.249ZM205.295 364.264V362.983H201.894V361.977L205.127 357.365H206.556V361.888H207.463V362.983H206.556V364.264H205.295ZM203.244 361.888H205.373V358.754L203.244 361.888ZM209.71 360.755C209.395 360.755 209.109 360.686 208.853 360.548C208.597 360.404 208.393 360.2 208.242 359.937C208.091 359.674 208.015 359.362 208.015 359.001C208.015 358.639 208.091 358.327 208.242 358.064C208.393 357.802 208.597 357.601 208.853 357.463C209.109 357.319 209.398 357.246 209.72 357.246C210.036 357.246 210.318 357.319 210.568 357.463C210.824 357.601 211.028 357.802 211.179 358.064C211.33 358.327 211.405 358.639 211.405 359.001C211.405 359.362 211.33 359.674 211.179 359.937C211.028 360.2 210.824 360.404 210.568 360.548C210.311 360.686 210.026 360.755 209.71 360.755ZM209.336 364.264L213.229 357.365H214.461L210.568 364.264H209.336ZM209.71 359.878C209.901 359.878 210.065 359.806 210.203 359.661C210.341 359.51 210.41 359.29 210.41 359.001C210.41 358.712 210.341 358.491 210.203 358.34C210.072 358.189 209.907 358.114 209.71 358.114C209.513 358.114 209.346 358.189 209.208 358.34C209.076 358.491 209.01 358.712 209.01 359.001C209.01 359.29 209.076 359.51 209.208 359.661C209.346 359.806 209.513 359.878 209.71 359.878ZM214.126 364.382C213.81 364.382 213.525 364.313 213.268 364.175C213.012 364.031 212.808 363.827 212.657 363.564C212.506 363.301 212.431 362.989 212.431 362.628C212.431 362.266 212.506 361.957 212.657 361.701C212.808 361.438 213.012 361.238 213.268 361.1C213.525 360.955 213.814 360.883 214.136 360.883C214.451 360.883 214.734 360.955 214.983 361.1C215.239 361.238 215.443 361.438 215.594 361.701C215.745 361.957 215.821 362.266 215.821 362.628C215.821 362.989 215.745 363.301 215.594 363.564C215.443 363.827 215.239 364.031 214.983 364.175C214.734 364.313 214.448 364.382 214.126 364.382ZM214.126 363.505C214.323 363.505 214.487 363.433 214.619 363.288C214.757 363.137 214.826 362.917 214.826 362.628C214.826 362.339 214.757 362.118 214.619 361.967C214.487 361.816 214.323 361.741 214.126 361.741C213.929 361.741 213.761 361.816 213.623 361.967C213.492 362.118 213.426 362.339 213.426 362.628C213.426 362.917 213.492 363.137 213.623 363.288C213.761 363.433 213.929 363.505 214.126 363.505Z" fill="#FF1800"/>
<path d="M17.1192 409.024L14.7837 408.172V420.112H216.216V376.376L212.129 377.795C212.129 377.795 210.254 377.802 209.748 378.173C209.242 378.544 208.626 379.783 208.626 379.783C208.626 379.783 204.539 380.569 204.539 381.202V385.745L199.284 388.3L192.861 385.745C192.861 385.745 190.96 383.565 189.942 383.473C188.924 383.382 185.416 386.56 185.416 386.56L180.796 385.745L174.636 392.274L171.248 390.855C171.248 390.855 168.168 392.85 166.32 392.85C164.472 392.85 161.917 392.274 161.917 392.274C161.917 392.274 161.917 390.855 160.468 390.855C159.019 390.855 157.246 393.126 157.246 393.126L151.536 387.458L146.608 391.352L142.065 388.3L136.136 392.274L130.284 393.599L125.664 391.652L121.046 395.113H118.888L116.959 398.804L113.456 402.21L109.032 403.914H104.114L101.64 402.21L97.692 401.075H90.102L88.088 398.091C86.856 396.744 81.948 403.777 80.08 404.232C78.211 404.686 75.505 406.185 75.505 406.753L63.244 409.024L59.741 406.753H52.151L48.356 405.43L41.057 408.172L38.5 406.753H31.132L28.028 405.13L23.542 406.753H20.622L17.1192 409.024Z" fill="url(#paint2_linear_809_4775)" fill-opacity="0.5"/>
<path d="M14.7842 407.556L17.1196 408.408L20.6233 406.137H23.5423L28.0283 404.514L31.1323 406.137H38.5003L41.0583 407.556L48.3563 404.813L52.1513 406.137H59.7413L63.2443 408.408L75.5053 406.137C75.5053 405.569 78.2123 404.07 80.0803 403.615C81.9483 403.161 86.8563 396.127 88.0883 397.475L90.1023 400.459H97.6923L101.64 401.594L104.115 403.298H109.032L113.456 401.594L116.96 398.188L118.888 394.497H121.047L125.664 391.035L130.284 392.982L136.136 391.658L142.066 387.683L146.608 390.736L151.536 386.842L157.246 392.51C157.246 392.51 159.019 390.238 160.468 390.238C161.917 390.238 161.917 391.658 161.917 391.658C161.917 391.658 164.472 392.234 166.32 392.234C168.168 392.234 171.248 390.238 171.248 390.238L174.636 391.658L180.796 385.128L185.416 385.944C185.416 385.944 188.924 382.766 189.942 382.857C190.96 382.948 192.861 385.128 192.861 385.128L199.284 387.683L204.539 385.128C204.539 385.128 204.539 381.219 204.539 380.586C204.539 379.953 208.626 379.167 208.626 379.167C208.626 379.167 209.242 377.928 209.748 377.557C210.254 377.186 212.129 377.179 212.129 377.179L216.216 375.76" stroke="#FF1800" stroke-width="1.848" stroke-linecap="round"/>
<path d="M206.723 89.5731L209.545 92.4001L206.723 95.2271L207.592 96.0961L211.288 92.4001L207.592 88.7041L206.723 89.5731Z" fill="#757575"/>
<path d="M115.192 486.024C130.502 486.024 142.912 473.613 142.912 458.304C142.912 442.995 130.502 430.584 115.192 430.584C99.8828 430.584 87.4722 442.995 87.4722 458.304C87.4722 473.613 99.8828 486.024 115.192 486.024Z" fill="#181818"/>
<path d="M115.192 480.172C127.27 480.172 137.06 470.381 137.06 458.304C137.06 446.227 127.27 436.436 115.192 436.436C103.115 436.436 93.3242 446.227 93.3242 458.304C93.3242 470.381 103.115 480.172 115.192 480.172Z" stroke="#0052FF" stroke-opacity="0.6" stroke-width="0.616"/>
<path d="M115.192 474.794C124.299 474.794 131.682 467.411 131.682 458.304C131.682 449.197 124.299 441.814 115.192 441.814C106.085 441.814 98.7021 449.197 98.7021 458.304C98.7021 467.411 106.085 474.794 115.192 474.794Z" fill="#0052FF" fill-opacity="0.1"/>
<path d="M120.149 458.099L119.37 457.333L122.335 454.42C122.325 454.402 122.314 454.384 122.304 454.365H106.108V453.246H122.333L119.348 450.308L120.175 449.518C120.2 449.533 120.223 449.551 120.244 449.571C121.522 450.832 122.8 452.094 124.078 453.355C124.357 453.631 124.365 453.952 124.092 454.222C122.802 455.5 121.51 456.775 120.216 458.049C120.194 458.067 120.172 458.084 120.149 458.099Z" fill="#0052FF"/>
<path d="M108.058 462.217L111.02 465.123L110.188 465.954C109.832 465.596 109.452 465.208 109.067 464.826C108.164 463.931 107.259 463.038 106.354 462.146C106.006 461.803 106.007 461.51 106.358 461.165C107.608 459.932 108.857 458.699 110.106 457.466C110.144 457.429 110.184 457.393 110.203 457.376L111.002 458.162L108.03 461.09H124.277V462.217H108.058Z" fill="#0052FF"/>
<path opacity="0.35" d="M219.092 11.396H208.825C208.088 11.396 207.49 11.9935 207.49 12.7307V16.4267C207.49 17.1638 208.088 17.7613 208.825 17.7613H219.092C219.829 17.7613 220.426 17.1638 220.426 16.4267V12.7307C220.426 11.9935 219.829 11.396 219.092 11.396Z" stroke="white" stroke-width="0.616"/>
<path opacity="0.4" d="M221.35 13.3467V15.8107C221.845 15.602 222.168 15.1165 222.168 14.5787C222.168 14.0408 221.845 13.5554 221.35 13.3467Z" fill="white"/>
<path d="M218.681 12.3198H209.235C208.782 12.3198 208.414 12.6875 208.414 13.1412V16.0158C208.414 16.4694 208.782 16.8372 209.235 16.8372H218.681C219.134 16.8372 219.502 16.4694 219.502 16.0158V13.1412C219.502 12.6875 219.134 12.3198 218.681 12.3198Z" fill="white"/>
<path fill-rule="evenodd" clip-rule="evenodd" d="M199.379 12.4954C200.749 12.4954 202.067 13.0215 203.061 13.965C203.135 14.0378 203.255 14.0369 203.329 13.9629L204.044 13.242C204.081 13.2045 204.102 13.1537 204.101 13.1008C204.101 13.0479 204.08 12.9973 204.042 12.9602C201.435 10.4641 197.322 10.4641 194.716 12.9602C194.678 12.9973 194.656 13.0479 194.656 13.1007C194.656 13.1536 194.676 13.2045 194.714 13.242L195.429 13.9629C195.502 14.037 195.622 14.038 195.697 13.965C196.69 13.0215 198.008 12.4953 199.379 12.4954ZM199.379 14.8408C200.132 14.8407 200.858 15.1204 201.416 15.6254C201.492 15.697 201.611 15.6955 201.684 15.6219L202.398 14.9009C202.436 14.8631 202.457 14.8118 202.456 14.7585C202.456 14.7052 202.434 14.6543 202.395 14.6173C200.696 13.0376 198.064 13.0376 196.364 14.6173C196.326 14.6543 196.304 14.7052 196.303 14.7586C196.303 14.8119 196.324 14.8632 196.361 14.9009L197.075 15.6219C197.149 15.6955 197.268 15.697 197.343 15.6254C197.901 15.1207 198.626 14.8411 199.379 14.8408ZM200.809 16.4189C200.81 16.4724 200.789 16.5239 200.751 16.5613L199.516 17.8069C199.48 17.8435 199.43 17.8641 199.379 17.8641C199.327 17.8641 199.278 17.8435 199.242 17.8069L198.006 16.5613C197.968 16.5239 197.947 16.4723 197.948 16.4189C197.949 16.3654 197.973 16.3148 198.012 16.2789C198.801 15.6123 199.957 15.6123 200.745 16.2789C200.785 16.3148 200.808 16.3654 200.809 16.4189Z" fill="white"/>
<path fill-rule="evenodd" clip-rule="evenodd" d="M190.96 11.0879H190.344C190.004 11.0879 189.728 11.3637 189.728 11.7039V17.0426C189.728 17.3828 190.004 17.6586 190.344 17.6586H190.96C191.3 17.6586 191.576 17.3828 191.576 17.0426V11.7039C191.576 11.3637 191.3 11.0879 190.96 11.0879ZM187.469 12.5253H188.085C188.426 12.5253 188.701 12.8011 188.701 13.1413V17.0426C188.701 17.3828 188.426 17.6586 188.085 17.6586H187.469C187.129 17.6586 186.853 17.3828 186.853 17.0426V13.1413C186.853 12.8011 187.129 12.5253 187.469 12.5253ZM185.211 13.9626H184.595C184.254 13.9626 183.979 14.2383 183.979 14.5786V17.0426C183.979 17.3828 184.254 17.6586 184.595 17.6586H185.211C185.551 17.6586 185.827 17.3828 185.827 17.0426V14.5786C185.827 14.2383 185.551 13.9626 185.211 13.9626ZM182.336 15.1946H181.72C181.38 15.1946 181.104 15.4703 181.104 15.8106V17.0426C181.104 17.3828 181.38 17.6586 181.72 17.6586H182.336C182.676 17.6586 182.952 17.3828 182.952 17.0426V15.8106C182.952 15.4703 182.676 15.1946 182.336 15.1946Z" fill="white"/>
<path d="M22.4011 17.7458C24.0341 17.7458 25.0001 16.4555 25.0001 14.2763C25.0001 13.5138 24.8641 12.8732 24.5981 12.3543C24.1791 11.4791 23.4031 10.9873 22.4371 10.9873C21.0611 10.9873 20.0591 11.9347 20.0591 13.2386C20.0591 14.4748 20.9841 15.3907 22.2211 15.3907C23.0601 15.3907 23.7451 14.9666 24.0071 14.326H24.0121H24.0161C24.0211 14.326 24.0251 14.326 24.0251 14.326C24.0251 15.9682 23.4301 16.9067 22.4151 16.9067C21.8141 16.9067 21.3181 16.5502 21.1651 16.0179H20.1501C20.3441 17.051 21.2411 17.7458 22.4011 17.7458ZM22.4371 14.5651C21.6481 14.5651 21.0661 13.9876 21.0661 13.2071C21.0661 12.4491 21.6751 11.849 22.4511 11.849C23.2271 11.849 23.8311 12.4536 23.8311 13.2251C23.8311 13.9921 23.2361 14.5651 22.4371 14.5651ZM26.4631 16.6179C26.7921 16.6179 27.0541 16.3562 27.0541 16.0269C27.0541 15.6975 26.7921 15.4358 26.4631 15.4358C26.1331 15.4358 25.8721 15.6975 25.8721 16.0269C25.8721 16.3562 26.1331 16.6179 26.4631 16.6179ZM26.4631 13.3289C26.7921 13.3289 27.0541 13.0717 27.0541 12.7378C27.0541 12.4085 26.7921 12.1468 26.4631 12.1468C26.1331 12.1468 25.8721 12.4085 25.8721 12.7378C25.8721 13.0717 26.1331 13.3289 26.4631 13.3289ZM31.1291 17.624H32.0991V16.3382H32.9921V15.49H32.0991V11.1136H30.6371C29.1711 13.2341 28.4311 14.4027 27.8711 15.4539V16.3382H31.1291V17.624ZM28.8141 15.481C29.3331 14.538 29.9921 13.5229 31.1201 11.8941H31.1381V15.5035H28.8141V15.481ZM35.2541 17.624H36.2421V11.1136H35.2441L33.5301 12.3318V13.3244L35.2311 12.1152H35.2541V17.624Z" fill="white"/>
<path d="M16.5434 80.456V75.792H14.9985V75.282H18.7091V75.792H17.1643V80.456H16.5434ZM20.2891 80.545C19.9441 80.545 19.6341 80.466 19.3581 80.308C19.0821 80.151 18.8621 79.929 18.7001 79.643C18.5421 79.352 18.4631 79.012 18.4631 78.623C18.4631 78.234 18.5451 77.896 18.7071 77.61C18.8701 77.319 19.0891 77.095 19.3651 76.937C19.6461 76.78 19.9591 76.701 20.3041 76.701C20.6491 76.701 20.9591 76.78 21.2351 76.937C21.5111 77.095 21.7281 77.319 21.8861 77.61C22.0481 77.896 22.1301 78.234 22.1301 78.623C22.1301 79.012 22.0481 79.352 21.8861 79.643C21.7231 79.929 21.5011 80.151 21.2201 80.308C20.9441 80.466 20.6341 80.545 20.2891 80.545ZM20.2891 80.013C20.5011 80.013 20.6981 79.961 20.8801 79.857C21.0631 79.754 21.2111 79.599 21.3241 79.392C21.4371 79.185 21.4941 78.928 21.4941 78.623C21.4941 78.317 21.4371 78.061 21.3241 77.854C21.2151 77.647 21.0701 77.492 20.8881 77.388C20.7051 77.285 20.5111 77.233 20.3041 77.233C20.0921 77.233 19.8951 77.285 19.7121 77.388C19.5301 77.492 19.3821 77.647 19.2691 77.854C19.1561 78.061 19.0991 78.317 19.0991 78.623C19.0991 78.928 19.1561 79.185 19.2691 79.392C19.3821 79.599 19.5281 79.754 19.7051 79.857C19.8871 79.961 20.0821 80.013 20.2891 80.013ZM24.1501 80.456C23.8141 80.456 23.5511 80.375 23.3591 80.212C23.1661 80.049 23.0701 79.756 23.0701 79.332V77.314H22.4351V76.79H23.0701L23.1521 75.91H23.6911V76.79H24.7711V77.314H23.6911V79.332C23.6911 79.564 23.7381 79.722 23.8321 79.806C23.9251 79.884 24.0901 79.924 24.3271 79.924H24.7111V80.456H24.1501ZM26.6311 80.545C26.3261 80.545 26.0721 80.493 25.8701 80.39C25.6681 80.286 25.5181 80.148 25.4191 79.976C25.3201 79.803 25.2711 79.616 25.2711 79.414C25.2711 79.039 25.4141 78.751 25.7001 78.549C25.9861 78.347 26.3751 78.246 26.8681 78.246H27.8581V78.201C27.8581 77.881 27.7751 77.64 27.6071 77.477C27.4391 77.31 27.2151 77.226 26.9341 77.226C26.6931 77.226 26.4831 77.287 26.3061 77.411C26.1341 77.529 26.0251 77.704 25.9811 77.935H25.3451C25.3701 77.669 25.4581 77.445 25.6111 77.263C25.7691 77.08 25.9631 76.942 26.1951 76.849C26.4271 76.75 26.6731 76.701 26.9341 76.701C27.4471 76.701 27.8311 76.839 28.0871 77.115C28.3491 77.386 28.4791 77.748 28.4791 78.201V80.456H27.9251L27.8881 79.798C27.7841 80.005 27.6321 80.183 27.4301 80.33C27.2321 80.473 26.9661 80.545 26.6311 80.545ZM26.7271 80.02C26.9641 80.02 27.1661 79.958 27.3331 79.835C27.5061 79.712 27.6371 79.552 27.7251 79.355C27.8141 79.158 27.8581 78.951 27.8581 78.734V78.726H26.9201C26.5551 78.726 26.2961 78.79 26.1431 78.919C25.9961 79.042 25.9221 79.197 25.9221 79.384C25.9221 79.576 25.9911 79.732 26.1291 79.85C26.2711 79.963 26.4711 80.02 26.7271 80.02ZM29.2631 80.456V75.134H29.8841V80.456H29.2631ZM32.5991 80.456V75.282H34.4181C34.7821 75.282 35.0831 75.341 35.3191 75.459C35.5611 75.572 35.7411 75.73 35.8591 75.932C35.9771 76.129 36.0361 76.351 36.0361 76.597C36.0361 76.933 35.9451 77.196 35.7631 77.388C35.5851 77.581 35.3711 77.714 35.1201 77.788C35.3121 77.822 35.4871 77.898 35.6451 78.017C35.8021 78.135 35.9261 78.283 36.0141 78.46C36.1081 78.638 36.1551 78.832 36.1551 79.044C36.1551 79.305 36.0911 79.544 35.9621 79.761C35.8341 79.973 35.6451 80.143 35.3931 80.271C35.1421 80.394 34.8361 80.456 34.4771 80.456H32.5991ZM33.2201 77.544H34.3731C34.7031 77.544 34.9571 77.467 35.1351 77.314C35.3121 77.157 35.4011 76.94 35.4011 76.664C35.4011 76.403 35.3121 76.193 35.1351 76.036C34.9621 75.878 34.7011 75.799 34.3511 75.799H33.2201V77.544ZM33.2201 79.939H34.4101C34.7651 79.939 35.0381 79.857 35.2311 79.695C35.4231 79.527 35.5191 79.296 35.5191 79C35.5191 78.709 35.4181 78.477 35.2161 78.305C35.0141 78.128 34.7401 78.039 34.3951 78.039H33.2201V79.939ZM38.0811 80.545C37.7751 80.545 37.5211 80.493 37.3191 80.39C37.1171 80.286 36.9671 80.148 36.8681 79.976C36.7701 79.803 36.7211 79.616 36.7211 79.414C36.7211 79.039 36.8641 78.751 37.1491 78.549C37.4351 78.347 37.8241 78.246 38.3171 78.246H39.3081V78.201C39.3081 77.881 39.2241 77.64 39.0561 77.477C38.8891 77.31 38.6651 77.226 38.3841 77.226C38.1421 77.226 37.9331 77.287 37.7561 77.411C37.5831 77.529 37.4751 77.704 37.4301 77.935H36.7951C36.8191 77.669 36.9081 77.445 37.0611 77.263C37.2181 77.08 37.4131 76.942 37.6451 76.849C37.8761 76.75 38.1231 76.701 38.3841 76.701C38.8961 76.701 39.2811 76.839 39.5371 77.115C39.7981 77.386 39.9291 77.748 39.9291 78.201V80.456H39.3741L39.3371 79.798C39.2341 80.005 39.0811 80.183 38.8791 80.33C38.6821 80.473 38.4161 80.545 38.0811 80.545ZM38.1771 80.02C38.4131 80.02 38.6151 79.958 38.7831 79.835C38.9551 79.712 39.0861 79.552 39.1751 79.355C39.2631 79.158 39.3081 78.951 39.3081 78.734V78.726H38.3691C38.0041 78.726 37.7461 78.79 37.5931 78.919C37.4451 79.042 37.3711 79.197 37.3711 79.384C37.3711 79.576 37.4401 79.732 37.5781 79.85C37.7211 79.963 37.9211 80.02 38.1771 80.02ZM40.7121 80.456V75.134H41.3331V80.456H40.7121ZM43.4231 80.545C43.1171 80.545 42.8641 80.493 42.6621 80.39C42.4591 80.286 42.3091 80.148 42.2111 79.976C42.1121 79.803 42.0631 79.616 42.0631 79.414C42.0631 79.039 42.2061 78.751 42.4921 78.549C42.7771 78.347 43.1671 78.246 43.6591 78.246H44.6501V78.201C44.6501 77.881 44.5661 77.64 44.3991 77.477C44.2311 77.31 44.0071 77.226 43.7261 77.226C43.4851 77.226 43.2751 77.287 43.0981 77.411C42.9251 77.529 42.8171 77.704 42.7721 77.935H42.1371C42.1611 77.669 42.2501 77.445 42.4031 77.263C42.5611 77.08 42.7551 76.942 42.9871 76.849C43.2181 76.75 43.4651 76.701 43.7261 76.701C44.2381 76.701 44.6231 76.839 44.8791 77.115C45.1401 77.386 45.2711 77.748 45.2711 78.201V80.456H44.7171L44.6801 79.798C44.5761 80.005 44.4231 80.183 44.2211 80.33C44.0241 80.473 43.7581 80.545 43.4231 80.545ZM43.5191 80.02C43.7561 80.02 43.9581 79.958 44.1251 79.835C44.2981 79.712 44.4281 79.552 44.5171 79.355C44.6061 79.158 44.6501 78.951 44.6501 78.734V78.726H43.7111C43.3471 78.726 43.0881 78.79 42.9351 78.919C42.7871 79.042 42.7131 79.197 42.7131 79.384C42.7131 79.576 42.7821 79.732 42.9201 79.85C43.0631 79.963 43.2631 80.02 43.5191 80.02ZM46.0551 80.456V76.79H46.6161L46.6531 77.448C46.7721 77.216 46.9421 77.034 47.1631 76.901C47.3851 76.767 47.6361 76.701 47.9171 76.701C48.3511 76.701 48.6961 76.834 48.9521 77.1C49.2131 77.361 49.3441 77.765 49.3441 78.312V80.456H48.7231V78.379C48.7231 77.615 48.4081 77.233 47.7771 77.233C47.4621 77.233 47.1981 77.349 46.9861 77.581C46.7791 77.807 46.6761 78.133 46.6761 78.556V80.456H46.0551ZM51.8221 80.545C51.4721 80.545 51.1571 80.466 50.8761 80.308C50.6001 80.146 50.3811 79.921 50.2181 79.636C50.0611 79.345 49.9821 79.007 49.9821 78.623C49.9821 78.238 50.0611 77.903 50.2181 77.618C50.3811 77.327 50.6001 77.103 50.8761 76.945C51.1571 76.782 51.4721 76.701 51.8221 76.701C52.2561 76.701 52.6211 76.814 52.9161 77.041C53.2171 77.268 53.4071 77.571 53.4861 77.95H52.8501C52.8011 77.723 52.6801 77.549 52.4881 77.425C52.2951 77.297 52.0711 77.233 51.8151 77.233C51.6081 77.233 51.4131 77.285 51.2311 77.388C51.0491 77.492 50.9011 77.647 50.7871 77.854C50.6741 78.061 50.6171 78.317 50.6171 78.623C50.6171 78.928 50.6741 79.185 50.7871 79.392C50.9011 79.599 51.0491 79.756 51.2311 79.865C51.4131 79.968 51.6081 80.02 51.8151 80.02C52.0711 80.02 52.2951 79.958 52.4881 79.835C52.6801 79.707 52.8011 79.527 52.8501 79.296H53.4861C53.4121 79.665 53.2241 79.966 52.9241 80.197C52.6231 80.429 52.2561 80.545 51.8221 80.545ZM55.8531 80.545C55.5031 80.545 55.1931 80.466 54.9221 80.308C54.6511 80.146 54.4361 79.921 54.2791 79.636C54.1261 79.35 54.0501 79.012 54.0501 78.623C54.0501 78.238 54.1261 77.903 54.2791 77.618C54.4321 77.327 54.6431 77.103 54.9141 76.945C55.1901 76.782 55.5081 76.701 55.8681 76.701C56.2231 76.701 56.5281 76.782 56.7851 76.945C57.0461 77.103 57.2451 77.312 57.3831 77.573C57.5211 77.834 57.5901 78.115 57.5901 78.416C57.5901 78.47 57.5881 78.524 57.5831 78.578C57.5831 78.633 57.5831 78.694 57.5831 78.763H54.6631C54.6781 79.044 54.7421 79.278 54.8551 79.466C54.9741 79.648 55.1191 79.786 55.2911 79.879C55.4691 79.973 55.6561 80.02 55.8531 80.02C56.1101 80.02 56.3241 79.961 56.4961 79.843C56.6691 79.724 56.7951 79.564 56.8731 79.362H57.4871C57.3881 79.702 57.1991 79.985 56.9181 80.212C56.6421 80.434 56.2871 80.545 55.8531 80.545ZM55.8531 77.226C55.5581 77.226 55.2941 77.317 55.0621 77.499C54.8361 77.677 54.7051 77.938 54.6711 78.283H56.9771C56.9621 77.953 56.8491 77.694 56.6371 77.507C56.4251 77.319 56.1641 77.226 55.8531 77.226Z" fill="#B7B7B7"/>
<path d="M18.6872 100.438V99.2999C17.7311 99.1919 16.9525 98.8559 16.3513 98.2949C15.7501 97.7329 15.4396 96.9789 15.4199 96.0329H17.4157C17.4355 96.4269 17.5537 96.7719 17.7706 97.0679C17.9973 97.3629 18.3032 97.5649 18.6872 97.6739V94.5539C18.5982 94.5249 18.5052 94.4949 18.4062 94.4659C18.3172 94.4359 18.2242 94.4059 18.1252 94.3769C17.327 94.1009 16.716 93.7459 16.2922 93.3119C15.8782 92.8789 15.6712 92.3019 15.6712 91.5829C15.6614 90.7349 15.9373 90.0549 16.4991 89.5419C17.0609 89.0199 17.7903 88.7199 18.6872 88.6409V87.4429H19.6782V88.6549C20.5652 88.7439 21.2792 89.0549 21.8212 89.5869C22.3732 90.1089 22.6642 90.7839 22.6932 91.6119H20.6682C20.6582 91.3259 20.5652 91.0649 20.3872 90.8289C20.2202 90.5819 19.9832 90.4099 19.6782 90.3109V93.0609C19.7562 93.0909 19.8352 93.1199 19.9142 93.1499C19.9932 93.1699 20.0722 93.1939 20.1512 93.2239C20.6632 93.4009 21.1312 93.6079 21.5552 93.8449C21.9792 94.0809 22.3192 94.3969 22.5752 94.7909C22.8312 95.1749 22.9602 95.6729 22.9602 96.2839C22.9602 96.7969 22.8312 97.2749 22.5752 97.7179C22.3292 98.1619 21.9592 98.5309 21.4662 98.8269C20.9832 99.1129 20.3872 99.2749 19.6782 99.3149V100.438H18.6872ZM17.6523 91.4499C17.6523 91.7649 17.7459 92.0209 17.9332 92.2179C18.1202 92.4059 18.3722 92.5679 18.6872 92.7059V90.2519C18.3812 90.3109 18.1302 90.4439 17.9332 90.6509C17.7459 90.8579 17.6523 91.1239 17.6523 91.4499ZM20.9492 96.4169C20.9492 96.0229 20.8312 95.7119 20.5942 95.4859C20.3582 95.2589 20.0522 95.0669 19.6782 94.9089V97.7179C20.0722 97.6589 20.3822 97.5159 20.6092 97.2889C20.8362 97.0629 20.9492 96.7719 20.9492 96.4169ZM28.1442 99.3299C27.4252 99.3299 26.8182 99.1919 26.3262 98.9159C25.8332 98.6299 25.4482 98.2599 25.1722 97.8069C24.8962 97.3529 24.7342 96.8659 24.6852 96.3429H26.4442C26.5232 96.7969 26.7102 97.1459 27.0062 97.3929C27.3112 97.6389 27.6962 97.7619 28.1592 97.7619C28.8192 97.7619 29.3512 97.4619 29.7552 96.8609C30.1602 96.2499 30.3762 95.3229 30.4062 94.0809C30.1692 94.4849 29.8102 94.8199 29.3272 95.0859C28.8542 95.3529 28.3312 95.4859 27.7602 95.4859C27.1882 95.4859 26.6512 95.3479 26.1482 95.0719C25.6462 94.7959 25.2362 94.4059 24.9212 93.9039C24.6062 93.4009 24.4482 92.8099 24.4482 92.1299C24.4482 91.5089 24.6012 90.9319 24.9062 90.3999C25.2122 89.8679 25.6362 89.4389 26.1782 89.1139C26.7202 88.7889 27.3562 88.6259 28.0852 88.6259C28.8632 88.6259 29.5192 88.7689 30.0512 89.0549C30.5832 89.3399 31.0072 89.7249 31.3232 90.2079C31.6482 90.6909 31.8792 91.2279 32.0172 91.8189C32.1652 92.4109 32.2392 93.0169 32.2392 93.6379C32.2392 94.7909 32.0772 95.7959 31.7512 96.6539C31.4362 97.5009 30.9682 98.1619 30.3472 98.6349C29.7362 99.0979 29.0012 99.3299 28.1442 99.3299ZM28.2032 93.8889C28.5682 93.8889 28.8982 93.8099 29.1942 93.6519C29.4892 93.4849 29.7212 93.2679 29.8892 93.0019C30.0562 92.7259 30.1402 92.4199 30.1402 92.0849C30.1402 91.5529 29.9532 91.1149 29.5782 90.7699C29.2132 90.4249 28.7502 90.2519 28.1882 90.2519C27.6362 90.2519 27.1782 90.4249 26.8132 90.7699C26.4492 91.1049 26.2662 91.5329 26.2662 92.0559C26.2662 92.6079 26.4492 93.0509 26.8132 93.3859C27.1782 93.7209 27.6412 93.8889 28.2032 93.8889ZM33.1822 100.867L34.0252 97.1859H35.8582L34.4242 100.867H33.1822ZM42.1332 99.1519V97.2299H37.0332V95.7219L41.8822 88.8029H44.0252V95.5889H45.3862V97.2299H44.0252V99.1519H42.1332ZM39.0582 95.5889H42.2512V90.8879L39.0582 95.5889ZM50.2592 99.3299C49.5792 99.3299 48.9632 99.2109 48.4112 98.9749C47.8592 98.7279 47.4152 98.3539 47.0802 97.8509C46.7452 97.3479 46.5682 96.7179 46.5482 95.9589H48.4112C48.4212 96.4609 48.5832 96.8849 48.8992 97.2299C49.2242 97.5649 49.6772 97.7329 50.2592 97.7329C50.8112 97.7329 51.2352 97.5799 51.5302 97.2749C51.8262 96.9689 51.9742 96.5849 51.9742 96.1209C51.9742 95.5789 51.7772 95.1699 51.3822 94.8939C50.9982 94.6079 50.5002 94.4659 49.8892 94.4659H49.1202V92.9129H49.9042C50.4072 92.9129 50.8262 92.7949 51.1612 92.5579C51.4962 92.3219 51.6632 91.9719 51.6632 91.5089C51.6632 91.1239 51.5352 90.8189 51.2792 90.5919C51.0322 90.3559 50.6882 90.2369 50.2442 90.2369C49.7612 90.2369 49.3822 90.3799 49.1062 90.6659C48.8402 90.9519 48.6922 91.3019 48.6622 91.7159H46.8142C46.8542 90.7599 47.1842 90.0059 47.8052 89.4539C48.4352 88.9019 49.2492 88.6259 50.2442 88.6259C50.9542 88.6259 51.5502 88.7539 52.0332 89.0099C52.5262 89.2569 52.8952 89.5869 53.1422 90.0009C53.3982 90.4149 53.5262 90.8729 53.5262 91.3759C53.5262 91.9569 53.3632 92.4499 53.0382 92.8539C52.7232 93.2479 52.3292 93.5139 51.8552 93.6519C52.4372 93.7709 52.9102 94.0569 53.2752 94.5099C53.6392 94.9529 53.8222 95.5149 53.8222 96.1949C53.8222 96.7669 53.6842 97.2889 53.4082 97.7619C53.1322 98.2349 52.7282 98.6149 52.1952 98.9009C51.6732 99.1869 51.0282 99.3299 50.2592 99.3299ZM60.4112 99.1519V97.2299H55.3112V95.7219L60.1602 88.8029H62.3032V95.5889H63.6632V97.2299H62.3032V99.1519H60.4112ZM57.3362 95.5889H60.5292V90.8879L57.3362 95.5889ZM65.9202 99.2559C65.5752 99.2559 65.2892 99.1469 65.0622 98.9299C64.8462 98.7139 64.7372 98.4519 64.7372 98.1469C64.7372 97.8309 64.8462 97.5649 65.0622 97.3479C65.2892 97.1319 65.5752 97.0229 65.9202 97.0229C66.2652 97.0229 66.5462 97.1319 66.7632 97.3479C66.9892 97.5649 67.1032 97.8309 67.1032 98.1469C67.1032 98.4519 66.9892 98.7139 66.7632 98.9299C66.5462 99.1469 66.2652 99.2559 65.9202 99.2559ZM68.4512 99.1519V97.7769C69.0822 97.2549 69.6932 96.7369 70.2852 96.2249C70.8862 95.7119 71.4182 95.2049 71.8812 94.7019C72.3542 94.1989 72.7292 93.7119 73.0052 93.2379C73.2912 92.7559 73.4342 92.2869 73.4342 91.8339C73.4342 91.4099 73.3152 91.0359 73.0792 90.7099C72.8522 90.3849 72.4732 90.2229 71.9402 90.2229C71.3982 90.2229 70.9892 90.3999 70.7132 90.7549C70.4372 91.1099 70.2992 91.5379 70.2992 92.0409H68.4662C68.4862 91.2819 68.6532 90.6509 68.9692 90.1489C69.2842 89.6359 69.7032 89.2569 70.2262 89.0099C70.7482 88.7539 71.3342 88.6259 71.9852 88.6259C73.0392 88.6259 73.8572 88.9169 74.4392 89.4979C75.0302 90.0699 75.3262 90.8139 75.3262 91.7309C75.3262 92.3019 75.1932 92.8589 74.9272 93.4009C74.6712 93.9429 74.3312 94.4659 73.9072 94.9679C73.4832 95.4709 73.0252 95.9439 72.5322 96.3869C72.0392 96.8209 71.5612 97.2249 71.0982 97.5999H75.5772V99.1519H68.4512ZM78.2722 99.1519V90.9619L76.5722 91.3609V89.9119L79.0712 88.8029H80.2392V99.1519H78.2722Z" fill="white"/>
<path d="M203.28 52.976H214.368V51.744H203.28V52.976ZM203.28 49.896H214.368V48.664H203.28V49.896ZM203.28 45.584V46.816H214.368V45.584H203.28Z" fill="#D3D3D3"/>
<path d="M25.872 51.744V48.664C25.872 46.7729 24.862 45.1897 23.1 44.7709V44.352C23.1 43.8407 22.687 43.428 22.176 43.428C21.665 43.428 21.252 43.8407 21.252 44.352V44.7709C19.484 45.1897 18.48 46.7667 18.48 48.664V51.744L17.248 52.976V53.592H27.104V52.976L25.872 51.744ZM22.792 51.744H21.56V50.512H22.792V51.744ZM22.792 49.28H21.56V46.816H22.792V49.28ZM22.176 55.44C22.854 55.44 23.408 54.8856 23.408 54.208H20.944C20.944 54.8856 21.492 55.44 22.176 55.44Z" fill="#D3D3D3"/>
<defs>
<linearGradient id="paint0_linear_809_4775" x1="115.5" y1="174.328" x2="115.5" y2="218.064" gradientUnits="userSpaceOnUse">
<stop stop-color="#0FD369"/>
<stop offset="1" stop-color="#0FD369" stop-opacity="0"/>
</linearGradient>
<linearGradient id="paint1_linear_809_4775" x1="115.5" y1="275.352" x2="115.5" y2="319.088" gradientUnits="userSpaceOnUse">
<stop stop-color="#0FD369"/>
<stop offset="1" stop-color="#0FD369" stop-opacity="0"/>
</linearGradient>
<linearGradient id="paint2_linear_809_4775" x1="115.5" y1="376.376" x2="115.5" y2="420.112" gradientUnits="userSpaceOnUse">
<stop stop-color="#FF1800"/>
<stop offset="1" stop-color="#FF1800" stop-opacity="0"/>
</linearGradient>
</defs>
</svg>
