<svg width="94" height="94" viewBox="0 0 94 94" fill="none" xmlns="http://www.w3.org/2000/svg">
<circle r="31.5" transform="matrix(1 0 0 -1 47 47)" stroke="#DAEBFF"/>
<g filter="url(#filter0_d_104_1511)">
<path d="M64.4164 50.8353C66.0503 49.8324 68.0061 50.6642 68.4421 52.513C68.6315 53.3142 68.3742 53.9905 67.7802 54.5263C67.4559 54.8198 67.3666 55.0679 67.6148 55.4672C67.8147 55.8133 67.9651 56.1857 68.0615 56.5735C68.1442 56.8679 68.2865 56.9357 68.5579 56.9225C68.8191 56.9037 69.0817 56.9171 69.3397 56.9622C69.8041 57.0537 70.2223 57.3033 70.5233 57.6685C70.8242 58.0336 70.9892 58.4917 70.9902 58.9647C70.9963 59.2541 70.9963 59.5435 70.9902 59.8329C70.9646 60.9847 70.0859 61.8553 68.9285 61.8801C68.1839 61.8959 68.1897 61.8975 67.9118 62.5953C67.7996 62.9062 67.6632 63.2078 67.5039 63.4974C67.3508 63.7546 67.4294 63.8926 67.6048 64.0994C67.9035 64.4499 68.2261 64.8195 68.3817 65.2396C68.5091 65.586 68.4909 66.0366 68.3974 66.4062C68.0599 67.7382 66.4185 68.7784 65.2536 68.3782C64.8325 68.2343 64.4652 67.8962 64.1144 67.5985C63.8985 67.4141 63.7562 67.3389 63.4765 67.4852C63.0513 67.7076 62.5839 67.8465 62.1487 68.0516C62.0353 68.1053 61.9741 68.2707 61.8897 68.3823C61.8831 68.3914 61.8897 68.4096 61.8897 68.4229C62.0552 70.8422 60.1036 71.292 58.3182 70.8504C57.4628 70.6388 56.9349 69.8028 56.9234 68.866C56.9143 68.1475 56.9118 68.1533 56.2615 67.8986C55.9259 67.7738 55.5984 67.628 55.2811 67.4621C55.0528 67.3364 54.9295 67.4025 54.745 67.5514C54.3653 67.8589 53.9798 68.1971 53.5372 68.3782C53.2062 68.5097 52.7678 68.4832 52.4112 68.3939C51.0767 68.0632 50.0161 66.4252 50.4132 65.2677C50.5663 64.8228 50.9311 64.4408 51.2405 64.0646C51.3952 63.8753 51.4341 63.7546 51.3233 63.5288C51.1065 63.114 50.925 62.6817 50.7805 62.2365C50.6862 61.9298 50.5257 61.8859 50.2469 61.8727C49.8531 61.8545 49.4453 61.8214 49.0763 61.6974C48.5112 61.5081 48.1406 61.0665 47.947 60.5093C47.8643 60.2769 47.7509 60.2232 47.5333 60.2257C46.5679 60.2339 45.6032 60.2257 44.6377 60.2257H27.4354C25.6616 60.2257 24.6614 59.2335 24.6614 57.4673C24.6614 52.9755 24.6636 48.483 24.668 43.99C24.668 43.6924 24.5853 43.5319 24.3147 43.3848C23.4874 42.9375 23.0216 42.2165 23.0158 41.2747C22.9976 38.1879 22.9976 35.101 23.0158 32.0142C23.0249 30.6772 24.1484 29.6321 25.5309 29.6288C28.6603 29.6205 31.7901 29.6219 34.9201 29.6329C35.3081 29.6329 35.4736 29.5693 35.5488 29.1261C36.128 25.6815 39.2263 23.0464 42.7217 23.0191C44.2357 23.0067 45.7637 22.9546 47.2636 23.1192C50.3768 23.4615 53.0118 26.0693 53.5008 29.1666C53.5645 29.5734 53.7183 29.6346 54.0799 29.6329C57.1682 29.6205 60.2566 29.6247 63.3458 29.6263C65.0004 29.6263 66.0346 30.6532 66.0354 32.3028C66.0354 35.2242 66.0354 38.1457 66.0354 41.0672C66.0354 42.142 65.5787 42.9399 64.629 43.4592C64.5653 43.499 64.5112 43.5523 64.4705 43.6153C64.4297 43.6783 64.4033 43.7495 64.3932 43.8238C64.3791 46.1117 64.3833 48.3987 64.3857 50.6865C64.3907 50.7371 64.4009 50.7869 64.4164 50.8353ZM48.6974 45.1162C48.7966 45.1062 48.8628 45.1062 48.9307 45.093C53.7727 44.092 58.6149 43.0893 63.4575 42.085C64.1946 41.932 64.3733 41.6989 64.3733 40.9539C64.3733 38.1019 64.3733 35.2499 64.3733 32.3978C64.3733 31.5479 64.1086 31.2808 63.268 31.28H25.7576C24.9369 31.28 24.663 31.5503 24.663 32.3648C24.663 35.1892 24.663 38.014 24.663 40.839C24.663 41.7485 24.8235 41.9329 25.7088 42.1148C30.0257 43.0039 34.3423 43.8944 38.6587 44.7863C39.2172 44.902 39.7789 45.0062 40.382 45.1236C40.382 44.8979 40.382 44.7342 40.382 44.5713C40.3969 43.1078 41.4575 42.0395 42.9144 42.0296C44.0172 42.0213 45.1209 42.0172 46.2237 42.0296C46.7732 42.034 47.3049 42.2244 47.7321 42.5698C48.1593 42.9152 48.4567 43.3952 48.5757 43.9313C48.6593 44.3034 48.6585 44.697 48.6974 45.1162ZM26.3425 43.9437C26.3292 44.0719 26.3185 44.1256 26.3185 44.1794C26.3185 48.6724 26.3185 53.1648 26.3185 57.6567C26.3185 58.2586 26.6577 58.5662 27.2997 58.5662C34.0285 58.5662 40.7573 58.5679 47.4862 58.5712C47.7344 58.5712 47.8601 58.5166 47.9718 58.2586C48.1166 57.9329 48.325 57.6395 48.5849 57.3954C49.0556 56.9539 49.6604 56.8687 50.285 56.9158C50.5439 56.9357 50.6755 56.8563 50.7516 56.5851C50.8482 56.1973 50.998 55.8248 51.1967 55.478C51.4532 55.0646 51.3621 54.8107 51.0205 54.504C50.3718 53.9178 50.1154 53.1587 50.4364 52.3327C50.6018 51.9036 50.9328 51.5133 51.2637 51.1752C52.3979 50.0052 53.5099 50.0019 54.6557 51.1471C54.884 51.3753 55.0545 51.3951 55.3291 51.2421C55.6347 51.0536 55.9668 50.912 56.3145 50.8221C56.8332 50.7097 56.9589 50.4442 56.9407 49.9341C56.9052 48.8848 57.5877 48.0464 58.5954 47.867C59.009 47.7926 59.4475 47.8174 59.8736 47.8249C60.3541 47.831 60.8172 48.0062 61.1813 48.3197C61.5455 48.6331 61.7875 49.0648 61.8649 49.5389C61.9088 49.8084 61.874 50.0904 61.9021 50.3657C61.9129 50.4682 61.9758 50.6137 62.0568 50.6526C62.2617 50.7393 62.4727 50.8106 62.6881 50.8659V43.9404L59.4558 44.6093C55.9885 45.327 52.5229 46.0505 49.0531 46.7541C48.718 46.8219 48.6395 46.9608 48.6502 47.275C48.6725 47.7835 48.6651 48.2945 48.6502 48.8038C48.589 50.8651 46.9128 52.6163 44.8594 52.7726C42.7473 52.9297 40.8197 51.4943 40.4747 49.4405C40.3555 48.7277 40.3837 47.9861 40.3862 47.2585C40.3862 46.9327 40.2918 46.8136 39.9725 46.7483C36.2206 45.9835 32.4712 45.2013 28.721 44.4257C27.9425 44.2604 27.1599 44.1074 26.3425 43.9437ZM59.4161 69.3167C60.1946 69.3167 60.2384 69.2728 60.2434 68.5031C60.2434 68.2137 60.2434 67.9243 60.2434 67.6349C60.2483 67.0181 60.451 66.8023 61.0484 66.6137C61.6887 66.4103 62.3373 66.2003 62.9346 65.901C64.145 65.2933 64.1318 65.2668 65.0716 66.2127C65.879 67.0263 65.884 67.0214 66.665 66.1846C66.8991 65.9366 66.9206 65.7166 66.6708 65.4744C66.4209 65.2321 66.1835 64.9874 65.9394 64.7443C65.3843 64.1911 65.376 63.9332 65.7434 63.256C66.0453 62.7028 66.3614 62.1332 66.5186 61.5312C66.89 60.1116 67.0919 60.2132 68.2758 60.2182C69.3703 60.2182 69.3794 60.2091 69.3447 59.1136C69.3447 59.0863 69.3447 59.0582 69.3447 59.0309C69.3314 58.7332 69.1792 58.5736 68.8772 58.5695C68.5058 58.5645 68.1327 58.5695 67.7612 58.5695C67.0638 58.5662 66.8751 58.3678 66.6501 57.698C66.4017 56.9427 66.1004 56.2058 65.7483 55.4929C65.41 54.8165 65.3992 54.5743 65.937 54.0368C66.0346 53.9393 66.1314 53.8409 66.229 53.7441C67.0563 52.9173 67.0505 52.8884 66.1835 52.1293C65.9394 51.916 65.7243 51.9119 65.4977 52.1393C65.2357 52.4022 64.972 52.6646 64.7067 52.9264C64.2484 53.3778 63.9555 53.3803 63.383 53.081C62.7558 52.7398 62.1027 52.4484 61.4297 52.2095C60.25 51.8184 60.2392 51.8507 60.2392 50.6162C60.2392 50.6022 60.2392 50.5889 60.2392 50.5749C60.2798 49.3396 60.1714 49.4694 59.0479 49.4727C58.7484 49.4727 58.5921 49.6422 58.5887 49.9399C58.5838 50.326 58.5887 50.7113 58.5887 51.0974C58.5838 51.6911 58.3827 51.9077 57.8119 52.0971C57.1343 52.322 56.4468 52.5427 55.8139 52.8644C54.6557 53.4539 54.6698 53.4845 53.7456 52.5576C52.9547 51.7622 52.9043 51.768 52.1531 52.6163C51.9404 52.8578 51.9255 53.0727 52.1531 53.3018C52.3971 53.5449 52.6403 53.7896 52.8828 54.0335C53.4238 54.5767 53.4263 54.8248 53.073 55.4887C52.7644 56.0675 52.4608 56.6686 52.2838 57.2962C51.9355 58.5364 51.8494 58.5993 50.5779 58.5637C49.365 58.5306 49.4866 58.6332 49.4866 59.7287C49.4866 60.0471 49.6521 60.2124 49.9714 60.2157C50.3437 60.2157 50.716 60.2157 51.0875 60.2157C51.7642 60.2157 51.9744 60.4142 52.1746 61.0484C52.3748 61.6825 52.594 62.3332 52.8985 62.9286C53.5065 64.1192 53.533 64.106 52.5725 65.0601C51.7824 65.8448 51.789 65.9076 52.6403 66.6518C52.8885 66.8651 53.1003 66.8659 53.3262 66.6402C53.6282 66.3384 53.926 66.0325 54.2362 65.7373C54.5936 65.3958 54.9428 65.3404 55.3614 65.6001C56.1466 66.0879 57.007 66.4427 57.9079 66.6501C58.3662 66.7568 58.5747 67.047 58.5863 67.5142C58.5945 67.8308 58.5863 68.1475 58.5863 68.4642C58.5863 69.2828 58.6202 69.3167 59.4161 69.3167ZM46.9997 46.6904C46.9997 46.0025 47.0055 45.3138 46.9997 44.6234C46.9931 44.0016 46.6762 43.6874 46.05 43.6841C45.0296 43.6786 44.0092 43.6786 42.9889 43.6841C42.3601 43.6841 42.0416 43.9991 42.0391 44.6225C42.0333 45.9579 42.0292 47.294 42.0391 48.6302C42.0365 49.2854 42.2933 49.915 42.7535 50.3816C43.2137 50.8481 43.8399 51.1138 44.4954 51.1206C45.8746 51.1297 46.9774 50.0366 46.9956 48.631C47.0072 47.9853 46.9997 47.3378 46.9997 46.6904ZM38.787 29.6073C38.8209 29.5081 38.854 29.4188 38.8829 29.3278C39.4943 27.4261 41.0042 26.3223 43.0046 26.3173C44.0661 26.3173 45.1275 26.3082 46.1889 26.3173C47.064 26.3208 47.9155 26.6015 48.6209 27.1191C49.3263 27.6367 49.8492 28.3646 50.1146 29.198C50.1609 29.3377 50.2105 29.4758 50.2535 29.5982H51.8536C51.8603 29.509 51.8603 29.4195 51.8536 29.3303C51.4962 27.1103 49.4295 25.0118 47.185 24.7827C45.6835 24.6281 44.1579 24.6562 42.6447 24.681C40.0436 24.7249 37.7247 26.6977 37.2051 29.241C37.1885 29.3627 37.1797 29.4853 37.1787 29.6081L38.787 29.6073ZM48.4773 29.6007C48.4158 29.4524 48.3465 29.3075 48.2696 29.1666C47.7956 28.4117 47.1064 27.9999 46.2196 27.9809C45.0919 27.9569 43.9635 27.9677 42.835 27.9809C42.5875 27.9816 42.3419 28.023 42.1078 28.1033C41.3822 28.3621 40.8428 28.821 40.5806 29.6015L48.4773 29.6007Z" fill="#0052FF"/>
<path d="M48.6972 45.1161C48.6558 44.6969 48.6567 44.3066 48.5731 43.9362C48.4541 43.4 48.1567 42.9201 47.7295 42.5747C47.3023 42.2293 46.7705 42.0388 46.2211 42.0345C45.1183 42.0196 44.0146 42.0237 42.9118 42.0345C41.4541 42.0444 40.3943 43.1094 40.3794 44.5762C40.3794 44.7415 40.3794 44.9069 40.3794 45.1285C39.7763 45.0111 39.2145 44.9069 38.6561 44.7911C34.3392 43.9015 30.0225 43.011 25.7061 42.1196C24.8209 41.9377 24.6604 41.7509 24.6604 40.8438C24.6604 38.0188 24.6604 35.1941 24.6604 32.3697C24.6604 31.5552 24.9342 31.2849 25.7549 31.2849H63.2704C64.1109 31.2849 64.3757 31.5527 64.3757 32.4027C64.3757 35.2553 64.3757 38.1073 64.3757 40.9588C64.3757 41.7029 64.197 41.9369 63.4598 42.0899C58.6184 43.0959 53.7761 44.0985 48.933 45.0979C48.8668 45.1062 48.799 45.1062 48.6972 45.1161Z" fill="#89AFFF"/>
<path d="M26.3424 43.9436C27.1597 44.109 27.9424 44.2603 28.7225 44.4215C32.4728 45.1971 36.2222 45.9793 39.974 46.7441C40.2959 46.8094 40.3918 46.9285 40.3877 47.2542C40.3877 47.9818 40.3571 48.7235 40.4762 49.4362C40.8179 51.4901 42.7455 52.9255 44.861 52.7684C46.9127 52.6162 48.5905 50.8667 48.6517 48.7996C48.6666 48.2902 48.6741 47.7793 48.6517 47.2708C48.6377 46.9566 48.7196 46.8177 49.0546 46.7499C52.5244 46.0462 55.99 45.3228 59.4573 44.6051L62.6896 43.9362V50.8551C62.4742 50.7997 62.2632 50.7284 62.0584 50.6418C61.9756 50.6004 61.9144 50.4574 61.9037 50.3548C61.8755 50.082 61.9103 49.8 61.8664 49.528C61.7891 49.0539 61.547 48.6223 61.1829 48.3088C60.8187 47.9954 60.3557 47.8202 59.8751 47.814C59.449 47.8066 59.0122 47.7817 58.5969 47.8562C57.5917 48.0372 56.9092 48.8756 56.9423 49.9232C56.9605 50.4334 56.8347 50.6988 56.316 50.8113C55.9684 50.9012 55.6362 51.0428 55.3307 51.2313C55.056 51.3884 54.8856 51.3644 54.6572 51.1362C53.5114 49.991 52.3995 49.9943 51.2652 51.1643C50.9343 51.5033 50.6034 51.8936 50.4379 52.3219C50.1169 53.1487 50.3734 53.9069 51.022 54.4931C51.3604 54.7999 51.4547 55.0512 51.1982 55.4671C50.9995 55.8139 50.8497 56.1865 50.7531 56.5743C50.677 56.8463 50.5455 56.9257 50.2865 56.905C49.6635 56.8579 49.0571 56.943 48.5864 57.3846C48.3265 57.6286 48.1181 57.9221 47.9733 58.2478C47.8617 58.5057 47.7367 58.5603 47.4877 58.5603C40.7589 58.5553 34.03 58.5537 27.3012 58.5553C26.6592 58.5553 26.3208 58.2494 26.32 57.6458C26.3156 53.1528 26.3156 48.6604 26.32 44.1685C26.3184 44.1255 26.3291 44.0718 26.3424 43.9436Z" fill="#89AFFF"/>
<path d="M59.4159 69.3165C58.6201 69.3165 58.5886 69.2826 58.5886 68.469C58.5886 68.1524 58.5944 67.8357 58.5886 67.519C58.577 67.0519 58.3686 66.7616 57.9102 66.655C57.0093 66.4475 56.1489 66.0927 55.3638 65.6049C54.9451 65.3453 54.596 65.4007 54.2386 65.7422C53.93 66.0373 53.6322 66.3433 53.3286 66.6451C53.1027 66.8708 52.8868 66.87 52.6427 66.6566C51.7914 65.9125 51.7848 65.8496 52.5749 65.065C53.5354 64.1108 53.5089 64.1241 52.9008 62.9334C52.5964 62.3381 52.3788 61.6932 52.1769 61.0532C51.9751 60.4132 51.7633 60.2264 51.0898 60.2206C50.7184 60.2206 50.3453 60.2206 49.9738 60.2206C49.6545 60.2206 49.489 60.0552 49.489 59.7336C49.489 58.638 49.3674 58.5355 50.5802 58.5686C51.8518 58.6041 51.9378 58.5388 52.2861 57.301C52.4632 56.6735 52.7668 56.0732 53.0754 55.4936C53.4287 54.8321 53.4262 54.5841 52.8851 54.0384C52.6427 53.7903 52.3995 53.5497 52.1554 53.3066C51.9271 53.0776 51.942 52.8626 52.1554 52.6212C52.9066 51.7729 52.9571 51.7671 53.748 52.5625C54.6705 53.4894 54.6581 53.4588 55.8163 52.8692C56.4492 52.5476 57.14 52.3268 57.8143 52.1019C58.3851 51.9126 58.5861 51.696 58.5911 51.1023C58.5911 50.7162 58.5911 50.3309 58.5911 49.9447C58.5911 49.6471 58.7508 49.4784 59.0503 49.4776C60.1738 49.4776 60.2821 49.3445 60.2416 50.5797C60.2416 50.5938 60.2416 50.607 60.2416 50.6211C60.2416 51.8555 60.2524 51.8233 61.4321 52.2144C62.105 52.4533 62.7581 52.7447 63.3854 53.0859C63.9645 53.3852 64.2541 53.3827 64.7091 52.9312C64.9738 52.67 65.2375 52.4076 65.5 52.1441C65.7267 51.9167 65.9418 51.9209 66.1859 52.1342C67.0529 52.8932 67.057 52.9255 66.2314 53.749C66.1337 53.8457 66.0369 53.9441 65.9393 54.0417C65.4016 54.5791 65.4123 54.8214 65.7507 55.4977C66.1017 56.2092 66.4022 56.9444 66.65 57.6979C66.8717 58.3643 67.0579 58.5628 67.752 58.5653C68.1243 58.5653 68.4966 58.5653 68.868 58.5653C69.1675 58.5694 69.3222 58.7306 69.3355 59.0266C69.3355 59.0539 69.3355 59.082 69.3355 59.1093C69.3702 60.2049 69.3611 60.2173 68.2666 60.214C67.0827 60.209 66.8808 60.1073 66.5093 61.527C66.3522 62.1289 66.0361 62.6986 65.7341 63.2517C65.3668 63.9273 65.3751 64.1852 65.9302 64.74C66.1743 64.9831 66.4134 65.2312 66.6616 65.4701C66.9098 65.7091 66.8899 65.929 66.6558 66.1804C65.8748 67.0171 65.8698 67.0221 65.0624 66.2085C64.1225 65.2626 64.1358 65.2891 62.9254 65.8968C62.3281 66.1977 61.6795 66.4061 61.0391 66.6095C60.4418 66.798 60.2391 67.0138 60.2342 67.6306C60.2342 67.92 60.2342 68.2094 60.2342 68.4988C60.2383 69.2736 60.1969 69.3165 59.4159 69.3165ZM59.4441 54.4336C56.723 54.4113 54.4694 56.6206 54.4479 59.3301C54.4264 62.0834 56.6229 64.3308 59.358 64.3539C62.0931 64.3771 64.3517 62.1793 64.3757 59.4756C64.385 58.8204 64.2646 58.1699 64.0215 57.5613C63.7783 56.9528 63.4172 56.3983 62.9589 55.9298C62.5006 55.4612 61.9541 55.0878 61.3509 54.831C60.7477 54.5743 60.0997 54.4392 59.4441 54.4336V54.4336Z" fill="#CDE1FF"/>
<path d="M46.9996 46.6904C46.9996 47.3378 47.0071 47.9852 46.9996 48.6326C46.9798 50.0382 45.8786 51.1313 44.4995 51.1222C43.8439 51.1154 43.2177 50.8497 42.7575 50.3831C42.2973 49.9165 42.0405 49.2869 42.0432 48.6317C42.0316 47.2956 42.0357 45.9594 42.0432 44.6241C42.0432 44.0007 42.3642 43.689 42.9929 43.6857C44.0122 43.6801 45.0325 43.6801 46.054 43.6857C46.6803 43.6857 46.9971 44.0032 47.0037 44.6249C47.0054 45.3137 46.9996 46.0024 46.9996 46.6904ZM43.2767 47.3427C43.2643 47.5883 43.3251 47.832 43.4516 48.043C43.5781 48.2539 43.7644 48.4225 43.987 48.5273C44.2095 48.6321 44.4583 48.6685 44.7015 48.6317C44.9448 48.595 45.1717 48.4868 45.3533 48.3209C45.5349 48.155 45.6631 47.9389 45.7215 47.7001C45.78 47.4612 45.7661 47.2104 45.6816 46.9795C45.5971 46.7485 45.4458 46.5479 45.2469 46.4031C45.0481 46.2583 44.8107 46.1758 44.5648 46.1661C44.2397 46.1568 43.9237 46.2744 43.684 46.4941C43.4443 46.7138 43.2996 47.0182 43.2808 47.3427H43.2767Z" fill="#89AFFF"/>
<path d="M38.7868 29.6072H37.1769C37.1779 29.4844 37.1868 29.3618 37.2034 29.2401C37.7229 26.6968 40.0419 24.724 42.643 24.6801C44.1561 24.6553 45.6817 24.6272 47.1833 24.7818C49.4278 25.0134 51.4944 27.1119 51.8518 29.3294C51.8585 29.4186 51.8585 29.5081 51.8518 29.5973H50.2534C50.2104 29.4749 50.1608 29.3369 50.1144 29.1971C49.8491 28.3637 49.3262 27.6358 48.6208 27.1182C47.9154 26.6006 47.0639 26.3199 46.1888 26.3164C45.1274 26.3057 44.0659 26.3115 43.0045 26.3164C41.004 26.3214 39.4942 27.4261 38.8828 29.3269C38.8522 29.4204 38.8208 29.508 38.7868 29.6072Z" fill="#89AFFF"/>
<path d="M59.4441 54.4336C60.0998 54.4392 60.748 54.5744 61.3513 54.8312C61.9546 55.0881 62.5011 55.4616 62.9595 55.9304C63.4178 56.3991 63.7789 56.9538 64.0219 57.5625C64.265 58.1712 64.3852 58.822 64.3757 59.4773C64.3517 62.1769 62.089 64.3738 59.358 64.3556C56.6271 64.3374 54.4264 62.0802 54.4479 59.3301C54.4694 56.6231 56.7222 54.4113 59.4441 54.4336ZM59.3903 62.7019C60.0445 62.7067 60.6855 62.5175 61.2322 62.1582C61.7788 61.799 62.2067 61.2859 62.4617 60.6837C62.7167 60.0816 62.7874 59.4174 62.6648 58.7751C62.5422 58.1328 62.2319 57.5412 61.7731 57.0751C61.3142 56.609 60.7274 56.2893 60.0868 56.1564C59.4462 56.0235 58.7806 56.0834 58.174 56.3284C57.5674 56.5734 57.0471 56.9927 56.6789 57.5331C56.3106 58.0736 56.1109 58.711 56.105 59.3649C56.1006 60.2417 56.4437 61.0847 57.0593 61.7096C57.6749 62.3344 58.5129 62.6903 59.3903 62.6995V62.7019Z" fill="#0052FF"/>
<path d="M43.2808 47.3427C43.2927 47.0971 43.3774 46.8606 43.524 46.6633C43.6707 46.4659 43.8727 46.3165 44.1045 46.2342C44.3363 46.1518 44.5873 46.1401 44.8258 46.2006C45.0642 46.2611 45.2792 46.3911 45.4436 46.574C45.608 46.7569 45.7142 46.9845 45.7489 47.2279C45.7836 47.4713 45.7451 47.7195 45.6383 47.941C45.5315 48.1625 45.3613 48.3473 45.1493 48.4719C44.9372 48.5965 44.6929 48.6553 44.4473 48.6408C44.1217 48.6197 43.8173 48.472 43.5993 48.2294C43.3812 47.9868 43.2669 47.6685 43.2808 47.3427V47.3427Z" fill="#0052FF"/>
</g>
<defs>
<filter id="filter0_d_104_1511" x="13" y="20" width="68" height="68.0009" filterUnits="userSpaceOnUse" color-interpolation-filters="sRGB">
<feFlood flood-opacity="0" result="BackgroundImageFix"/>
<feColorMatrix in="SourceAlpha" type="matrix" values="0 0 0 0 0 0 0 0 0 0 0 0 0 0 0 0 0 0 127 0" result="hardAlpha"/>
<feOffset dy="7"/>
<feGaussianBlur stdDeviation="5"/>
<feComposite in2="hardAlpha" operator="out"/>
<feColorMatrix type="matrix" values="0 0 0 0 0.278431 0 0 0 0 0.509804 0 0 0 0 1 0 0 0 0.25 0"/>
<feBlend mode="normal" in2="BackgroundImageFix" result="effect1_dropShadow_104_1511"/>
<feBlend mode="normal" in="SourceGraphic" in2="effect1_dropShadow_104_1511" result="shape"/>
</filter>
</defs>
</svg>
