<svg width="94" height="94" viewBox="0 0 94 94" fill="none" xmlns="http://www.w3.org/2000/svg">
<circle r="31.5" transform="matrix(1 0 0 -1 47 47)" stroke="#DAEBFF"/>
<g filter="url(#filter0_d_240_730)">
<path d="M57.3591 68.3136C56.2525 69.8544 54.5902 70.3995 52.8327 70.7279C50.2527 71.2093 47.7086 71.0758 45.2381 70.1281C44.4733 69.8349 43.7752 69.4233 43.2136 68.8077C42.738 68.3007 42.4787 67.6283 42.4908 66.9332C42.4998 64.2715 42.5058 61.6097 42.4908 58.9495C42.4848 58.0445 42.8275 57.3262 43.4828 56.7361C44.3323 55.9721 45.3693 55.5829 46.4445 55.2718C46.6267 55.2193 46.8816 55.2425 46.8411 54.9396C46.7969 54.6112 46.5277 54.7529 46.3627 54.7529C39.0293 54.7449 31.6951 54.7424 24.3602 54.7454C24.1851 54.7515 24.0098 54.7463 23.8353 54.7297C23.6094 54.7053 23.4002 54.5994 23.2467 54.4319C23.0932 54.2643 23.0061 54.0466 23.0016 53.8194C22.9956 53.707 23.0016 53.5945 23.0016 53.482V26.6066C23.0016 25.6363 23.3015 25.3379 24.2762 25.3379H29.0749C29.0749 24.8821 29.0554 24.4502 29.0794 24.0206C29.0853 23.8637 29.1313 23.711 29.213 23.577C29.2947 23.443 29.4092 23.3321 29.5458 23.2548C29.6825 23.1776 29.8366 23.1365 29.9935 23.1357C30.1504 23.1348 30.305 23.1741 30.4425 23.2498C30.8016 23.4417 30.9366 23.7634 30.9433 24.1495C30.9501 24.5244 30.9433 24.8993 30.9433 25.3109C31.0873 25.3207 31.2058 25.3364 31.325 25.3364C33.2489 25.3364 35.1736 25.3282 37.0984 25.3454C37.4425 25.3454 37.5302 25.233 37.5077 24.9166C37.4886 24.5919 37.4886 24.2665 37.5077 23.9418C37.5347 23.3825 37.9096 23.0038 38.4217 22.9986C38.9338 22.9933 39.3215 23.3675 39.3687 23.9163C39.3882 24.1525 39.3777 24.3909 39.3785 24.6286C39.3785 24.8536 39.3785 25.0725 39.3785 25.3139H45.9354C45.9354 24.8843 45.9316 24.4764 45.9354 24.0678C45.9436 23.4072 46.3103 22.9933 46.8778 22.9986C47.4214 23.0038 47.7948 23.4207 47.8098 24.0483C47.8188 24.4352 47.8173 24.8221 47.8226 25.209C47.8315 25.246 47.8451 25.2818 47.8631 25.3154C47.9785 25.3214 48.1113 25.3334 48.244 25.3334C49.7181 25.3334 51.1926 25.3334 52.6677 25.3334C53.5442 25.3334 53.8614 25.6491 53.8614 26.5331C53.8614 31.4937 53.8614 36.4541 53.8614 41.4142C53.8614 41.987 53.8614 41.9833 54.423 41.9877C56.3529 42.0035 58.2387 42.2524 59.9714 43.1627C60.3991 43.3945 60.7965 43.6784 61.1546 44.0077C61.7477 44.5415 62.0416 45.2261 62.0303 46.0411C62.0161 47.0398 62.0386 48.04 62.0206 49.0403C62.0153 49.3589 62.1166 49.4414 62.4285 49.4227C64.2655 49.3102 66.0732 49.4699 67.8232 50.0765C68.6787 50.3764 69.4832 50.7708 70.1348 51.4216C70.6979 51.9854 70.9911 52.6497 70.9888 53.467C70.9753 57.4776 70.9656 61.4898 70.9941 65.4989C71.0016 66.6086 70.5442 67.4176 69.6962 68.0557C68.6742 68.8272 67.4873 69.2163 66.2524 69.4443C63.7781 69.9009 61.327 69.8252 58.93 69.0064C58.3976 68.8272 57.8915 68.5513 57.3591 68.3136ZM51.9607 33.219H24.876V33.6246C24.876 39.8828 24.8728 46.1416 24.8663 52.4008C24.8663 52.79 24.9758 52.8762 25.3469 52.8762C32.3554 52.8657 39.3637 52.8657 46.3717 52.8762C46.7541 52.8762 46.8584 52.769 46.8554 52.3903C46.8381 50.2909 46.8554 48.1915 46.8434 46.0921C46.8434 45.2988 47.0825 44.6045 47.6681 44.0737C48.052 43.7243 48.4712 43.3689 48.9428 43.1672C49.91 42.7495 50.9215 42.4324 51.9652 42.056L51.9607 33.219ZM39.3695 27.2147C39.3695 27.6983 39.3942 28.1226 39.3627 28.5433C39.3533 28.7845 39.2486 29.0121 39.0714 29.176C38.8942 29.34 38.6592 29.4269 38.418 29.4175C37.9171 29.4078 37.543 29.0426 37.5115 28.5065C37.4917 28.1945 37.49 27.8816 37.5062 27.5693C37.5235 27.2866 37.4155 27.2079 37.1388 27.2094C35.1894 27.2189 33.2399 27.2189 31.2905 27.2094C30.9966 27.2094 30.9283 27.3129 30.9396 27.5805C30.9609 27.9553 30.9559 28.3312 30.9246 28.7052C30.9071 28.9453 30.7961 29.169 30.6156 29.3282C30.435 29.4875 30.1993 29.5696 29.9589 29.557C29.4595 29.5345 29.0936 29.1574 29.0726 28.6235C29.0591 28.2741 29.0516 27.9232 29.0726 27.5738C29.0891 27.2941 28.9976 27.2072 28.7135 27.2109C27.5393 27.2252 26.3644 27.2162 25.1895 27.2184C25.094 27.223 24.9989 27.2325 24.9045 27.2469V31.2838C25.0395 31.2928 25.1497 31.3063 25.2592 31.3063C34.0437 31.3063 42.8282 31.3085 51.6128 31.313C51.9127 31.313 51.9952 31.2178 51.9914 30.9284C51.9779 29.8037 51.9869 28.679 51.9847 27.5543C51.9799 27.4516 51.9696 27.3493 51.9539 27.2476H47.8046C47.8046 27.7013 47.8308 28.1264 47.7978 28.547C47.793 28.6664 47.7647 28.7836 47.7145 28.892C47.6643 29.0003 47.5932 29.0977 47.5053 29.1786C47.4174 29.2595 47.3145 29.3222 47.2023 29.3632C47.0901 29.4042 46.9709 29.4227 46.8516 29.4175C46.3485 29.407 45.9699 29.0344 45.9436 28.508C45.9248 28.2084 45.9248 27.9079 45.9436 27.6083C45.9691 27.2941 45.8551 27.2072 45.5447 27.2094C43.833 27.2237 42.1204 27.2162 40.4087 27.2162L39.3695 27.2147ZM63.6116 51.2656C62.1668 51.2656 60.9476 51.3826 59.7877 51.7905C59.2241 51.9867 58.6869 52.2519 58.1884 52.58C57.5136 53.0299 57.5301 53.5113 58.1884 54.0046C58.4453 54.2021 58.7268 54.3652 59.0259 54.4897C61.6502 55.5514 64.3247 55.5514 67.0187 54.7844C67.6935 54.5917 68.3383 54.3143 68.8444 53.8007C69.2081 53.4318 69.2231 53.1176 68.8384 52.7697C68.5523 52.511 68.2303 52.2948 67.8824 52.1279C66.4623 51.4606 64.9425 51.2859 63.6116 51.2656ZM50.6628 60.7805C51.2094 60.6965 52.2006 60.584 53.1738 60.3831C53.9941 60.2136 54.7821 59.9137 55.4307 59.3491C55.9136 58.9285 55.9286 58.5288 55.4359 58.13C55.12 57.8662 54.7661 57.6516 54.3862 57.4934C51.8444 56.4909 49.2509 56.4797 46.6394 57.1815C45.9144 57.3757 45.2148 57.6576 44.663 58.1974C44.2776 58.5723 44.2611 58.8992 44.663 59.2546C44.96 59.5196 45.2936 59.7406 45.6534 59.9107C47.0953 60.5878 48.6444 60.746 50.6628 60.7805ZM54.4342 43.875C53.2151 43.8675 52.0147 44.0047 50.851 44.3796C50.1837 44.594 49.5284 44.8497 49.0162 45.3543C48.6414 45.7239 48.6286 46.0741 49.0162 46.4205C49.3019 46.6732 49.6251 46.9304 49.9782 47.0518C50.8112 47.3382 51.6593 47.6292 52.5275 47.7664C54.5287 48.0835 56.5194 47.9711 58.4336 47.2535C58.9425 47.0505 59.4181 46.7725 59.8447 46.4287C60.2728 46.0943 60.2616 45.7007 59.8492 45.3491C59.5281 45.0729 59.1697 44.8434 58.7845 44.6675C57.4049 44.0519 55.9331 43.8765 54.4342 43.875ZM69.1136 64.357C65.2852 65.966 61.513 65.9615 57.6816 64.3495C57.6816 64.7558 57.6951 65.163 57.6816 65.5694C57.6651 65.9548 57.8038 66.2689 58.1142 66.4691C58.4988 66.7195 58.8917 66.9797 59.3139 67.1394C61.5287 67.9702 63.8036 68.0114 66.0987 67.5593C66.985 67.3846 67.8525 67.1207 68.573 66.5523C68.8084 66.3664 69.0379 66.065 69.0911 65.7823C69.1728 65.3272 69.1136 64.8428 69.1136 64.357ZM44.3706 65.6174C44.3706 66.038 44.3863 66.4489 44.3661 66.8575C44.3481 67.2174 44.4733 67.5136 44.7575 67.7003C45.1721 67.9724 45.5957 68.2536 46.0546 68.4298C47.7041 69.0641 49.4286 69.2013 51.1794 69.0634C52.4195 68.9652 53.632 68.735 54.7484 68.1539C55.8093 67.602 56.1115 66.799 55.7336 65.6481C51.9637 67.2204 48.1997 67.2249 44.3706 65.6174ZM57.6801 56.0021C57.6801 56.4024 57.7018 56.7878 57.6748 57.1695C57.6411 57.6358 57.8248 57.9942 58.2079 58.2079C58.7148 58.4959 59.2336 58.7853 59.7825 58.969C61.4058 59.5133 63.0883 59.5808 64.7791 59.4233C65.9277 59.3161 67.0479 59.0709 68.0781 58.5281C69.1083 57.9852 69.4278 57.1297 69.0469 56.0336C65.2829 57.6081 61.5235 57.6134 57.6816 56.0021H57.6801ZM69.1061 60.1814C65.2724 61.7859 61.4995 61.7814 57.6801 60.1814C57.6801 60.59 57.6988 60.9874 57.6756 61.381C57.6508 61.8002 57.809 62.1353 58.1494 62.3363C58.6398 62.6257 59.1414 62.9264 59.6783 63.1048C61.8279 63.8179 64.0218 63.8329 66.2217 63.3672C67.0539 63.191 67.8712 62.9324 68.5528 62.3925C68.7829 62.2103 69.0341 61.9344 69.0821 61.6667C69.1691 61.1868 69.1076 60.68 69.1076 60.1814H69.1061ZM44.3706 61.4433C44.3706 61.7199 44.4073 61.9869 44.3638 62.2403C44.2094 63.1513 44.7072 63.6402 45.4443 63.9888C45.6362 64.0795 45.8267 64.1748 46.0238 64.2505C47.8166 64.9328 49.6761 65.0363 51.5603 64.8503C52.6977 64.7386 53.8059 64.4889 54.8234 63.9401C55.7981 63.4152 56.1138 62.5267 55.7321 61.4725C51.9614 63.0523 48.1945 63.0546 44.3706 61.4433ZM60.1529 48.6091C56.3289 50.2099 52.5575 50.2174 48.7268 48.6009C48.7268 49.0238 48.7396 49.4302 48.7268 49.8365C48.7118 50.2219 48.8513 50.5398 49.1677 50.7325C49.6228 51.01 50.0862 51.2986 50.5833 51.4823C52.3078 52.1084 54.0946 52.1946 55.9023 52.0132C56.0635 51.9967 56.2307 51.8707 56.3627 51.7575C56.6266 51.5326 56.8478 51.2514 57.1215 51.04C57.926 50.4184 58.867 50.0877 59.832 49.8133C59.9534 49.7788 60.1319 49.6633 60.1416 49.5734C60.1784 49.2555 60.1544 48.933 60.1544 48.6091H60.1529ZM55.7831 53.9236C53.344 54.0736 50.9949 53.8592 48.7628 52.745V54.8766C51.2034 54.7364 53.5555 54.9359 55.7831 56.0643V53.9236Z" fill="#0052FF"/>
<path d="M51.9591 33.2189V42.0581C50.9154 42.433 49.9039 42.7517 48.9367 43.1693C48.4688 43.371 48.0497 43.7264 47.6621 44.0758C47.0802 44.6067 46.8373 45.301 46.8373 46.0943C46.8471 48.1937 46.8321 50.2931 46.8493 52.3925C46.8493 52.7674 46.7481 52.8791 46.3657 52.8783C39.3572 52.8673 32.3489 52.8673 25.3409 52.8783C24.9697 52.8783 24.8595 52.7921 24.8602 52.403C24.8737 46.1442 24.877 39.8855 24.87 33.6268V33.2211L51.9591 33.2189ZM43.9364 38.052C43.7992 37.92 43.7114 37.8368 43.6215 37.7521C42.5843 36.7259 41.2677 36.0279 39.8363 35.7454C38.4048 35.4628 36.9218 35.6082 35.5725 36.1633C32.865 37.264 31.0123 39.9872 30.974 42.9286C30.9065 48.1322 36.1596 51.8271 41.0122 49.9542C41.7672 49.6625 42.46 49.1789 43.1356 48.717C43.557 48.4283 43.5637 47.8315 43.2548 47.4424C42.9459 47.0532 42.442 46.9798 42.0102 47.2542C41.9052 47.3209 41.8085 47.4041 41.7102 47.4746C40.2617 48.5146 38.6654 48.8242 36.9446 48.3744C34.717 47.7903 33.1484 45.8918 32.8822 43.512C32.643 41.3758 33.857 39.1684 35.8431 38.1202C37.8083 37.0833 40.2774 37.3615 41.9854 38.8138C42.0505 38.8803 42.1107 38.9515 42.1654 39.0267C42.0671 39.0327 42.0199 39.038 41.9727 39.038C41.3623 39.038 40.9612 39.3439 40.908 39.8575C40.854 40.3824 41.1749 40.7827 41.7582 40.9072C42.5515 41.0797 43.3425 41.2581 44.1373 41.4238C44.6847 41.5385 45.1375 41.2634 45.2912 40.7273C45.3572 40.5023 45.3977 40.2646 45.4487 40.033C45.5859 39.4114 45.7351 38.7921 45.8551 38.1667C45.9601 37.6231 45.6676 37.1635 45.1728 37.0383C44.6779 36.9131 44.2138 37.1883 44.0413 37.7131C44.0098 37.7986 43.9851 37.8916 43.9379 38.052H43.9364Z" fill="#89AFFF"/>
<path d="M39.3679 27.2146H40.4063C42.1181 27.2146 43.8306 27.2221 45.5424 27.2078C45.8528 27.2078 45.9668 27.2925 45.9413 27.6067C45.9225 27.9063 45.9225 28.2068 45.9413 28.5064C45.9675 29.0313 46.3462 29.4062 46.8493 29.4159C46.9686 29.4213 47.0878 29.403 47.2001 29.3622C47.3123 29.3214 47.4154 29.2588 47.5035 29.1781C47.5915 29.0974 47.6627 29.0001 47.7131 28.8918C47.7635 28.7835 47.792 28.6663 47.797 28.5469C47.83 28.1263 47.8038 27.7012 47.8038 27.2476H51.9531C51.9687 27.3492 51.979 27.4515 51.9838 27.5542C51.9838 28.6789 51.9771 29.8036 51.9906 30.9283C51.9906 31.2177 51.9156 31.3137 51.6119 31.3129C42.8274 31.3054 34.0429 31.3032 25.2583 31.3062C25.1489 31.3062 25.0386 31.2927 24.9037 31.2837V27.2446C24.9981 27.2301 25.0932 27.2206 25.1886 27.2161C26.3628 27.2161 27.5377 27.2228 28.7126 27.2086C28.9953 27.2086 29.0875 27.2918 29.0718 27.5715C29.0515 27.9201 29.059 28.271 29.0718 28.6212C29.0928 29.155 29.4587 29.5322 29.958 29.5547C30.1984 29.5673 30.4342 29.4851 30.6147 29.3259C30.7953 29.1667 30.9062 28.943 30.9237 28.7029C30.955 28.3288 30.9601 27.953 30.9387 27.5782C30.9275 27.3105 30.9957 27.2033 31.2896 27.2071C33.2391 27.2196 35.1885 27.2196 37.138 27.2071C37.4147 27.2071 37.5226 27.282 37.5054 27.567C37.4891 27.8792 37.4909 28.1921 37.5106 28.5042C37.5421 29.038 37.9163 29.4039 38.4171 29.4152C38.6583 29.4245 38.8934 29.3377 39.0705 29.1737C39.2477 29.0098 39.3525 28.7821 39.3619 28.5409C39.3926 28.1226 39.3679 27.6982 39.3679 27.2146Z" fill="#89AFFF"/>
<path d="M63.6116 51.2656C64.9424 51.2828 66.4608 51.4575 67.8771 52.1331C68.225 52.3 68.5469 52.5161 68.8331 52.7749C69.2177 53.1228 69.2027 53.437 68.8391 53.8058C68.333 54.3195 67.6882 54.5969 67.0134 54.7896C64.3194 55.5566 61.6471 55.5566 59.0206 54.4949C58.7215 54.3703 58.44 54.2073 58.1831 54.0098C57.5263 53.5142 57.5083 53.0351 58.1831 52.5852C58.6816 52.257 59.2188 51.9918 59.7824 51.7957C60.9476 51.3855 62.1667 51.2716 63.6116 51.2656Z" fill="#CDE1FF"/>
<path d="M50.6627 60.7804C48.6428 60.7459 47.0952 60.5877 45.6526 59.9106C45.2928 59.7404 44.9592 59.5195 44.6622 59.2545C44.2625 58.8991 44.279 58.5745 44.6622 58.1973C45.2148 57.6575 45.9136 57.3726 46.6386 57.1814C49.2501 56.4796 51.8436 56.4908 54.3854 57.4933C54.7653 57.6515 55.1192 57.8661 55.4351 58.1298C55.9277 58.5287 55.9128 58.9284 55.4299 59.349C54.7813 59.9136 53.9933 60.2135 53.173 60.383C52.2005 60.5839 51.2093 60.6964 50.6627 60.7804Z" fill="#CDE1FF"/>
<path d="M54.4342 43.8749C55.9338 43.8749 57.4048 44.0518 58.783 44.6726C59.1682 44.8486 59.5266 45.078 59.8477 45.3542C60.26 45.7058 60.2713 46.0995 59.8432 46.4339C59.4165 46.7776 58.9409 47.0556 58.4321 47.2587C56.5179 47.9762 54.5272 48.0887 52.526 47.7715C51.66 47.6343 50.812 47.3434 49.9767 47.057C49.6235 46.9355 49.3019 46.6783 49.0147 46.4256C48.6241 46.0792 48.6398 45.7291 49.0147 45.3594C49.5268 44.8526 50.1821 44.5969 50.8494 44.3847C52.0184 44.0046 53.218 43.8674 54.4342 43.8749Z" fill="#CDE1FF"/>
<path d="M69.1135 64.3569C69.1135 64.8427 69.1765 65.3271 69.091 65.7815C69.0378 66.0641 68.8083 66.3656 68.5729 66.5515C67.8524 67.1199 66.9849 67.3838 66.0986 67.5585C63.8035 68.0084 61.5249 67.9694 59.3138 67.1386C58.8879 66.9789 58.495 66.7187 58.1141 66.4683C57.8037 66.2658 57.6642 65.9517 57.6815 65.5685C57.6987 65.1622 57.6815 64.755 57.6815 64.3486C61.5091 65.9614 65.2813 65.9659 69.1135 64.3569Z" fill="#89AFFF"/>
<path d="M44.3705 65.6172C48.1944 67.2248 51.9621 67.2203 55.7336 65.648C56.1085 66.7989 55.8085 67.6019 54.7483 68.1538C53.6319 68.7349 52.4195 68.9651 51.1794 69.0633C49.4293 69.2012 47.7056 69.0633 46.0545 68.4297C45.5957 68.2535 45.172 67.9723 44.7574 67.7002C44.4732 67.5135 44.348 67.2173 44.366 66.8574C44.3878 66.4488 44.3705 66.0364 44.3705 65.6172Z" fill="#89AFFF"/>
<path d="M57.6815 56.002C61.5234 57.6132 65.2828 57.608 69.052 56.0334C69.4352 57.1296 69.1143 57.9829 68.0833 58.528C67.0523 59.0731 65.9299 59.316 64.7842 59.4232C63.0934 59.5807 61.4102 59.5132 59.7876 58.9689C59.238 58.7852 58.7192 58.4958 58.2131 58.2078C57.8329 57.9919 57.6462 57.6357 57.68 57.1694C57.7032 56.7877 57.6815 56.4023 57.6815 56.002Z" fill="#89AFFF"/>
<path d="M69.1075 60.1813C69.1075 60.6799 69.169 61.1867 69.0836 61.6681C69.0356 61.9358 68.7836 62.2117 68.5542 62.3939C67.8741 62.9308 67.0546 63.1894 66.2231 63.3686C64.0232 63.8342 61.8293 63.8185 59.6797 63.1062C59.1429 62.9278 58.6412 62.6271 58.1509 62.3377C57.8105 62.1367 57.6523 61.8016 57.677 61.3824C57.7003 60.9865 57.6815 60.5892 57.6815 60.1828C61.5009 61.7813 65.2739 61.7858 69.1075 60.1813Z" fill="#89AFFF"/>
<path d="M44.3705 61.4432C48.1944 63.0545 51.9598 63.0522 55.732 61.4739C56.1137 62.5281 55.7988 63.4151 54.8233 63.9415C53.8058 64.4903 52.6976 64.74 51.5602 64.8517C49.676 65.0362 47.8165 64.9327 46.0238 64.2519C45.8266 64.1769 45.6361 64.0809 45.4442 63.9902C44.7071 63.6416 44.2093 63.1527 44.3637 62.2417C44.4087 61.9875 44.3705 61.7198 44.3705 61.4432Z" fill="#89AFFF"/>
<path d="M60.1543 48.609C60.1543 48.933 60.1783 49.2554 60.1393 49.5695C60.1281 49.6632 59.9511 49.775 59.8297 49.8095C58.8647 50.0839 57.9237 50.4145 57.1192 51.0361C56.8455 51.2476 56.6243 51.5265 56.3604 51.7537C56.2284 51.8669 56.0605 51.9928 55.9 52.0093C54.0923 52.1908 52.301 52.1046 50.581 51.4785C50.0839 51.2985 49.6205 51.0099 49.1654 50.7287C48.849 50.536 48.7095 50.2181 48.7245 49.8327C48.741 49.4263 48.7245 49.0199 48.7245 48.597C52.559 50.2158 56.3297 50.2098 60.1543 48.609Z" fill="#89AFFF"/>
<path d="M55.7846 53.9235V56.0642C53.5569 54.9395 51.2048 54.7363 48.7643 54.8765V52.7449C50.9964 53.8591 53.3455 54.0735 55.7846 53.9235Z" fill="#89AFFF"/>
<path d="M43.9379 38.052C43.9851 37.8916 44.0128 37.7986 44.0398 37.7071C44.2123 37.1823 44.6749 36.9094 45.1713 37.0323C45.6676 37.1553 45.9585 37.6172 45.8536 38.1607C45.7336 38.7861 45.5844 39.4054 45.4472 40.027C45.3962 40.2587 45.3557 40.4933 45.2897 40.7213C45.1398 41.2574 44.6832 41.5326 44.1358 41.4178C43.341 41.2521 42.55 41.0737 41.7567 40.9012C41.1734 40.7745 40.8525 40.3764 40.9065 39.8515C40.9597 39.3379 41.3608 39.0268 41.9712 39.032C42.0184 39.032 42.0656 39.0268 42.1639 39.0208C42.1092 38.9455 42.049 38.8743 41.9839 38.8078C40.2759 37.3555 37.8068 37.0773 35.8416 38.1143C33.8539 39.164 32.6415 41.3698 32.8807 43.506C33.1469 45.8858 34.7155 47.7843 36.9431 48.3684C38.6676 48.8182 40.2601 48.5116 41.7087 47.4686C41.81 47.3937 41.9067 47.3187 42.0087 47.2482C42.4405 46.9738 42.9481 47.0517 43.2533 47.4364C43.5585 47.821 43.5532 48.4231 43.1341 48.711C42.4593 49.1729 41.7657 49.6565 41.0107 49.9482C36.158 51.8227 30.905 48.1262 30.9725 42.9227C31.0107 39.9827 32.8635 37.258 35.571 36.1573C36.9208 35.6025 38.4041 35.4576 39.8358 35.7409C41.2674 36.0241 42.5838 36.7229 43.6207 37.7499C43.7099 37.8368 43.8006 37.9193 43.9379 38.052Z" fill="#CDE1FF"/>
</g>
<defs>
<filter id="filter0_d_240_730" x="12.9989" y="19.9985" width="68.0011" height="68.0015" filterUnits="userSpaceOnUse" color-interpolation-filters="sRGB">
<feFlood flood-opacity="0" result="BackgroundImageFix"/>
<feColorMatrix in="SourceAlpha" type="matrix" values="0 0 0 0 0 0 0 0 0 0 0 0 0 0 0 0 0 0 127 0" result="hardAlpha"/>
<feOffset dy="7"/>
<feGaussianBlur stdDeviation="5"/>
<feComposite in2="hardAlpha" operator="out"/>
<feColorMatrix type="matrix" values="0 0 0 0 0.278431 0 0 0 0 0.509804 0 0 0 0 1 0 0 0 0.25 0"/>
<feBlend mode="normal" in2="BackgroundImageFix" result="effect1_dropShadow_240_730"/>
<feBlend mode="normal" in="SourceGraphic" in2="effect1_dropShadow_240_730" result="shape"/>
</filter>
</defs>
</svg>
