<svg width="94" height="94" viewBox="0 0 94 94" fill="none" xmlns="http://www.w3.org/2000/svg">
<circle r="31.5" transform="matrix(1 0 0 -1 47 47)" stroke="#DAEBFF"/>
<g filter="url(#filter0_d_240_706)">
<path d="M59.325 59.068C59.325 60.0921 59.325 61.0427 59.325 61.9941C59.325 62.7073 59.0439 62.9864 58.3331 62.9872C57.1423 62.9872 55.9498 62.979 54.7591 62.9921C54.266 62.9978 53.9652 62.7946 53.7893 62.3393C53.4006 61.3373 52.9848 60.3451 52.5961 59.343C52.5139 59.1301 52.4046 59.0607 52.1769 59.0615C46.1504 59.0675 40.1238 59.0675 34.0972 59.0615C33.8679 59.0615 33.7603 59.1341 33.6789 59.3455C33.2951 60.3344 32.8966 61.3185 32.498 62.3026C32.2745 62.8542 32.0739 62.9856 31.4732 62.9864C30.2953 62.9864 29.1174 62.9864 27.9394 62.9864C27.2286 62.9864 26.9533 62.7073 26.9533 61.9917C26.9533 61.0403 26.9533 60.0896 26.9533 59.0672C26.7067 59.0672 26.4799 59.0672 26.2539 59.0672C24.3712 59.046 23.0078 57.7037 23.007 55.8425C23.0031 45.9691 23.0031 36.0957 23.007 26.2223C23.007 24.3611 24.3786 23.0033 26.2547 23.0024C37.5129 22.9992 48.7717 22.9992 60.0309 23.0024C61.9063 23.0024 63.2754 24.3619 63.2754 26.2248C63.2804 36.0981 63.2804 45.9715 63.2754 55.8449C63.2754 57.6907 61.9211 59.0378 60.0704 59.0664C59.8312 59.068 59.602 59.068 59.325 59.068ZM29.3184 50.4358C29.3184 51.0959 29.3184 51.6793 29.3184 52.2627C29.3184 52.7956 29.3184 52.7972 29.8493 52.7972H56.4314C56.9566 52.7972 56.9574 52.7972 56.9574 52.2579V29.8183C56.9574 29.2733 56.9574 29.2725 56.3986 29.2725H29.8962C29.8277 29.2765 29.7591 29.2765 29.6907 29.2725C29.4113 29.2382 29.2971 29.3426 29.311 29.6356C29.3316 30.0697 29.316 30.5054 29.316 30.9411C29.316 31.6127 29.316 31.6127 29.9792 31.6282C30.6021 31.6429 30.8889 31.9162 30.8914 32.5258C30.8974 34.0212 30.8974 35.5172 30.8914 37.0137C30.8914 37.5955 30.5922 37.8794 29.9997 37.8982C29.7869 37.9047 29.5732 37.8982 29.3513 37.8982V44.1658C29.6167 44.1658 29.8444 44.1551 30.0802 44.1658C30.5733 44.1927 30.884 44.4791 30.8873 44.963C30.8988 46.5264 30.8988 48.0901 30.8873 49.6541C30.8831 50.1241 30.5791 50.4039 30.1057 50.4268C29.8616 50.4431 29.6184 50.4333 29.316 50.4333L29.3184 50.4358ZM24.5717 50.4635V55.6589C24.5717 56.8975 25.1897 57.5087 26.4429 57.5087H39.139C46.0559 57.5087 52.9727 57.5087 59.8896 57.5087C61.0278 57.5087 61.7025 56.8804 61.7025 55.8066C61.7025 45.9604 61.7025 36.1142 61.7025 26.268C61.7025 25.2219 61.0344 24.5618 59.9767 24.5618C48.7454 24.5618 37.514 24.5618 26.2827 24.5618C25.2308 24.5618 24.5725 25.2252 24.57 26.2754C24.5657 27.9204 24.5657 29.5657 24.57 31.2112C24.57 31.3312 24.5807 31.4511 24.5873 31.5915C24.7114 31.6037 24.8174 31.6233 24.9234 31.6241C25.7313 31.6241 26.5399 31.6127 27.3469 31.6315C27.6567 31.6396 27.748 31.5401 27.7422 31.2373C27.7241 30.3536 27.7282 29.4691 27.7422 28.5854C27.7496 27.9995 28.0438 27.7221 28.6372 27.705C28.7054 27.705 28.7736 27.705 28.8426 27.705H57.4414C57.5507 27.705 57.6608 27.7009 57.7701 27.7098C58.2205 27.749 58.4909 28.0175 58.532 28.4695C58.5435 28.6042 58.5394 28.7412 58.5394 28.8775V53.1938C58.5394 53.3301 58.5435 53.4663 58.5311 53.6018C58.4892 54.053 58.218 54.3215 57.766 54.3549C57.6017 54.3672 57.4373 54.3606 57.273 54.3606H31.9992C30.8757 54.3606 29.7532 54.3664 28.6298 54.3606C28.0364 54.3557 27.748 54.0702 27.7397 53.4802C27.7282 52.692 27.7397 51.9029 27.7397 51.1138V50.4611L24.5717 50.4635ZM27.7102 44.1454V37.9259H24.5963V44.1454H27.7102ZM24.5972 36.2801C24.6408 36.3005 24.6869 36.315 24.7344 36.3234C26.1693 36.3234 27.6041 36.3234 29.039 36.334C29.2938 36.334 29.3234 36.1985 29.3217 35.9978C29.3217 35.1818 29.3094 34.3658 29.3217 33.5547C29.3275 33.2618 29.2173 33.1867 28.9396 33.1892C27.6962 33.2006 26.4528 33.1941 25.2086 33.1941H24.593L24.5972 36.2801ZM29.3201 48.8536C29.3201 47.9062 29.3069 47.0119 29.3266 46.1176C29.334 45.7985 29.2091 45.7333 28.9157 45.7365C27.5893 45.7488 26.263 45.7406 24.9366 45.743C24.8245 45.7486 24.7129 45.76 24.6021 45.7773V48.8536H29.3201ZM32.0822 59.1056H28.5484V61.4295C29.3702 61.4295 30.1608 61.4344 30.9514 61.423C31.0012 61.4184 31.0493 61.4025 31.092 61.3766C31.1348 61.3507 31.171 61.3155 31.1979 61.2736C31.4995 60.5621 31.7814 59.8465 32.0797 59.1031L32.0822 59.1056ZM57.7315 61.4295V59.0917H54.1871C54.4961 59.8587 54.7845 60.5866 55.0911 61.3079C55.1165 61.3691 55.2415 61.423 55.3212 61.4246C56.1068 61.4344 56.8974 61.427 57.7291 61.427L57.7315 61.4295Z" fill="#0052FF"/>
<path d="M29.3164 50.4333C29.6189 50.4333 29.8621 50.4431 30.1045 50.4333C30.5779 50.4105 30.882 50.1306 30.8861 49.6606C30.8981 48.096 30.8981 46.5324 30.8861 44.9695C30.8861 44.4856 30.5738 44.1992 30.0791 44.1723C29.8473 44.1592 29.6156 44.1723 29.3501 44.1723V37.9047C29.572 37.9047 29.7857 37.9104 29.9985 37.9047C30.591 37.8859 30.8877 37.602 30.8902 37.0202C30.8968 35.5248 30.8968 34.0288 30.8902 32.5323C30.8902 31.9195 30.6009 31.6461 29.978 31.6347C29.3148 31.6192 29.3148 31.6192 29.3148 30.9476C29.3148 30.5127 29.3304 30.077 29.3099 29.6421C29.2959 29.3491 29.4101 29.2447 29.6895 29.279C29.7579 29.283 29.8266 29.283 29.895 29.279H56.3949C56.9529 29.279 56.9537 29.279 56.9537 29.8249V52.2644C56.9537 52.8021 56.9537 52.8037 56.4278 52.8037H29.8473C29.3172 52.8037 29.3164 52.8037 29.3164 52.2693C29.3156 51.6769 29.3164 51.0934 29.3164 50.4333ZM43.1228 31.6265C40.6151 31.6319 38.2117 32.6234 36.4385 34.3841C34.6653 36.1447 33.6667 38.531 33.6613 41.0209C33.6608 42.2576 33.9057 43.4823 34.3822 44.6249C34.8587 45.7675 35.5574 46.8057 36.4382 47.68C37.3191 48.5543 38.3649 49.2476 39.5158 49.7204C40.6668 50.1931 41.9003 50.4359 43.1458 50.4349C45.6534 50.4308 48.0572 49.4401 49.8306 47.6797C51.604 45.9193 52.6024 43.5328 52.6072 41.043C52.6105 35.846 48.3544 31.6184 43.126 31.6265H43.1228Z" fill="#89AFFF"/>
<path d="M24.5697 50.4611H27.7361V51.1138C27.7361 51.9029 27.7287 52.692 27.7361 53.4802C27.7443 54.0702 28.0327 54.3557 28.6261 54.3606C29.7495 54.3688 30.8721 54.3606 31.9955 54.3606H57.2709C57.4353 54.3606 57.5997 54.3672 57.764 54.3549C58.216 54.3215 58.4872 54.053 58.5291 53.6018C58.5414 53.4663 58.5365 53.3301 58.5373 53.1938V28.8767C58.5373 28.7404 58.5414 28.6034 58.5299 28.4687C58.4888 28.0167 58.2185 27.7482 57.7681 27.709C57.6588 27.7001 57.5487 27.7041 57.4394 27.7041H28.8365C28.7674 27.7041 28.6992 27.7041 28.631 27.7041C28.0377 27.7213 27.7435 27.9987 27.7361 28.5846C27.7254 29.4683 27.7213 30.3528 27.7361 31.2365C27.7418 31.5393 27.6539 31.6388 27.3408 31.6306C26.5338 31.6119 25.7251 31.6258 24.9173 31.6233C24.8113 31.6233 24.7053 31.6029 24.5812 31.5907C24.5746 31.4503 24.5639 31.3304 24.5639 31.2104C24.5639 29.5654 24.5639 27.9201 24.5639 26.2745C24.5639 25.2219 25.2213 24.561 26.2765 24.561C37.5079 24.561 48.7392 24.561 59.9706 24.561C61.0258 24.561 61.6964 25.2211 61.6964 26.2672C61.6964 36.1134 61.6964 45.9596 61.6964 55.8057C61.6964 56.8796 61.0216 57.5079 59.8834 57.5079C52.9666 57.5079 46.0497 57.5079 39.1329 57.5079H26.4409C25.1877 57.5079 24.5705 56.8967 24.5697 55.658V50.4627V50.4611Z" fill="#89AFFF"/>
<path d="M27.7081 44.1429H24.5943V37.9235H27.7081V44.1429Z" fill="#89AFFF"/>
<path d="M24.5952 36.2776V33.1916H25.2107C26.4549 33.1916 27.6983 33.1981 28.9417 33.1867C29.2195 33.1867 29.3296 33.2593 29.3238 33.5523C29.3074 34.3683 29.3156 35.1842 29.3238 35.9953C29.3238 36.1961 29.2959 36.3331 29.0411 36.3315C27.6062 36.3233 26.1714 36.325 24.7365 36.3209C24.6876 36.3129 24.6401 36.2983 24.5952 36.2776Z" fill="#CDE1FF"/>
<path d="M29.318 48.8511H24.6033V45.7749C24.7141 45.7576 24.8258 45.7461 24.9378 45.7406C26.2642 45.7406 27.5906 45.7463 28.917 45.7341C29.2071 45.7341 29.3279 45.7961 29.3279 46.1151C29.3049 47.0095 29.318 47.9038 29.318 48.8511Z" fill="#CDE1FF"/>
<path d="M32.0801 59.1031C31.7818 59.8465 31.4999 60.5621 31.2016 61.2712C31.1747 61.3131 31.1385 61.3483 31.0958 61.3742C31.053 61.4001 31.0049 61.4159 30.9551 61.4205C30.1645 61.432 29.3731 61.4271 28.5521 61.4271V59.1031H32.0801Z" fill="#89AFFF"/>
<path d="M57.7295 61.427C56.8978 61.427 56.1073 61.427 55.3159 61.4221C55.2337 61.4221 55.1112 61.3666 55.0857 61.3054C54.7825 60.5841 54.494 59.8563 54.1818 59.0892H57.7262L57.7295 61.427Z" fill="white"/>
<path d="M43.126 31.6265C48.3543 31.6184 52.6104 35.846 52.6072 41.043C52.6024 43.5328 51.6039 45.9193 49.8305 47.6797C48.0571 49.4401 45.6534 50.4308 43.1457 50.4349C41.9005 50.4355 40.6673 50.1923 39.5168 49.7194C38.3662 49.2465 37.3208 48.5531 36.4403 47.6788C35.5598 46.8046 34.8614 45.7665 34.3852 44.6241C33.9089 43.4818 33.664 42.2574 33.6646 41.0209C33.67 38.531 34.6686 36.1447 36.4417 34.3841C38.2149 32.6234 40.6183 31.6319 43.126 31.6265ZM43.1359 37.1181C42.0924 37.1181 41.0914 37.5286 40.3521 38.2598C39.6127 38.991 39.1953 39.9832 39.1912 41.0193C39.189 42.0561 39.6001 43.0516 40.3348 43.7884C41.0694 44.5252 42.0679 44.9433 43.112 44.9515C43.6327 44.9539 44.1486 44.8541 44.6303 44.6577C45.1119 44.4614 45.5497 44.1725 45.9185 43.8076C46.2873 43.4427 46.5799 43.009 46.7793 42.5315C46.9787 42.0539 47.0811 41.542 47.0805 41.025C47.0779 39.9879 46.6612 38.9942 45.9217 38.2618C45.1822 37.5294 44.1803 37.1181 43.1359 37.1181ZM39.8643 36.5918C42.0486 35.1834 44.2404 35.1965 46.3861 36.5787L48.0396 34.9394C45.2923 32.5094 40.6433 32.7126 38.2182 34.9712L39.8643 36.5918ZM37.0118 36.1528C34.645 38.7525 34.6458 43.3204 37.0742 45.9886C37.5311 45.5203 37.9782 45.0429 38.4466 44.5933C38.6546 44.395 38.6611 44.2669 38.5083 44.0156C37.2854 42.0189 37.301 40.0173 38.5239 38.0165C38.5781 37.9267 38.6266 37.8337 38.6447 37.8011L37.0118 36.1528ZM49.2632 45.9307C51.681 43.1262 51.5536 38.7272 49.2813 36.1593C48.7381 36.7011 48.1932 37.2446 47.6287 37.806C49.0331 39.939 49.0159 42.1307 47.6106 44.2865L49.2632 45.9307ZM46.4149 45.4746C44.2428 46.874 42.0355 46.8724 39.8914 45.495C39.3227 46.0556 38.7754 46.5965 38.2305 47.1351C41.1775 49.6646 45.7623 49.242 48.0494 47.0935L46.4149 45.4746Z" fill="#0052FF"/>
<path d="M43.1359 37.1181C44.1811 37.1181 45.1836 37.53 45.9232 38.2633C46.6628 38.9965 47.079 39.9913 47.0806 41.0291C47.0806 41.5457 46.9778 42.0572 46.7781 42.5343C46.5785 43.0114 46.2859 43.4446 45.9171 43.809C45.5484 44.1735 45.1108 44.4621 44.6294 44.6581C44.148 44.8542 43.6324 44.9539 43.1121 44.9515C42.0679 44.9433 41.0695 44.5252 40.3348 43.7884C39.6002 43.0516 39.189 42.0561 39.1912 41.0193C39.1954 39.9832 39.6128 38.991 40.3521 38.2598C41.0914 37.5286 42.0924 37.1181 43.1359 37.1181Z" fill="#89AFFF"/>
<path d="M39.8668 36.5877L38.2231 34.9672C40.645 32.7086 45.2972 32.5054 48.0445 34.9354L46.3911 36.5747C44.2429 35.1924 42.0511 35.1794 39.8668 36.5877Z" fill="#CDE1FF"/>
<path d="M37.0143 36.1487L38.6472 37.797C38.6291 37.8297 38.5806 37.9227 38.5264 38.0124C37.3035 40.0092 37.2879 42.0108 38.5108 44.0115C38.6636 44.2612 38.657 44.391 38.4491 44.5893C37.9774 45.0389 37.5336 45.5162 37.0767 45.9846C34.6483 43.3196 34.6475 38.7501 37.0143 36.1487Z" fill="#CDE1FF"/>
<path d="M49.2632 45.9307L47.6106 44.2865C49.0159 42.1299 49.0331 39.939 47.6287 37.806C48.1933 37.2446 48.7381 36.7012 49.2813 36.1594C51.5536 38.7305 51.6826 43.1295 49.2632 45.9307Z" fill="#CDE1FF"/>
<path d="M46.4149 45.4778L48.0495 47.0968C45.7624 49.2452 41.1775 49.6647 38.2305 47.1384C38.7754 46.5998 39.3227 46.0588 39.8914 45.4982C42.0355 46.8756 44.2429 46.8773 46.4149 45.4778Z" fill="#CDE1FF"/>
<path d="M67.6306 49.4476H52.5447C51.115 49.4476 49.9561 50.5984 49.9561 52.018V66.997C49.9561 68.4165 51.115 69.5673 52.5447 69.5673H67.6306C69.0603 69.5673 70.2193 68.4165 70.2193 66.997V52.018C70.2193 50.5984 69.0603 49.4476 67.6306 49.4476Z" fill="#CDE1FF"/>
<path d="M62.3949 57.5568C62.3949 56.9492 62.1518 56.3664 61.719 55.9367C61.2862 55.507 60.6993 55.2656 60.0873 55.2656C59.4754 55.2658 58.8886 55.5073 58.4561 55.9369C58.0235 56.3666 57.7805 56.9493 57.7805 57.5568C57.7804 57.9613 57.8883 58.3585 58.0931 58.7081C58.298 59.0577 58.5925 59.3472 58.9466 59.547V63.7485H61.2534V59.5331C61.6008 59.3313 61.889 59.0427 62.0893 58.696C62.2895 58.3492 62.3949 57.9565 62.3949 57.5568Z" fill="#0052FF"/>
<path d="M67.4103 47.0821V49.3726H64.6984V47.0821C64.6975 45.8681 64.2114 44.704 63.3469 43.8456C62.4823 42.9871 61.3099 42.5045 60.0872 42.5036C58.8634 42.5036 57.6897 42.9863 56.8243 43.8456C55.959 44.7048 55.4728 45.8702 55.4728 47.0854V49.3758H52.765V47.0854C52.765 45.1571 53.5364 43.3077 54.9095 41.9441C56.2827 40.5805 58.1452 39.8144 60.0872 39.8141C62.0288 39.8144 63.8908 40.5801 65.2641 41.9429C66.6373 43.3058 67.4093 45.1543 67.4103 47.0821Z" fill="#CDE1FF"/>
<path d="M68.191 48.7198V47.0821C68.1887 44.9488 67.3341 42.9035 65.8148 41.3951C64.2956 39.8866 62.2358 39.0381 60.0872 39.0357C57.9388 39.0383 55.8792 39.8869 54.3601 41.3953C52.8411 42.9038 51.9866 44.9489 51.9842 47.0821V48.7198C51.1994 48.8521 50.4869 49.2557 49.9728 49.8593C49.4588 50.4629 49.1763 51.2275 49.1753 52.018V66.997C49.1753 67.8843 49.5303 68.7352 50.1622 69.3626C50.7941 69.99 51.6511 70.3425 52.5447 70.3425H67.6306C68.5242 70.3425 69.3812 69.99 70.0131 69.3626C70.645 68.7352 71 67.8843 71 66.997V52.018C70.999 51.2275 70.7165 50.4629 70.2024 49.8593C69.6884 49.2557 68.9759 48.8521 68.191 48.7198ZM63.9177 48.6725H56.2502V47.0821C56.2513 46.0729 56.6556 45.1053 57.3743 44.3917C58.093 43.678 59.0675 43.2766 60.0839 43.2755C61.1004 43.2764 62.0751 43.6777 62.7938 44.3914C63.5126 45.1051 63.9168 46.0728 63.9177 47.0821V48.6725ZM53.5424 47.0821C53.5441 45.3599 54.2338 43.7088 55.4602 42.4909C56.6866 41.2731 58.3495 40.588 60.0839 40.5861C61.8185 40.588 63.4814 41.273 64.7079 42.4909C65.9345 43.7087 66.6244 45.3598 66.6263 47.0821V48.5974H65.4758V47.0821C65.4743 45.6618 64.9054 44.3001 63.8939 43.2959C62.8825 42.2916 61.5111 41.7267 60.0806 41.7252C58.6502 41.7267 57.2788 42.2916 56.2674 43.2959C55.2559 44.3001 54.687 45.6618 54.6855 47.0821V48.5974H53.5391L53.5424 47.0821ZM69.4353 66.997C69.4353 67.4731 69.2448 67.9297 68.9057 68.2663C68.5667 68.603 68.1068 68.7921 67.6273 68.7921H52.5447C52.0652 68.7921 51.6053 68.603 51.2663 68.2663C50.9272 67.9297 50.7367 67.4731 50.7367 66.997V52.018C50.7367 51.5419 50.9272 51.0853 51.2663 50.7486C51.6053 50.412 52.0652 50.2228 52.5447 50.2228H67.6306C68.1101 50.2228 68.5699 50.412 68.909 50.7486C69.2481 51.0853 69.4385 51.5419 69.4385 52.018L69.4353 66.997Z" fill="#0052FF"/>
</g>
<defs>
<filter id="filter0_d_240_706" x="13" y="20" width="68" height="68" filterUnits="userSpaceOnUse" color-interpolation-filters="sRGB">
<feFlood flood-opacity="0" result="BackgroundImageFix"/>
<feColorMatrix in="SourceAlpha" type="matrix" values="0 0 0 0 0 0 0 0 0 0 0 0 0 0 0 0 0 0 127 0" result="hardAlpha"/>
<feOffset dy="7"/>
<feGaussianBlur stdDeviation="5"/>
<feComposite in2="hardAlpha" operator="out"/>
<feColorMatrix type="matrix" values="0 0 0 0 0.278431 0 0 0 0 0.509804 0 0 0 0 1 0 0 0 0.25 0"/>
<feBlend mode="normal" in2="BackgroundImageFix" result="effect1_dropShadow_240_706"/>
<feBlend mode="normal" in="SourceGraphic" in2="effect1_dropShadow_240_706" result="shape"/>
</filter>
</defs>
</svg>
